<?xml version="1.0" encoding="UTF-8" standalone="no"?>
<svg
   xmlns:dc="http://purl.org/dc/elements/1.1/"
   xmlns:cc="http://creativecommons.org/ns#"
   xmlns:rdf="http://www.w3.org/1999/02/22-rdf-syntax-ns#"
   xmlns:svg="http://www.w3.org/2000/svg"
   xmlns="http://www.w3.org/2000/svg"
   xmlns:sodipodi="http://sodipodi.sourceforge.net/DTD/sodipodi-0.dtd"
   xmlns:inkscape="http://www.inkscape.org/namespaces/inkscape"
   version="1.1"
   viewBox="0 0 340 350"
   stroke-miterlimit="10"
   id="svg63"
   sodipodi:docname="Component.svg"
   width="340"
   height="350"
   style="fill:none;stroke:none;stroke-linecap:square;stroke-miterlimit:10"
   inkscape:version="0.92.3 (2405546, 2018-03-11)">
  <metadata
     id="metadata69">
    <rdf:RDF>
      <cc:Work
         rdf:about="">
        <dc:format>image/svg+xml</dc:format>
        <dc:type
           rdf:resource="http://purl.org/dc/dcmitype/StillImage" />
        <dc:title></dc:title>
      </cc:Work>
    </rdf:RDF>
  </metadata>
  <defs
     id="defs67" />
  <sodipodi:namedview
     pagecolor="#ffffff"
     bordercolor="#666666"
     borderopacity="1"
     objecttolerance="10"
     gridtolerance="10"
     guidetolerance="10"
     inkscape:pageopacity="0"
     inkscape:pageshadow="2"
     inkscape:window-width="1680"
     inkscape:window-height="989"
     id="namedview65"
     showgrid="false"
     showborder="false"
     inkscape:zoom="1.2104167"
     inkscape:cx="380.86059"
     inkscape:cy="270"
     inkscape:window-x="0"
     inkscape:window-y="0"
     inkscape:window-maximized="1"
     inkscape:current-layer="svg63" />
  <clipPath
     id="p.0">
    <path
       d="M 0,0 H 960 V 540 H 0 Z"
       id="path2"
       inkscape:connector-curvature="0"
       style="clip-rule:nonzero" />
  </clipPath>
  <g
     id="g931"
     transform="translate(-291.63512,-60.2926)">
    <path
       d="m 303.92199,337.54586 v 0 c 0,9.0004 71.78958,16.29666 160.34647,16.29666 88.55689,0 160.34644,-7.29626 160.34644,-16.29666 V 389.173 c 0,9.00039 -71.78955,16.29666 -160.34644,16.29666 -88.55689,0 -160.34647,-7.29627 -160.34647,-16.29666 z"
       id="path7"
       inkscape:connector-curvature="0"
       style="fill:#d9ead3;fill-rule:evenodd" />
    <path
       d="m 303.92199,337.54586 v 0 c 0,-9.0004 71.78958,-16.29666 160.34647,-16.29666 88.55689,0 160.34644,7.29626 160.34644,16.29666 v 0 c 0,9.0004 -71.78955,16.29666 -160.34644,16.29666 -88.55689,0 -160.34647,-7.29626 -160.34647,-16.29666 z"
       id="path9"
       inkscape:connector-curvature="0"
       style="fill:#e8f2e4;fill-rule:evenodd" />
    <path
       d="m 624.61489,337.54586 v 0 c 0,9.0004 -71.78955,16.29666 -160.34644,16.29666 -88.55689,0 -160.34647,-7.29626 -160.34647,-16.29666 v 0 c 0,-9.0004 71.78958,-16.29666 160.34647,-16.29666 88.55688,0 160.34644,7.29626 160.34644,16.29666 V 389.173 c 0,9.00039 -71.78955,16.29666 -160.34644,16.29666 -88.55689,0 -160.34647,-7.29627 -160.34647,-16.29666 v -51.62714"
       id="path11"
       inkscape:connector-curvature="0"
       style="fill:#000000;fill-opacity:0;fill-rule:evenodd" />
    <path
       d="m 624.61489,337.54586 v 0 c 0,9.0004 -71.78955,16.29666 -160.34644,16.29666 -88.55689,0 -160.34647,-7.29626 -160.34647,-16.29666 v 0 c 0,-9.0004 71.78958,-16.29666 160.34647,-16.29666 88.55688,0 160.34644,7.29626 160.34644,16.29666 V 389.173 c 0,9.00039 -71.78955,16.29666 -160.34644,16.29666 -88.55689,0 -160.34647,-7.29627 -160.34647,-16.29666 v -51.62714"
       id="path13"
       inkscape:connector-curvature="0"
       style="fill-rule:evenodd;stroke:#38761d;stroke-width:1;stroke-linecap:butt;stroke-linejoin:round" />
    <path
       d="m 421.28564,366.17376 3.09375,7.71875 3.09375,-7.71875 h 1.625 v 9.46875 h -1.25 v -3.6875 l 0.10937,-3.98438 -3.10937,7.67188 h -0.95313 l -3.10937,-7.65625 0.125,3.96875 v 3.6875 h -1.25 v -9.46875 z m 12.74542,9.59375 q -1.42187,0 -2.32809,-0.9375 -0.89063,-0.9375 -0.89063,-2.51563 v -0.21875 q 0,-1.04687 0.39063,-1.85937 0.40625,-0.82813 1.12497,-1.29688 0.71875,-0.46875 1.5625,-0.46875 1.375,0 2.125,0.90625 0.76562,0.90625 0.76562,2.59375 v 0.5 h -4.76562 q 0.0156,1.03125 0.59375,1.67188 0.59375,0.64062 1.48437,0.64062 0.64063,0 1.07813,-0.25 0.45312,-0.26562 0.78125,-0.6875 l 0.73437,0.5625 q -0.875,1.35938 -2.65625,1.35938 z m -0.14062,-6.3125 q -0.73438,0 -1.23438,0.53125 -0.48437,0.53125 -0.60937,1.48437 h 3.53125 v -0.0781 q -0.0469,-0.92188 -0.5,-1.42188 -0.4375,-0.51562 -1.1875,-0.51562 z m 5.92044,-2.5625 v 1.70312 h 1.3125 v 0.9375 h -1.3125 v 4.35938 q 0,0.42187 0.17187,0.64062 0.17188,0.21875 0.59375,0.21875 0.21875,0 0.57813,-0.0781 v 0.96875 q -0.46875,0.125 -0.92188,0.125 -0.8125,0 -1.21875,-0.48438 -0.40625,-0.48437 -0.40625,-1.39062 v -4.35938 h -1.28125 v -0.9375 h 1.28125 v -1.70312 z m 7.07251,8.75 q -0.10938,-0.20313 -0.17188,-0.73438 -0.84375,0.85938 -2.01562,0.85938 -1.03125,0 -1.70313,-0.57813 -0.67187,-0.59375 -0.67187,-1.5 0,-1.09375 0.82812,-1.70312 0.84375,-0.60938 2.35938,-0.60938 h 1.17187 v -0.5625 q 0,-0.625 -0.375,-1 -0.375,-0.375 -1.10937,-0.375 -0.64063,0 -1.07813,0.32813 -0.4375,0.32812 -0.4375,0.78125 h -1.20312 q 0,-0.51563 0.35937,-1 0.375,-0.5 1.01563,-0.78125 0.65625,-0.29688 1.42187,-0.29688 1.21875,0 1.90625,0.60938 0.6875,0.60937 0.71875,1.67187 v 3.25 q 0,0.96875 0.23438,1.53125 v 0.10938 z m -2,-0.92188 q 0.5625,0 1.0625,-0.28125 0.51562,-0.29687 0.73437,-0.76562 v -1.45313 h -0.9375 q -2.21875,0 -2.21875,1.29688 0,0.5625 0.375,0.89062 0.39063,0.3125 0.98438,0.3125 z m 4.60916,-2.65625 q 0,-1.625 0.76562,-2.60937 0.76563,-0.98438 2,-0.98438 1.25,0 1.96875,0.84375 v -3.67187 h 1.20313 v 10 h -1.10938 l -0.0625,-0.75 q -0.71875,0.875 -2,0.875 -1.23437,0 -2,-1 -0.76562,-1 -0.76562,-2.60938 z m 1.20312,0.14063 q 0,1.1875 0.48438,1.875 0.5,0.67187 1.375,0.67187 1.14062,0 1.67187,-1.03125 v -3.23437 q -0.54687,-1 -1.65625,-1 -0.89062,0 -1.39062,0.6875 -0.48438,0.6875 -0.48438,2.03125 z m 10.95411,3.4375 q -0.10938,-0.20313 -0.17188,-0.73438 -0.84375,0.85938 -2.01562,0.85938 -1.03125,0 -1.70313,-0.57813 -0.67187,-0.59375 -0.67187,-1.5 0,-1.09375 0.82812,-1.70312 0.84375,-0.60938 2.35938,-0.60938 h 1.17187 v -0.5625 q 0,-0.625 -0.375,-1 -0.375,-0.375 -1.10937,-0.375 -0.64063,0 -1.07813,0.32813 -0.4375,0.32812 -0.4375,0.78125 h -1.20312 q 0,-0.51563 0.35937,-1 0.375,-0.5 1.01563,-0.78125 0.65625,-0.29688 1.42187,-0.29688 1.21875,0 1.90625,0.60938 0.6875,0.60937 0.71875,1.67187 v 3.25 q 0,0.96875 0.23438,1.53125 v 0.10938 z m -2,-0.92188 q 0.5625,0 1.0625,-0.28125 0.51562,-0.29687 0.73437,-0.76562 v -1.45313 h -0.9375 q -2.21875,0 -2.21875,1.29688 0,0.5625 0.375,0.89062 0.39063,0.3125 0.98438,0.3125 z m 6.531,-7.82812 v 1.70312 h 1.3125 v 0.9375 h -1.3125 v 4.35938 q 0,0.42187 0.17188,0.64062 0.17187,0.21875 0.59375,0.21875 0.21875,0 0.57812,-0.0781 v 0.96875 q -0.46875,0.125 -0.92187,0.125 -0.8125,0 -1.21875,-0.48438 -0.40625,-0.48437 -0.40625,-1.39062 v -4.35938 h -1.28125 v -0.9375 h 1.28125 v -1.70312 z m 7.07254,8.75 q -0.10937,-0.20313 -0.17187,-0.73438 -0.84375,0.85938 -2.01563,0.85938 -1.03125,0 -1.70312,-0.57813 -0.67188,-0.59375 -0.67188,-1.5 0,-1.09375 0.82813,-1.70312 0.84375,-0.60938 2.35937,-0.60938 h 1.17188 v -0.5625 q 0,-0.625 -0.375,-1 -0.375,-0.375 -1.10938,-0.375 -0.64062,0 -1.07812,0.32813 -0.4375,0.32812 -0.4375,0.78125 h -1.20313 q 0,-0.51563 0.35938,-1 0.375,-0.5 1.01562,-0.78125 0.65625,-0.29688 1.42188,-0.29688 1.21875,0 1.90625,0.60938 0.6875,0.60937 0.71875,1.67187 v 3.25 q 0,0.96875 0.23437,1.53125 v 0.10938 z m -2,-0.92188 q 0.5625,0 1.0625,-0.28125 0.51563,-0.29687 0.73438,-0.76562 v -1.45313 h -0.9375 q -2.21875,0 -2.21875,1.29688 0,0.5625 0.375,0.89062 0.39062,0.3125 0.98437,0.3125 z m 11.17426,-3.29687 q -1.60938,-0.46875 -2.34375,-1.14063 -0.73438,-0.67187 -0.73438,-1.65625 0,-1.125 0.89063,-1.85937 0.90625,-0.73438 2.34375,-0.73438 0.96875,0 1.73437,0.39063 0.76563,0.375 1.1875,1.04687 0.42188,0.65625 0.42188,1.4375 h -1.26563 q 0,-0.85937 -0.54687,-1.34375 -0.54688,-0.5 -1.53125,-0.5 -0.92188,0 -1.45313,0.40625 -0.51562,0.40625 -0.51562,1.125 0,0.57813 0.48437,0.98438 0.5,0.40625 1.67188,0.73437 1.1875,0.32813 1.85937,0.73438 0.67188,0.39062 0.98438,0.9375 0.32812,0.53125 0.32812,1.25 0,1.15625 -0.90625,1.84375 -0.89062,0.6875 -2.39062,0.6875 -0.98438,0 -1.82813,-0.375 -0.84375,-0.375 -1.3125,-1.01563 -0.45312,-0.65625 -0.45312,-1.48437 h 1.26562 q 0,0.85937 0.625,1.35937 0.64063,0.5 1.70313,0.5 0.98437,0 1.51562,-0.40625 0.53125,-0.40625 0.53125,-1.09375 0,-0.70312 -0.5,-1.07812 -0.48437,-0.39063 -1.76562,-0.75 z m 6.56332,-4.53125 v 1.70312 h 1.3125 v 0.9375 h -1.3125 v 4.35938 q 0,0.42187 0.17188,0.64062 0.17187,0.21875 0.59375,0.21875 0.21875,0 0.57812,-0.0781 v 0.96875 q -0.46875,0.125 -0.92187,0.125 -0.8125,0 -1.21875,-0.48438 -0.40625,-0.48437 -0.40625,-1.39062 v -4.35938 h -1.28125 v -0.9375 h 1.28125 v -1.70312 z m 2.40067,5.17187 q 0,-1.04687 0.40625,-1.875 0.40625,-0.82812 1.125,-1.26562 0.73437,-0.45313 1.65625,-0.45313 1.4375,0 2.32812,1 0.89063,0.98438 0.89063,2.64063 v 0.0937 q 0,1.01562 -0.39063,1.84375 -0.39062,0.8125 -1.125,1.26562 -0.73437,0.45313 -1.6875,0.45313 -1.42187,0 -2.3125,-0.98438 -0.89062,-1 -0.89062,-2.64062 z m 1.20312,0.14063 q 0,1.17187 0.54688,1.875 0.54687,0.70312 1.45312,0.70312 0.92188,0 1.45313,-0.71875 0.54687,-0.71875 0.54687,-2 0,-1.17187 -0.54687,-1.89062 -0.54688,-0.71875 -1.46875,-0.71875 -0.89063,0 -1.4375,0.71875 -0.54688,0.70312 -0.54688,2.03125 z m 10.11682,-2.53125 q -0.26562,-0.0312 -0.59375,-0.0312 -1.1875,0 -1.60937,1 v 5 h -1.20313 v -7.04688 h 1.17188 l 0.0312,0.8125 q 0.57812,-0.9375 1.67187,-0.9375 0.34375,0 0.53125,0.0937 z m 4.02558,6.09375 q -1.42188,0 -2.32813,-0.9375 -0.89062,-0.9375 -0.89062,-2.51563 v -0.21875 q 0,-1.04687 0.39062,-1.85937 0.40625,-0.82813 1.125,-1.29688 0.71875,-0.46875 1.5625,-0.46875 1.375,0 2.125,0.90625 0.76563,0.90625 0.76563,2.59375 v 0.5 h -4.76563 q 0.0156,1.03125 0.59375,1.67188 0.59375,0.64062 1.48438,0.64062 0.64062,0 1.07812,-0.25 0.45313,-0.26562 0.78125,-0.6875 l 0.73438,0.5625 q -0.875,1.35938 -2.65625,1.35938 z m -0.14063,-6.3125 q -0.73437,0 -1.23437,0.53125 -0.48438,0.53125 -0.60938,1.48437 h 3.53125 v -0.0781 q -0.0469,-0.92188 -0.5,-1.42188 -0.4375,-0.51562 -1.1875,-0.51562 z"
       id="path15"
       inkscape:connector-curvature="0"
       style="fill:#38761d;fill-rule:nonzero" />
    <path
       d="m 286.94561,385.53954 h 16.97638 v 15.62204 h -16.97638 z"
       id="path17"
       inkscape:connector-curvature="0"
       style="fill:#000000;fill-opacity:0;fill-rule:evenodd" />
    <path
       d="m 425.89049,388.63403 h 16.97638 v 15.62204 h -16.97638 z"
       id="path19"
       inkscape:connector-curvature="0"
       style="fill:#000000;fill-opacity:0;fill-rule:evenodd" />
    <path
       d="m 567.89315,388.63403 h 16.97638 v 15.62204 h -16.97638 z"
       id="path21"
       inkscape:connector-curvature="0"
       style="fill:#000000;fill-opacity:0;fill-rule:evenodd" />
    <path
       d="m 372.64642,118.27552 v 0 c 0,-11.8372 9.59595,-21.433148 21.43314,-21.433148 h 140.3778 c 5.68438,0 11.13604,2.25812 15.15551,6.277618 4.01947,4.0195 6.27765,9.4711 6.27765,15.15553 v 124.72423 c 0,11.83722 -9.59594,21.43317 -21.43316,21.43317 h -140.3778 c -11.83719,0 -21.43314,-9.59595 -21.43314,-21.43317 z"
       id="path23"
       inkscape:connector-curvature="0"
       style="fill:#c9daf8;fill-rule:evenodd" />
    <path
       d="m 372.64642,118.27552 v 0 c 0,-11.8372 9.59595,-21.433148 21.43314,-21.433148 h 140.3778 c 5.68438,0 11.13604,2.25812 15.15551,6.277618 4.01947,4.0195 6.27765,9.4711 6.27765,15.15553 v 124.72423 c 0,11.83722 -9.59594,21.43317 -21.43316,21.43317 h -140.3778 c -11.83719,0 -21.43314,-9.59595 -21.43314,-21.43317 z"
       id="path25"
       inkscape:connector-curvature="0"
       style="fill-rule:evenodd;stroke:#1155cc;stroke-width:1;stroke-linecap:butt;stroke-linejoin:round" />
    <path
       d="m 390.52325,112.39501 h 148.03152 v 22.01575 H 390.52325 Z"
       id="path27"
       inkscape:connector-curvature="0"
       style="fill:#d9ead3;fill-rule:evenodd" />
    <path
       d="m 390.52325,112.39501 h 148.03152 v 22.01575 H 390.52325 Z"
       id="path29"
       inkscape:connector-curvature="0"
       style="fill-rule:evenodd;stroke:#38761d;stroke-width:1;stroke-linecap:butt;stroke-linejoin:round" />
    <path
       d="m 448.37709,128.20289 v -9.46875 h 2.6875 q 1.23437,0 2.17187,0.54687 0.95313,0.54688 1.46875,1.5625 0.53125,1 0.53125,2.29688 v 0.60937 q 0,1.34375 -0.51562,2.35938 -0.51563,1 -1.48438,1.54687 -0.95312,0.53125 -2.23437,0.54688 z m 1.25,-8.45313 v 7.4375 h 1.3125 q 1.45312,0 2.25,-0.89062 0.8125,-0.90625 0.8125,-2.57813 v -0.54687 q 0,-1.60938 -0.76563,-2.5 -0.75,-0.90625 -2.14062,-0.92188 z m 10.70883,2.48438 q -0.26562,-0.0312 -0.59375,-0.0312 -1.1875,0 -1.60937,1 v 5 h -1.20313 v -7.04688 h 1.17188 l 0.0312,0.8125 q 0.57812,-0.9375 1.67187,-0.9375 0.34375,0 0.53125,0.0937 z m 2.41623,5.96875 h -1.20312 v -7.04688 h 1.20312 z m -1.29687,-8.90625 q 0,-0.29688 0.17187,-0.5 0.1875,-0.20313 0.53125,-0.20313 0.35938,0 0.53125,0.20313 0.1875,0.20312 0.1875,0.5 0,0.29687 -0.1875,0.5 -0.17187,0.1875 -0.53125,0.1875 -0.34375,0 -0.53125,-0.1875 -0.17187,-0.20313 -0.17187,-0.5 z m 5.5469,7.26562 1.75,-5.40625 h 1.21875 l -2.51562,7.04688 h -0.92188 l -2.54687,-7.04688 h 1.21875 z m 7.04956,1.76563 q -1.42187,0 -2.32812,-0.9375 -0.89063,-0.9375 -0.89063,-2.51563 v -0.21875 q 0,-1.04687 0.39063,-1.85937 0.40625,-0.82813 1.125,-1.29688 0.71875,-0.46875 1.5625,-0.46875 1.375,0 2.125,0.90625 0.76562,0.90625 0.76562,2.59375 v 0.5 h -4.76562 q 0.0156,1.03125 0.59375,1.67188 0.59375,0.64062 1.48437,0.64062 0.64063,0 1.07813,-0.25 0.45312,-0.26562 0.78125,-0.6875 l 0.73437,0.5625 q -0.875,1.35938 -2.65625,1.35938 z m -0.14062,-6.3125 q -0.73438,0 -1.23438,0.53125 -0.48437,0.53125 -0.60937,1.48437 h 3.53125 v -0.0781 q -0.0469,-0.92188 -0.5,-1.42188 -0.4375,-0.51562 -1.1875,-0.51562 z m 7.68606,0.21875 q -0.26562,-0.0312 -0.59375,-0.0312 -1.1875,0 -1.60937,1 v 5 h -1.20313 v -7.04688 h 1.17188 l 0.0312,0.8125 q 0.57812,-0.9375 1.67187,-0.9375 0.34375,0 0.53125,0.0937 z"
       id="path31"
       inkscape:connector-curvature="0"
       style="fill:#38761d;fill-rule:nonzero" />
    <path
       d="m 390.52325,140.06652 h 148.03152 v 81.13385 H 390.52325 Z"
       id="path33"
       inkscape:connector-curvature="0"
       style="fill:#d9d9d9;fill-rule:evenodd" />
    <path
       d="m 390.52325,140.06652 h 148.03152 v 81.13385 H 390.52325 Z"
       id="path35"
       inkscape:connector-curvature="0"
       style="fill-rule:evenodd;stroke:#434343;stroke-width:1;stroke-linecap:butt;stroke-linejoin:round" />
    <path
       d="m 444.97689,181.05845 h -4.10937 v 3.35937 h 4.78125 v 1.01563 h -6.03125 v -9.46875 h 5.95312 v 1.01562 h -4.70312 v 3.04688 h 4.10937 z m 4.40329,-0.0937 1.54688,-2.57813 h 1.40625 l -2.29688,3.48438 2.375,3.5625 h -1.39062 l -1.625,-2.64063 -1.625,2.64063 h -1.40625 l 2.375,-3.5625 -2.29688,-3.48438 h 1.39063 z m 7.15237,4.59375 q -1.42187,0 -2.32812,-0.9375 -0.89063,-0.9375 -0.89063,-2.51563 v -0.21875 q 0,-1.04687 0.39063,-1.85937 0.40625,-0.82813 1.125,-1.29688 0.71875,-0.46875 1.5625,-0.46875 1.375,0 2.125,0.90625 0.76562,0.90625 0.76562,2.59375 v 0.5 h -4.76562 q 0.0156,1.03125 0.59375,1.67188 0.59375,0.64062 1.48437,0.64062 0.64063,0 1.07813,-0.25 0.45312,-0.26562 0.78125,-0.6875 l 0.73437,0.5625 q -0.875,1.35938 -2.65625,1.35938 z m -0.14062,-6.3125 q -0.73438,0 -1.23438,0.53125 -0.48437,0.53125 -0.60937,1.48437 h 3.53125 v -0.0781 q -0.0469,-0.92188 -0.5,-1.42188 -0.4375,-0.51562 -1.1875,-0.51562 z m 7.10791,5.32812 q 0.64062,0 1.125,-0.39062 0.48437,-0.39063 0.53125,-0.96875 h 1.14062 q -0.0312,0.60937 -0.42187,1.15625 -0.375,0.54687 -1.01563,0.875 -0.64062,0.3125 -1.35937,0.3125 -1.4375,0 -2.29688,-0.95313 -0.84375,-0.96875 -0.84375,-2.625 v -0.20312 q 0,-1.03125 0.375,-1.82813 0.39063,-0.79687 1.09375,-1.23437 0.70313,-0.45313 1.67188,-0.45313 1.17187,0 1.95312,0.71875 0.79688,0.70313 0.84375,1.82813 h -1.14062 q -0.0469,-0.67188 -0.51563,-1.10938 -0.46875,-0.45312 -1.14062,-0.45312 -0.92188,0 -1.4375,0.67187 -0.5,0.65625 -0.5,1.90625 v 0.21875 q 0,1.21875 0.5,1.875 0.51562,0.65625 1.4375,0.65625 z m 8.50769,0.15625 q -0.70313,0.82813 -2.0625,0.82813 -1.14063,0 -1.73438,-0.64063 -0.57812,-0.65625 -0.57812,-1.9375 v -4.59375 h 1.20312 v 4.54688 q 0,1.60937 1.29688,1.60937 1.375,0 1.82812,-1.03125 v -5.125 h 1.21875 v 7.04688 h -1.15625 z m 4.62866,-8.04687 v 1.70312 h 1.3125 v 0.9375 h -1.3125 v 4.35938 q 0,0.42187 0.17188,0.64062 0.17187,0.21875 0.59375,0.21875 0.21875,0 0.57812,-0.0781 v 0.96875 q -0.46875,0.125 -0.92187,0.125 -0.8125,0 -1.21875,-0.48438 -0.40625,-0.48437 -0.40625,-1.39062 v -4.35938 h -1.28125 v -0.9375 h 1.28125 v -1.70312 z m 2.40064,5.17187 q 0,-1.04687 0.40625,-1.875 0.40625,-0.82812 1.125,-1.26562 0.73437,-0.45313 1.65625,-0.45313 1.4375,0 2.32812,1 0.89063,0.98438 0.89063,2.64063 v 0.0937 q 0,1.01562 -0.39063,1.84375 -0.39062,0.8125 -1.125,1.26562 -0.73437,0.45313 -1.6875,0.45313 -1.42187,0 -2.3125,-0.98438 -0.89062,-1 -0.89062,-2.64062 z m 1.20312,0.14063 q 0,1.17187 0.54688,1.875 0.54687,0.70312 1.45312,0.70312 0.92188,0 1.45313,-0.71875 0.54687,-0.71875 0.54687,-2 0,-1.17187 -0.54687,-1.89062 -0.54688,-0.71875 -1.46875,-0.71875 -0.89063,0 -1.4375,0.71875 -0.54688,0.70312 -0.54688,2.03125 z m 10.11682,-2.53125 q -0.26562,-0.0312 -0.59375,-0.0312 -1.1875,0 -1.60937,1 v 5 h -1.20313 v -7.04688 h 1.17188 l 0.0312,0.8125 q 0.57812,-0.9375 1.67187,-0.9375 0.34375,0 0.53125,0.0937 z"
       id="path37"
       inkscape:connector-curvature="0"
       style="fill:#38761d;fill-rule:nonzero" />
    <path
       d="m 389.95639,226.86007 h 148.0315 v 22.01575 h -148.0315 z"
       id="path39"
       inkscape:connector-curvature="0"
       style="fill:#d9ead3;fill-rule:evenodd" />
    <path
       d="m 389.95639,226.86007 h 148.0315 v 22.01575 h -148.0315 z"
       id="path41"
       inkscape:connector-curvature="0"
       style="fill-rule:evenodd;stroke:#38761d;stroke-width:1;stroke-linecap:butt;stroke-linejoin:round" />
    <path
       d="m 438.57281,238.96481 v 3.70312 h -1.25 v -9.46875 h 3.5 q 1.5625,0 2.4375,0.79688 0.875,0.78125 0.875,2.09375 0,1.375 -0.85938,2.125 -0.85937,0.75 -2.46875,0.75 z m 0,-1.03125 h 2.25 q 1,0 1.53125,-0.46875 0.54687,-0.46875 0.54687,-1.35938 0,-0.84375 -0.54687,-1.34375 -0.53125,-0.51562 -1.45313,-0.54687 h -2.32812 z m 11.33005,4.03125 q -0.70313,0.82812 -2.0625,0.82812 -1.14063,0 -1.73438,-0.64062 -0.57812,-0.65625 -0.57812,-1.9375 v -4.59375 h 1.20312 v 4.54687 q 0,1.60938 1.29688,1.60938 1.375,0 1.82812,-1.03125 v -5.125 h 1.21875 v 7.04687 h -1.15625 z m 8.95675,-2.73438 q 0,1.60938 -0.75,2.59375 -0.73437,0.96875 -1.98437,0.96875 -1.32813,0 -2.0625,-0.9375 l -0.0625,0.8125 h -1.10938 v -10 h 1.20313 v 3.73438 q 0.73437,-0.90625 2.01562,-0.90625 1.28125,0 2.01563,0.96875 0.73437,0.96875 0.73437,2.65625 z m -1.20312,-0.14062 q 0,-1.23438 -0.48438,-1.90625 -0.46875,-0.67188 -1.35937,-0.67188 -1.1875,0 -1.71875,1.10938 v 3.04687 q 0.5625,1.10938 1.73437,1.10938 0.85938,0 1.34375,-0.67188 0.48438,-0.67187 0.48438,-2.01562 z m 4.02444,3.57812 h -1.20312 v -10 h 1.20312 z m 3.23441,0 h -1.20312 v -7.04687 h 1.20312 z m -1.29687,-8.90625 q 0,-0.29687 0.17187,-0.5 0.1875,-0.20312 0.53125,-0.20312 0.35938,0 0.53125,0.20312 0.1875,0.20313 0.1875,0.5 0,0.29688 -0.1875,0.5 -0.17187,0.1875 -0.53125,0.1875 -0.34375,0 -0.53125,-0.1875 -0.17187,-0.20312 -0.17187,-0.5 z m 7.32818,7.03125 q 0,-0.48437 -0.375,-0.75 -0.35937,-0.26562 -1.28125,-0.45312 -0.90625,-0.20313 -1.45312,-0.46875 -0.53125,-0.28125 -0.79688,-0.65625 -0.25,-0.39063 -0.25,-0.90625 0,-0.85938 0.73438,-1.45313 0.73437,-0.60937 1.875,-0.60937 1.1875,0 1.9375,0.625 0.75,0.60937 0.75,1.57812 h -1.21875 q 0,-0.5 -0.42188,-0.85937 -0.42187,-0.35938 -1.04687,-0.35938 -0.65625,0 -1.03125,0.29688 -0.375,0.28125 -0.375,0.75 0,0.42187 0.34375,0.65625 0.34375,0.21875 1.25,0.42187 0.90625,0.20313 1.45312,0.48438 0.5625,0.26562 0.82813,0.67187 0.28125,0.39063 0.28125,0.95313 0,0.9375 -0.76563,1.51562 -0.75,0.5625 -1.95312,0.5625 -0.84375,0 -1.5,-0.29687 -0.64063,-0.29688 -1.01563,-0.82813 -0.35937,-0.54687 -0.35937,-1.17187 h 1.20312 q 0.0312,0.60937 0.48438,0.96875 0.45312,0.34375 1.1875,0.34375 0.6875,0 1.09375,-0.26563 0.42187,-0.28125 0.42187,-0.75 z m 3.96607,-4.3125 q 0.8125,-0.98437 2.09375,-0.98437 2.23437,0 2.25,2.51562 v 4.65625 h -1.20313 v -4.65625 q -0.0156,-0.76562 -0.35937,-1.125 -0.32813,-0.375 -1.0625,-0.375 -0.57813,0 -1.03125,0.3125 -0.4375,0.3125 -0.6875,0.82813 v 5.01562 h -1.20313 v -10 h 1.20313 z m 9.05963,6.3125 q -1.42188,0 -2.32813,-0.9375 -0.89062,-0.9375 -0.89062,-2.51562 v -0.21875 q 0,-1.04688 0.39062,-1.85938 0.40625,-0.82812 1.125,-1.29687 0.71875,-0.46875 1.5625,-0.46875 1.375,0 2.125,0.90625 0.76563,0.90625 0.76563,2.59375 v 0.5 h -4.76563 q 0.0156,1.03125 0.59375,1.67187 0.59375,0.64063 1.48438,0.64063 0.64062,0 1.07812,-0.25 0.45313,-0.26563 0.78125,-0.6875 l 0.73438,0.5625 q -0.875,1.35937 -2.65625,1.35937 z m -0.14063,-6.3125 q -0.73437,0 -1.23437,0.53125 -0.48438,0.53125 -0.60938,1.48438 h 3.53125 v -0.0781 q -0.0469,-0.92187 -0.5,-1.42187 -0.4375,-0.51563 -1.1875,-0.51563 z m 7.68604,0.21875 q -0.26563,-0.0312 -0.59375,-0.0312 -1.1875,0 -1.60938,1 v 5 h -1.20312 v -7.04687 h 1.17187 l 0.0312,0.8125 q 0.57813,-0.9375 1.67188,-0.9375 0.34375,0 0.53125,0.0937 z"
       id="path43"
       inkscape:connector-curvature="0"
       style="fill:#38761d;fill-rule:nonzero" />
    <path
       d="M 390.52325,123.40289 H 357.20044 V 336.47375"
       id="path45"
       inkscape:connector-curvature="0"
       style="fill:#000000;fill-opacity:0;fill-rule:evenodd" />
    <path
       d="M 372.52325,123.4029 H 357.20044 V 336.47375"
       id="path47"
       inkscape:connector-curvature="0"
       style="fill-rule:evenodd;stroke:#595959;stroke-width:3;stroke-linecap:butt;stroke-linejoin:round" />
    <path
       d="m 372.52325,128.35809 13.61429,-4.95519 -13.61429,-4.9552 z"
       id="path49"
       inkscape:connector-curvature="0"
       style="fill:#595959;fill-rule:evenodd;stroke:#595959;stroke-width:3;stroke-linecap:butt" />
    <path
       d="m 537.98789,237.86794 h 39.30707 v 97.48032"
       id="path51"
       inkscape:connector-curvature="0"
       style="fill:#000000;fill-opacity:0;fill-rule:evenodd" />
    <path
       d="m 537.98789,237.86794 h 39.30713 v 79.48032"
       id="path53"
       inkscape:connector-curvature="0"
       style="fill-rule:evenodd;stroke:#595959;stroke-width:3;stroke-linecap:butt;stroke-linejoin:round" />
    <path
       d="m 572.33979,317.34826 4.9552,13.61429 4.9552,-13.61429 z"
       id="path55"
       inkscape:connector-curvature="0"
       style="fill:#595959;fill-rule:evenodd;stroke:#595959;stroke-width:3;stroke-linecap:butt" />
    <path
       d="m 342.04799,58.102202 h 244.44092 v 38.74017 H 342.04799 Z"
       id="path57"
       inkscape:connector-curvature="0"
       style="fill:#000000;fill-opacity:0;fill-rule:evenodd" />
    <path
       d="m 427.01153,79.074872 1.76562,0.45312 q -0.5625,2.17188 -2,3.32813 -1.4375,1.14062 -3.53125,1.14062 -2.15625,0 -3.51562,-0.875 -1.34375,-0.89062 -2.0625,-2.54687 -0.70313,-1.67188 -0.70313,-3.59376 0,-2.07812 0.79688,-3.625 0.79687,-1.5625 2.26562,-2.35937 1.48438,-0.8125 3.25,-0.8125 2,0 3.35938,1.01562 1.375,1.01563 1.90625,2.875 l -1.73438,0.40625 q -0.46875,-1.45312 -1.35937,-2.10937 -0.875,-0.67188 -2.20313,-0.67188 -1.54687,0 -2.57812,0.73438 -1.03125,0.73437 -1.45313,1.98437 -0.42187,1.23438 -0.42187,2.5625 0,1.70313 0.5,2.96876 0.5,1.26562 1.54687,1.90625 1.04688,0.625 2.26563,0.625 1.48437,0 2.51562,-0.85938 1.03125,-0.85937 1.39063,-2.54687 z m 3.12921,-0.15625 q 0,-2.68751 1.48438,-3.96876 1.25,-1.07812 3.04687,-1.07812 2,0 3.26563,1.3125 1.26562,1.29687 1.26562,3.60938 0,1.85937 -0.5625,2.9375 -0.5625,1.0625 -1.64062,1.65625 -1.0625,0.59375 -2.32813,0.59375 -2.03125,0 -3.28125,-1.29688 -1.25,-1.3125 -1.25,-3.76562 z m 1.6875,0 q 0,1.85937 0.79688,2.79687 0.8125,0.92188 2.04687,0.92188 1.21875,0 2.03125,-0.92188 0.8125,-0.9375 0.8125,-2.84375 0,-1.79688 -0.8125,-2.71875 -0.8125,-0.92188 -2.03125,-0.92188 -1.23437,0 -2.04687,0.92188 -0.79688,0.90625 -0.79688,2.76563 z m 9.29758,4.84375 v -9.67188 h 1.46875 v 1.35937 q 0.45312,-0.71875 1.20312,-1.14062 0.76563,-0.4375 1.71875,-0.4375 1.07813,0 1.76563,0.45312 0.6875,0.4375 0.96875,1.23438 1.15625,-1.6875 2.98437,-1.6875 1.45313,0 2.21875,0.79687 0.78125,0.79688 0.78125,2.45313 v 6.64063 h -1.64062 v -6.09376 q 0,-0.98437 -0.15625,-1.40625 -0.15625,-0.4375 -0.57813,-0.70312 -0.42187,-0.26563 -0.98437,-0.26563 -1.01563,0 -1.6875,0.6875 -0.67188,0.67188 -0.67188,2.15625 v 5.62501 h -1.64062 v -6.28126 q 0,-1.09375 -0.40625,-1.64062 -0.40625,-0.54688 -1.3125,-0.54688 -0.6875,0 -1.28125,0.35938 -0.59375,0.35937 -0.85938,1.0625 -0.25,0.70312 -0.25,2.03125 v 5.01563 z m 15.5408,3.70312 v -13.375 h 1.48438 v 1.25 q 0.53125,-0.73438 1.1875,-1.09375 0.67187,-0.375 1.625,-0.375 1.23437,0 2.17187,0.64062 0.95313,0.625 1.4375,1.79688 0.48438,1.15625 0.48438,2.54688 0,1.48437 -0.53125,2.67187 -0.53125,1.1875 -1.54688,1.82813 -1.01562,0.625 -2.14062,0.625 -0.8125,0 -1.46875,-0.34375 -0.65625,-0.34375 -1.0625,-0.875 v 4.70312 z m 1.48438,-8.48437 q 0,1.85937 0.75,2.76562 0.76562,0.89063 1.82812,0.89063 1.09375,0 1.875,-0.92188 0.78125,-0.9375 0.78125,-2.875 0,-1.84375 -0.76562,-2.76563 -0.75,-0.92187 -1.8125,-0.92187 -1.04688,0 -1.85938,0.98437 -0.79687,0.96875 -0.79687,2.84376 z m 8.28198,-0.0625 q 0,-2.68751 1.48437,-3.96876 1.25,-1.07812 3.04688,-1.07812 2,0 3.26562,1.3125 1.26563,1.29687 1.26563,3.60938 0,1.85937 -0.5625,2.9375 -0.5625,1.0625 -1.64063,1.65625 -1.0625,0.59375 -2.32812,0.59375 -2.03125,0 -3.28125,-1.29688 -1.25,-1.3125 -1.25,-3.76562 z m 1.6875,0 q 0,1.85937 0.79687,2.79687 0.8125,0.92188 2.04688,0.92188 1.21875,0 2.03125,-0.92188 0.8125,-0.9375 0.8125,-2.84375 0,-1.79688 -0.8125,-2.71875 -0.8125,-0.92188 -2.03125,-0.92188 -1.23438,0 -2.04688,0.92188 -0.79687,0.90625 -0.79687,2.76563 z m 9.29757,4.84375 v -9.67188 h 1.46875 v 1.375 q 1.0625,-1.59375 3.07813,-1.59375 0.875,0 1.60937,0.3125 0.73438,0.3125 1.09375,0.82812 0.375,0.5 0.51563,1.20313 0.0937,0.45312 0.0937,1.59375 v 5.95313 h -1.64063 v -5.89063 q 0,-1 -0.20312,-1.48438 -0.1875,-0.5 -0.67188,-0.79687 -0.48437,-0.29688 -1.14062,-0.29688 -1.04688,0 -1.8125,0.67188 -0.75,0.65625 -0.75,2.51563 v 5.28125 z m 17.00074,-3.10938 1.6875,0.20313 q -0.40625,1.48437 -1.48438,2.3125 -1.07812,0.8125 -2.76562,0.8125 -2.125,0 -3.375,-1.29688 -1.23438,-1.3125 -1.23438,-3.67187 0,-2.45313 1.25,-3.79688 1.26563,-1.34375 3.26563,-1.34375 1.9375,0 3.15625,1.32812 1.23437,1.3125 1.23437,3.70313 0,0.15625 0,0.4375 h -7.21875 q 0.0937,1.59375 0.90625,2.45313 0.8125,0.84375 2.01563,0.84375 0.90625,0 1.54687,-0.46875 0.64063,-0.48438 1.01563,-1.51563 z m -5.39063,-2.65625 h 5.40625 q -0.10937,-1.21875 -0.625,-1.82813 -0.78125,-0.95312 -2.03125,-0.95312 -1.125,0 -1.90625,0.76562 -0.76562,0.75 -0.84375,2.01563 z m 9.14133,5.76563 v -9.67188 h 1.46875 v 1.375 q 1.0625,-1.59375 3.07812,-1.59375 0.875,0 1.60938,0.3125 0.73437,0.3125 1.09375,0.82812 0.375,0.5 0.51562,1.20313 0.0937,0.45312 0.0937,1.59375 v 5.95313 h -1.64062 v -5.89063 q 0,-1 -0.20313,-1.48438 -0.1875,-0.5 -0.67187,-0.79687 -0.48438,-0.29688 -1.14063,-0.29688 -1.04687,0 -1.8125,0.67188 -0.75,0.65625 -0.75,2.51563 v 5.28125 z m 13.95386,-1.46875 0.23437,1.45312 q -0.6875,0.14063 -1.23437,0.14063 -0.89063,0 -1.39063,-0.28125 -0.48437,-0.28125 -0.6875,-0.73438 -0.20312,-0.46875 -0.20312,-1.9375 v -5.57813 h -1.20313 v -1.26562 h 1.20313 v -2.39063 l 1.625,-0.98437 v 3.375 h 1.65625 v 1.26562 h -1.65625 v 5.67188 q 0,0.6875 0.0781,0.89063 0.0937,0.20312 0.28125,0.32812 0.20313,0.10938 0.57813,0.10938 0.26562,0 0.71875,-0.0625 z"
       id="path59"
       inkscape:connector-curvature="0"
       style="fill:#000000;fill-rule:nonzero" />
  </g>
</svg>
