<svg id="svg161" xmlns="http://www.w3.org/2000/svg" xmlns:xlink="http://www.w3.org/1999/xlink" viewBox="0 0 960 540"><defs><style>.cls-1{fill:#f4f4f4;}.cls-2{fill:url(#linear-gradient);}.cls-3{font-size:11px;fill:#777;}.cls-10,.cls-14,.cls-3{font-family:Roboto-Bold, Roboto;font-weight:700;}.cls-4{letter-spacing:-0.16em;}.cls-5{letter-spacing:0em;}.cls-6{letter-spacing:-0.01em;}.cls-7{letter-spacing:0em;}.cls-8{letter-spacing:-0.01em;}.cls-9{letter-spacing:-0.06em;}.cls-10,.cls-14{font-size:9px;}.cls-10,.cls-28{fill:#425066;}.cls-11{letter-spacing:-0.03em;}.cls-12{letter-spacing:0em;}.cls-13{letter-spacing:0em;}.cls-14{fill:#b8baba;}.cls-15{letter-spacing:0em;}.cls-16{letter-spacing:-0.03em;}.cls-17{letter-spacing:-0.02em;}.cls-18{letter-spacing:-0.06em;}.cls-19{letter-spacing:-0.16em;}.cls-20,.cls-32,.cls-33{fill:none;stroke-miterlimit:10;stroke-width:0.96px;}.cls-20,.cls-33{stroke:#425066;}.cls-21{fill:#ffa800;}.cls-22{fill:#ff8f00;}.cls-23{fill:#ff6f00;}.cls-24{fill:#9fa1a2;}.cls-25{fill:#87898a;}.cls-26{fill:#6f7071;}.cls-27{fill:url(#linear-gradient-2);}.cls-29{font-size:14px;fill:#fff;font-family:Roboto-Regular, Roboto;}.cls-30{letter-spacing:-0.02em;}.cls-31{letter-spacing:-0.01em;}.cls-32{stroke:#ff6f00;}.cls-33{stroke-dasharray:3 3;}.cls-34{letter-spacing:-0.03em;}.cls-35{letter-spacing:-0.02em;}.cls-36{letter-spacing:-0.01em;}.cls-37{letter-spacing:-0.01em;}</style><linearGradient id="linear-gradient" x1="114.73" y1="36.36" x2="224.2" y2="36.36" gradientUnits="userSpaceOnUse"><stop offset="0" stop-color="#e6e6e6"/><stop offset="1" stop-color="#e6e6e6"/></linearGradient><linearGradient id="linear-gradient-2" x1="518.26" y1="46.37" x2="525.8" y2="491.65" gradientUnits="userSpaceOnUse"><stop offset="0" stop-color="#e6e6e6"/><stop offset="1" stop-color="#fff"/></linearGradient></defs><title>all_diagrams</title><rect class="cls-1" x="228.44" y="16.73" width="109.47" height="39.27"/><rect class="cls-2" x="114.73" y="16.73" width="109.47" height="39.27"/><rect class="cls-1" x="341.67" y="16.73" width="109.47" height="39.27"/><text class="cls-3" transform="translate(697.74 520.43)">T<tspan class="cls-4" x="6.8" y="0">F</tspan><tspan class="cls-5" x="11.09" y="0">.SE</tspan><tspan class="cls-6" x="27.24" y="0">R</tspan><tspan x="34.14" y="0">VING</tspan></text><text class="cls-3" transform="translate(26.1 214.43)">T<tspan class="cls-7" x="6.8" y="0">R</tspan><tspan class="cls-5" x="13.86" y="0">AINING </tspan><tspan class="cls-8" x="53.44" y="0">D</tspan><tspan class="cls-9" x="60.44" y="0">AT</tspan><tspan x="73.28" y="0">A</tspan></text><text class="cls-10" transform="translate(129.78 39.64)">AIRF<tspan class="cls-11" x="19.35" y="0">L</tspan><tspan x="23.92" y="0">OW RU</tspan><tspan class="cls-12" x="51.92" y="0">N</tspan><tspan class="cls-13" x="58.24" y="0">TIME</tspan></text><text class="cls-14" transform="translate(239.94 39.64)">KUBEF<tspan class="cls-11" x="27.37" y="0">L</tspan><tspan class="cls-13" x="31.94" y="0">OW RU</tspan><tspan class="cls-15" x="59.94" y="0">N</tspan><tspan class="cls-13" x="66.26" y="0">TIME</tspan></text><text class="cls-14" transform="translate(382.06 39.64)"><tspan class="cls-16">O</tspan><tspan x="5.96" y="0">THER</tspan></text><text class="cls-3" transform="translate(38.28 373.43)">TES<tspan class="cls-17" x="19.75" y="0">T</tspan><tspan class="cls-5" x="26.36" y="0"> </tspan><tspan class="cls-8" x="29.09" y="0">D</tspan><tspan class="cls-18" x="36.09" y="0">AT</tspan><tspan class="cls-5" x="48.94" y="0">A</tspan></text><text class="cls-3" transform="translate(787.01 520.43)">T<tspan class="cls-19" x="6.81" y="0">F</tspan><tspan x="11.09" y="0">.JS</tspan></text><text class="cls-3" transform="translate(856.4 520.43)">T<tspan class="cls-19" x="6.81" y="0">F</tspan><tspan x="11.09" y="0">.L</tspan><tspan class="cls-12" x="20.24" y="0">I</tspan><tspan x="23.41" y="0">TE</tspan></text><line class="cls-20" x1="910.36" y1="271.33" x2="914.42" y2="273.67"/><polygon class="cls-21" points="41.52 153.7 66.44 139.31 91.38 153.7 66.44 168.1 41.52 153.7"/><polygon class="cls-22" points="41.52 153.7 41.52 182.49 66.45 196.88 66.44 168.1 41.52 153.7"/><polygon class="cls-23" points="91.38 153.7 91.38 182.49 66.45 196.88 66.44 168.1 91.38 153.7"/><polygon class="cls-24" points="41.52 312.75 66.44 298.36 91.38 312.75 66.44 327.14 41.52 312.75"/><polygon class="cls-25" points="41.52 312.75 41.52 341.54 66.45 355.93 66.44 327.14 41.52 312.75"/><polygon class="cls-26" points="91.38 312.75 91.38 341.54 66.45 355.93 66.44 327.14 91.38 312.75"/><rect class="cls-27" x="114.73" y="55.52" width="814.66" height="430.39"/><path class="cls-23" d="M830.6,115.91v1.78H820V101h10.47v1.8h-8.25v5.37h7.2V110h-7.2v5.93Z"/><path class="cls-23" d="M839.89,105.32h2.49l-4,6.11,4.16,6.27h-2.46L837.21,113l-2.84,4.66h-2.49l4.18-6.27-4-6.11h2.47l2.7,4.52Z"/><path class="cls-23" d="M849.88,117.7a5.47,5.47,0,0,1-1.64.23,2.82,2.82,0,0,1-2.08-.78,3.46,3.46,0,0,1-.78-2.53v-7.69h-2.25v-1.61h2.25v-3h2.14v3h2.31v1.61h-2.31v7.7a1.5,1.5,0,0,0,.37,1.18,1.51,1.51,0,0,0,1,.3,3.8,3.8,0,0,0,.53,0l.46-.09Z"/><path class="cls-23" d="M862.27,112.09H853.9a5.18,5.18,0,0,0,.48,2.09,3.58,3.58,0,0,0,1.26,1.48,3.38,3.38,0,0,0,1.92.54,3.77,3.77,0,0,0,1.86-.43,4.53,4.53,0,0,0,1.4-1.25l1.29,1a5.4,5.4,0,0,1-1.83,1.72,5.54,5.54,0,0,1-2.84.67,5.74,5.74,0,0,1-3-.77,5.19,5.19,0,0,1-2-2.13,6.63,6.63,0,0,1-.7-3.09v-.49a7.21,7.21,0,0,1,.76-3.38,5.54,5.54,0,0,1,2-2.21,5.34,5.34,0,0,1,5.53,0,4.57,4.57,0,0,1,1.69,2.13,8.37,8.37,0,0,1,.55,3.15Zm-2.14-1.88a4.63,4.63,0,0,0-.78-2.43,2.49,2.49,0,0,0-2.18-1,2.77,2.77,0,0,0-2.13.93,4.69,4.69,0,0,0-1.07,2.64h6.17Z"/><path class="cls-23" d="M874.48,109.59v8.11h-2.14v-8.13a2.91,2.91,0,0,0-.61-2.06,2.44,2.44,0,0,0-1.85-.64,3.05,3.05,0,0,0-1.77.54,3.78,3.78,0,0,0-1.24,1.44v8.85h-2.14V105.32h2l.07,1.52a4.71,4.71,0,0,1,1.61-1.29,4.66,4.66,0,0,1,2.07-.46Q874.48,105.09,874.48,109.59Z"/><path class="cls-23" d="M887.61,100.12V117.7h-2l-.1-1.32a4.29,4.29,0,0,1-3.52,1.54,4.19,4.19,0,0,1-2.54-.81,5.27,5.27,0,0,1-1.72-2.24,8.12,8.12,0,0,1-.61-3.23v-.24a8.41,8.41,0,0,1,.61-3.31,5.07,5.07,0,0,1,1.72-2.22,4.33,4.33,0,0,1,2.57-.79,4.25,4.25,0,0,1,3.42,1.45v-6.42Zm-2.14,14.22v-5.73a3.44,3.44,0,0,0-1.15-1.28,3.11,3.11,0,0,0-1.74-.47,2.83,2.83,0,0,0-1.85.6,3.48,3.48,0,0,0-1.09,1.63,7.17,7.17,0,0,0-.35,2.31v.24a7,7,0,0,0,.35,2.29,3.47,3.47,0,0,0,1.08,1.61,2.81,2.81,0,0,0,1.83.59A3.09,3.09,0,0,0,885.47,114.34Z"/><path class="cls-23" d="M900.87,112.09H892.5a5.18,5.18,0,0,0,.48,2.09,3.58,3.58,0,0,0,1.26,1.48,3.38,3.38,0,0,0,1.92.54,3.77,3.77,0,0,0,1.86-.43,4.53,4.53,0,0,0,1.4-1.25l1.29,1a5.4,5.4,0,0,1-1.83,1.72,5.54,5.54,0,0,1-2.84.67,5.74,5.74,0,0,1-3-.77,5.19,5.19,0,0,1-2-2.13,6.63,6.63,0,0,1-.7-3.09v-.49a7.21,7.21,0,0,1,.76-3.38,5.54,5.54,0,0,1,2-2.21,5.34,5.34,0,0,1,5.53,0,4.57,4.57,0,0,1,1.69,2.13,8.37,8.37,0,0,1,.55,3.15Zm-2.14-1.88a4.63,4.63,0,0,0-.78-2.43,2.49,2.49,0,0,0-2.18-1,2.77,2.77,0,0,0-2.13.93,4.69,4.69,0,0,0-1.07,2.64h6.17Z"/><path class="cls-23" d="M913.27,100.12V117.7h-2l-.1-1.32a4.29,4.29,0,0,1-3.52,1.54,4.19,4.19,0,0,1-2.54-.81,5.27,5.27,0,0,1-1.72-2.24,8.12,8.12,0,0,1-.61-3.23v-.24a8.41,8.41,0,0,1,.61-3.31,5.07,5.07,0,0,1,1.72-2.22,4.33,4.33,0,0,1,2.57-.79,4.25,4.25,0,0,1,3.42,1.45v-6.42Zm-2.14,14.22v-5.73a3.44,3.44,0,0,0-1.15-1.28,3.11,3.11,0,0,0-1.74-.47,2.83,2.83,0,0,0-1.85.6,3.48,3.48,0,0,0-1.09,1.63,7.17,7.17,0,0,0-.35,2.31v.24a7,7,0,0,0,.35,2.29,3.47,3.47,0,0,0,1.08,1.61,2.81,2.81,0,0,0,1.83.59A3.09,3.09,0,0,0,911.13,114.34Z"/><path class="cls-28" d="M769.54,74h-7V93.31h-4V74h-6.93V70.79h17.92Z"/><path class="cls-28" d="M781.82,86.15h-10.9a5.52,5.52,0,0,0,.66,2.27A4.06,4.06,0,0,0,773.09,90a4.31,4.31,0,0,0,2.22.56,5,5,0,0,0,4.17-2l2.06,2A7.19,7.19,0,0,1,779,92.72a8,8,0,0,1-3.93.9,8.35,8.35,0,0,1-4.27-1.06,7.17,7.17,0,0,1-2.8-2.9,8.68,8.68,0,0,1-1-4.13v-.63a9.92,9.92,0,0,1,1-4.54,7.36,7.36,0,0,1,2.72-3,7.28,7.28,0,0,1,3.9-1.07,7.19,7.19,0,0,1,4,1,6.3,6.3,0,0,1,2.4,2.9,10.92,10.92,0,0,1,.8,4.32ZM778,83.07a4.62,4.62,0,0,0-.88-2.67,3,3,0,0,0-2.5-1,3.1,3.1,0,0,0-2.44,1.05,5.5,5.5,0,0,0-1.19,3h7Z"/><path class="cls-28" d="M798.43,77.74q1.38,1.48,1.38,4.77V93.31H796V82.48a3.23,3.23,0,0,0-.72-2.37,3,3,0,0,0-2.2-.7,3.6,3.6,0,0,0-1.93.53,3.83,3.83,0,0,0-1.36,1.47V93.31H785.9V76.58h3.62l.12,1.93a6.12,6.12,0,0,1,2.13-1.66,6.33,6.33,0,0,1,2.72-.58A5.13,5.13,0,0,1,798.43,77.74Z"/><path class="cls-28" d="M804.92,84.54a3.78,3.78,0,0,1-1.56-3.19,4.42,4.42,0,0,1,.8-2.54A5.46,5.46,0,0,1,806.43,77a8,8,0,0,1,3.41-.69,8.55,8.55,0,0,1,3.58.7,5.5,5.5,0,0,1,2.34,1.91,4.77,4.77,0,0,1,.82,2.73h-3.85a2.35,2.35,0,0,0-1.31-2.13,3.36,3.36,0,0,0-1.58-.34,3.1,3.1,0,0,0-2,.59,1.83,1.83,0,0,0-.71,1.47,1.49,1.49,0,0,0,.3.94,2.54,2.54,0,0,0,1,.7,12,12,0,0,0,2.06.59,16.32,16.32,0,0,1,3.39,1.05A5.19,5.19,0,0,1,816,86.07a4.07,4.07,0,0,1,.73,2.47,4.36,4.36,0,0,1-.84,2.63,5.44,5.44,0,0,1-2.39,1.8,9.27,9.27,0,0,1-3.57.64,8.41,8.41,0,0,1-3.8-.8,6.05,6.05,0,0,1-2.44-2.09A4.88,4.88,0,0,1,802.8,88h3.73a2.47,2.47,0,0,0,1,2.07,4.13,4.13,0,0,0,2.37.66,3.76,3.76,0,0,0,2.19-.55,1.7,1.7,0,0,0,.78-1.46,1.77,1.77,0,0,0-.28-1,2.48,2.48,0,0,0-1.06-.77,10.81,10.81,0,0,0-2.22-.65A11.21,11.21,0,0,1,804.92,84.54Z"/><path class="cls-28" d="M820.79,80.41a7.21,7.21,0,0,1,2.7-3,7.64,7.64,0,0,1,4.14-1.11,7.73,7.73,0,0,1,4.18,1.11,7.2,7.2,0,0,1,2.71,3,9.92,9.92,0,0,1,.94,4.38v.32a9.92,9.92,0,0,1-.94,4.38,7.16,7.16,0,0,1-2.7,3,8.44,8.44,0,0,1-8.33,0,7.14,7.14,0,0,1-2.71-3,9.91,9.91,0,0,1-.94-4.38v-.32A9.91,9.91,0,0,1,820.79,80.41Zm3.9,8.6a3.31,3.31,0,0,0,3,1.52,3.39,3.39,0,0,0,2.2-.72,4.2,4.2,0,0,0,1.31-1.94,8.34,8.34,0,0,0,.43-2.75v-.32a8.36,8.36,0,0,0-.43-2.74,4.23,4.23,0,0,0-1.32-2,3.42,3.42,0,0,0-2.23-.73,3.34,3.34,0,0,0-2.2.73,4.28,4.28,0,0,0-1.31,2,8.35,8.35,0,0,0-.43,2.74v.32A7,7,0,0,0,824.69,89Z"/><path class="cls-28" d="M846.83,76.33a3.14,3.14,0,0,1,.61.14l0,3.63a9.68,9.68,0,0,0-1.53-.12,3.43,3.43,0,0,0-3.46,1.93v11.4h-3.85V76.58h3.66l.11,1.89a4.67,4.67,0,0,1,1.58-1.62,4.12,4.12,0,0,1,2.18-.57A5,5,0,0,1,846.83,76.33Z"/><path class="cls-28" d="M855.38,74V80.6h9v3.22h-9v9.49h-4V70.79h14.35V74Z"/><path class="cls-28" d="M869.3,93.31V70.79h3.85V93.31Z"/><path class="cls-28" d="M876.16,80.41a7.21,7.21,0,0,1,2.7-3A7.64,7.64,0,0,1,883,76.27a7.73,7.73,0,0,1,4.18,1.11,7.2,7.2,0,0,1,2.71,3,9.92,9.92,0,0,1,.94,4.38v.32a9.92,9.92,0,0,1-.94,4.38,7.16,7.16,0,0,1-2.7,3,8.44,8.44,0,0,1-8.33,0,7.14,7.14,0,0,1-2.71-3,9.91,9.91,0,0,1-.94-4.38v-.32A9.91,9.91,0,0,1,876.16,80.41Zm3.9,8.6a3.31,3.31,0,0,0,3,1.52,3.39,3.39,0,0,0,2.2-.72,4.2,4.2,0,0,0,1.31-1.94,8.34,8.34,0,0,0,.43-2.75v-.32a8.36,8.36,0,0,0-.43-2.74,4.23,4.23,0,0,0-1.32-2,3.42,3.42,0,0,0-2.23-.73,3.34,3.34,0,0,0-2.2.73,4.28,4.28,0,0,0-1.31,2,8.35,8.35,0,0,0-.43,2.74v.32A7,7,0,0,0,880.06,89Z"/><path class="cls-28" d="M914.32,76.58l-4.53,16.73h-3.17L903.08,82,899.6,93.31h-3.17L891.9,76.58h3.74l2.64,11.3,3.39-11.3h2.88L908,88l2.61-11.44Z"/><rect class="cls-23" x="259.77" y="70.96" width="117.83" height="55.6"/><text class="cls-29" transform="translate(274.82 103.95)">StatisticsGen</text><rect class="cls-23" x="259.77" y="210.05" width="117.83" height="55.6"/><text class="cls-29" transform="translate(278.6 242.24)">SchemaGen</text><rect class="cls-23" x="259.77" y="140.41" width="117.83" height="55.6"/><text class="cls-29" transform="translate(289.54 163.9)">Example<tspan class="cls-30" x="-1.08" y="16.8">V</tspan><tspan x="7.51" y="16.8">alida</tspan><tspan class="cls-31" x="37.43" y="16.8">t</tspan><tspan x="41.81" y="16.8">or</tspan></text><rect class="cls-23" x="784" y="367.68" width="117.83" height="55.6"/><text class="cls-29" transform="translate(818.23 399.86)">Pusher</text><polyline class="cls-20" points="901.16 482.34 906.2 485.25 873.78 503.97 849.47 489.93 854.51 487.02"/><polyline class="cls-20" points="901.16 476.52 906.2 479.43 873.78 498.14 849.47 484.11 854.51 481.19"/><polygon class="cls-32" points="849.47 478.28 881.89 459.57 906.2 473.61 873.78 492.32 849.47 478.28"/><line class="cls-20" x1="873.78" y1="466.53" x2="889.99" y2="475.89"/><line class="cls-20" x1="865.68" y1="471.21" x2="877.83" y2="478.23"/><line class="cls-20" x1="857.57" y1="475.89" x2="865.68" y2="480.57"/><line class="cls-20" x1="877.83" y1="464.19" x2="881.89" y2="466.53"/><polyline class="cls-20" points="827.93 482.34 832.97 485.25 800.55 503.97 776.24 489.93 781.28 487.02"/><polyline class="cls-20" points="827.93 476.52 832.97 479.43 800.55 498.14 776.24 484.11 781.28 481.19"/><polygon class="cls-32" points="776.24 478.28 808.65 459.57 832.97 473.61 800.55 492.32 776.24 478.28"/><line class="cls-20" x1="800.55" y1="466.53" x2="816.76" y2="475.89"/><line class="cls-20" x1="792.44" y1="471.21" x2="804.6" y2="478.23"/><line class="cls-20" x1="784.34" y1="475.89" x2="792.44" y2="480.57"/><polyline class="cls-20" points="754.96 482.34 760 485.25 727.58 503.97 703.27 489.93 708.31 487.02"/><polyline class="cls-20" points="754.96 476.52 760 479.43 727.58 498.14 703.27 484.11 708.31 481.19"/><polygon class="cls-32" points="703.27 478.28 735.69 459.57 760 473.61 727.58 492.32 703.27 478.28"/><line class="cls-20" x1="727.58" y1="466.53" x2="743.79" y2="475.89"/><line class="cls-20" x1="719.48" y1="471.21" x2="731.63" y2="478.23"/><line class="cls-20" x1="711.37" y1="475.89" x2="719.48" y2="480.57"/><line class="cls-20" x1="731.63" y1="464.19" x2="735.69" y2="466.53"/><line class="cls-33" x1="244.85" y1="327.71" x2="652.3" y2="327.71"/><line class="cls-33" x1="91.37" y1="168.21" x2="259.85" y2="168.21"/><line class="cls-33" x1="91.37" y1="327.14" x2="129.63" y2="327.14"/><rect class="cls-23" x="393" y="300.91" width="117.83" height="55.6"/><text class="cls-29" transform="translate(419.8 333.1)"><tspan class="cls-34">T</tspan><tspan class="cls-35" x="7.9" y="0">r</tspan><tspan x="12.43" y="0">ansform</tspan></text><rect class="cls-23" x="522.15" y="300.91" width="117.83" height="55.6"/><text class="cls-29" transform="translate(559.47 333.1)"><tspan class="cls-34">T</tspan><tspan class="cls-35" x="7.9" y="0">r</tspan><tspan x="12.43" y="0">ainer</tspan></text><rect class="cls-23" x="652.13" y="300.91" width="117.83" height="55.6"/><text class="cls-29" transform="translate(681.54 333.1)"><tspan class="cls-36">E</tspan><tspan class="cls-37" x="7.78" y="0">v</tspan><tspan x="14.46" y="0">alua</tspan><tspan class="cls-31" x="40.8" y="0">t</tspan><tspan x="45.18" y="0">or</tspan></text><polyline class="cls-33" points="581.07 356.51 581.07 397.86 784 397.86"/><rect class="cls-23" x="652.3" y="367.68" width="117.83" height="55.6"/><text class="cls-29" transform="translate(691.21 392.26)">Model<tspan class="cls-30" x="-8.35" y="16.8">V</tspan><tspan x="0.25" y="16.8">alida</tspan><tspan class="cls-31" x="30.17" y="16.8">t</tspan><tspan x="34.54" y="16.8">or</tspan></text><rect class="cls-25" x="129.63" y="300.91" width="117.83" height="55.6"/><text class="cls-29" transform="translate(147.59 333.1)">ExampleGen</text><polyline class="cls-33" points="188.55 139.31 188.55 98.76 259.85 98.76"/><line class="cls-33" x1="188.55" y1="237.85" x2="259.85" y2="237.85"/><polyline class="cls-33" points="188.28 195.88 188.28 283 448.57 283 448.57 303.08"/><line class="cls-33" x1="318.68" y1="126.56" x2="318.68" y2="140.41"/><circle class="cls-28" cx="259.85" cy="98.76" r="3.4"/><circle class="cls-28" cx="318.68" cy="140.41" r="3.4"/><circle class="cls-28" cx="259.77" cy="168.21" r="3.4"/><circle class="cls-28" cx="259.77" cy="238.24" r="3.4"/><circle class="cls-28" cx="448.57" cy="300.91" r="3.4"/><circle class="cls-28" cx="522.06" cy="327.14" r="3.4"/><circle class="cls-28" cx="652.13" cy="327.71" r="3.4"/><circle class="cls-28" cx="652.13" cy="397.86" r="3.4"/><circle class="cls-28" cx="735.69" cy="460.32" r="3.4"/><circle class="cls-28" cx="808.66" cy="460.32" r="3.4"/><circle class="cls-28" cx="881.89" cy="460.32" r="3.4"/><circle class="cls-28" cx="784" cy="397.86" r="3.4"/><circle class="cls-28" cx="393" cy="327.14" r="3.4"/><circle class="cls-28" cx="129.63" cy="327.14" r="3.4"/><rect class="cls-23" x="129.63" y="140.41" width="117.83" height="55.6"/><text class="cls-29" transform="translate(147.59 172.59)">ExampleGen</text><circle class="cls-28" cx="129.63" cy="168.21" r="3.4"/><polyline class="cls-33" points="842.92 423.27 842.92 445.41 881.89 445.41 881.89 459.57"/><polyline class="cls-33" points="808.65 459.57 808.65 445.41 840.05 445.41"/><polyline class="cls-33" points="735.69 459.57 735.69 445.41 808.65 445.41"/></svg>