<svg id="svg161" xmlns="http://www.w3.org/2000/svg" xmlns:xlink="http://www.w3.org/1999/xlink" viewBox="0 0 727.63 457.52"><defs><style>.cls-1{fill:#f4f4f4;}.cls-2{fill:url(#linear-gradient);}.cls-25,.cls-3{font-size:11px;}.cls-3{fill:#777;}.cls-3,.cls-32,.cls-5{font-family:Roboto-Bold, Roboto;font-weight:700;}.cls-4{letter-spacing:-0.01em;}.cls-32,.cls-5{font-size:9px;}.cls-5{fill:#b8baba;}.cls-6{letter-spacing:-0.03em;}.cls-7{fill:#ffa800;}.cls-8{fill:#ff8f00;}.cls-9{fill:#ff6f00;}.cls-10{fill:url(#linear-gradient-2);}.cls-11,.cls-32{fill:#425066;}.cls-12{font-size:14px;fill:#fff;}.cls-12,.cls-25{font-family:Roboto-Regular, Roboto;}.cls-13{letter-spacing:-0.03em;}.cls-14{letter-spacing:-0.02em;}.cls-15{letter-spacing:-0.02em;}.cls-16{letter-spacing:-0.01em;}.cls-17,.cls-23,.cls-24{fill:none;stroke-miterlimit:10;stroke-width:0.96px;}.cls-17,.cls-23{stroke:#425066;}.cls-17{stroke-dasharray:3 3;}.cls-18{letter-spacing:-0.16em;}.cls-19{letter-spacing:0em;}.cls-20{letter-spacing:-0.01em;}.cls-21{letter-spacing:-0.16em;}.cls-22{letter-spacing:0em;}.cls-24{stroke:#ff6f00;}.cls-25{fill:#a0a0a0;}.cls-26{letter-spacing:-0.03em;}.cls-27{letter-spacing:-0.04em;}.cls-28{letter-spacing:-0.01em;}.cls-29{letter-spacing:-0.01em;}.cls-30{letter-spacing:-0.01em;}.cls-31{letter-spacing:-0.02em;}.cls-33{letter-spacing:-0.03em;}.cls-34{letter-spacing:0em;}.cls-35{letter-spacing:0em;}</style><linearGradient id="linear-gradient" x1="114.73" y1="36.36" x2="224.2" y2="36.36" gradientUnits="userSpaceOnUse"><stop offset="0" stop-color="#e6e6e6"/><stop offset="1" stop-color="#e6e6e6"/></linearGradient><linearGradient id="linear-gradient-2" x1="406.7" y1="49.18" x2="411.26" y2="318" gradientUnits="userSpaceOnUse"><stop offset="0" stop-color="#e6e6e6"/><stop offset="1" stop-color="#fff"/></linearGradient></defs><title>all_diagrams</title><rect class="cls-1" x="228.44" y="16.73" width="109.47" height="39.27"/><rect class="cls-2" x="114.73" y="16.73" width="109.47" height="39.27"/><rect class="cls-1" x="341.67" y="16.73" width="109.47" height="39.27"/><text class="cls-3" transform="translate(37.67 214.43)">INFERENCE<tspan x="1.54" y="13.2">REQUES</tspan><tspan class="cls-4" x="42.54" y="13.2">T</tspan><tspan x="49.24" y="13.2">S</tspan></text><text class="cls-5" transform="translate(382.06 39.63)"><tspan class="cls-6">O</tspan><tspan x="5.96" y="0">THER</tspan></text><polygon class="cls-7" points="41.52 153.7 66.44 139.31 91.38 153.7 66.44 168.1 41.52 153.7"/><polygon class="cls-8" points="41.52 153.7 41.52 182.49 66.45 196.88 66.44 168.1 41.52 153.7"/><polygon class="cls-9" points="91.38 153.7 91.38 182.49 66.45 196.88 66.44 168.1 91.38 153.7"/><rect class="cls-10" x="114.73" y="55.52" width="588.54" height="258.2"/><path class="cls-9" d="M606.36,115.91v1.78H595.78V101h10.47v1.8H598v5.37h7.2V110H598v5.93Z"/><path class="cls-9" d="M615.65,105.32h2.49l-4,6.11,4.16,6.27h-2.46L613,113l-2.84,4.66h-2.49l4.18-6.27-4-6.11h2.47l2.7,4.52Z"/><path class="cls-9" d="M625.64,117.7a5.47,5.47,0,0,1-1.64.23,2.82,2.82,0,0,1-2.08-.78,3.46,3.46,0,0,1-.78-2.53v-7.69h-2.25v-1.61h2.25v-3h2.14v3h2.31v1.61h-2.31v7.7a1.5,1.5,0,0,0,.37,1.18,1.51,1.51,0,0,0,1,.3,3.8,3.8,0,0,0,.53,0l.46-.09Z"/><path class="cls-9" d="M638,112.09h-8.37a5.18,5.18,0,0,0,.48,2.09,3.58,3.58,0,0,0,1.26,1.48,3.38,3.38,0,0,0,1.92.54,3.77,3.77,0,0,0,1.86-.43,4.53,4.53,0,0,0,1.4-1.25l1.29,1a5.4,5.4,0,0,1-1.83,1.72,5.54,5.54,0,0,1-2.84.67,5.74,5.74,0,0,1-3-.77,5.19,5.19,0,0,1-2-2.13,6.63,6.63,0,0,1-.7-3.09v-.49a7.21,7.21,0,0,1,.76-3.38,5.54,5.54,0,0,1,2-2.21,5.34,5.34,0,0,1,5.53,0,4.57,4.57,0,0,1,1.69,2.13,8.37,8.37,0,0,1,.55,3.15Zm-5.1-5.29a2.77,2.77,0,0,0-2.13.93,4.69,4.69,0,0,0-1.07,2.64h6.17v-.16a4.63,4.63,0,0,0-.78-2.43,2.49,2.49,0,0,0-2.18-1"/><path class="cls-9" d="M650.23,109.59v8.11H648.1v-8.13a2.91,2.91,0,0,0-.61-2.06,2.44,2.44,0,0,0-1.85-.64,3.05,3.05,0,0,0-1.77.54,3.78,3.78,0,0,0-1.24,1.44v8.85h-2.14V105.32h2l.07,1.52a4.71,4.71,0,0,1,1.61-1.29,4.66,4.66,0,0,1,2.07-.46Q650.23,105.09,650.23,109.59Z"/><path class="cls-9" d="M663.37,100.12V117.7h-2l-.1-1.32a4.29,4.29,0,0,1-3.52,1.54,4.19,4.19,0,0,1-2.54-.81,5.27,5.27,0,0,1-1.72-2.24,8.12,8.12,0,0,1-.61-3.23v-.24a8.41,8.41,0,0,1,.61-3.31,5.07,5.07,0,0,1,1.72-2.22,4.33,4.33,0,0,1,2.57-.79,4.25,4.25,0,0,1,3.42,1.45v-6.42Zm-2.14,14.22v-5.73a3.44,3.44,0,0,0-1.15-1.28,3.11,3.11,0,0,0-1.74-.47,2.83,2.83,0,0,0-1.85.6,3.48,3.48,0,0,0-1.09,1.63,7.17,7.17,0,0,0-.35,2.31v.24a7,7,0,0,0,.35,2.29,3.47,3.47,0,0,0,1.08,1.61,2.81,2.81,0,0,0,1.83.59A3.09,3.09,0,0,0,661.23,114.34Z"/><path class="cls-9" d="M676.63,112.09h-8.37a5.18,5.18,0,0,0,.48,2.09,3.58,3.58,0,0,0,1.26,1.48,3.38,3.38,0,0,0,1.92.54,3.77,3.77,0,0,0,1.86-.43,4.53,4.53,0,0,0,1.4-1.25l1.29,1a5.4,5.4,0,0,1-1.83,1.72,5.54,5.54,0,0,1-2.84.67,5.74,5.74,0,0,1-3-.77,5.19,5.19,0,0,1-2-2.13,6.63,6.63,0,0,1-.7-3.09v-.49a7.21,7.21,0,0,1,.76-3.38,5.54,5.54,0,0,1,2-2.21,5.34,5.34,0,0,1,5.53,0,4.57,4.57,0,0,1,1.69,2.13,8.37,8.37,0,0,1,.55,3.15Zm-2.14-1.88a4.63,4.63,0,0,0-.78-2.43,2.49,2.49,0,0,0-2.18-1,2.77,2.77,0,0,0-2.13.93,4.69,4.69,0,0,0-1.07,2.64h6.17Z"/><path class="cls-9" d="M689,100.12V117.7h-2l-.1-1.32a4.29,4.29,0,0,1-3.52,1.54,4.19,4.19,0,0,1-2.54-.81,5.27,5.27,0,0,1-1.72-2.24,8.12,8.12,0,0,1-.61-3.23v-.24a8.41,8.41,0,0,1,.61-3.31,5.07,5.07,0,0,1,1.72-2.22,4.33,4.33,0,0,1,2.57-.79,4.25,4.25,0,0,1,3.42,1.45v-6.42Zm-2.14,14.22v-5.73a3.44,3.44,0,0,0-1.15-1.28,3.11,3.11,0,0,0-1.74-.47,2.83,2.83,0,0,0-1.85.6,3.48,3.48,0,0,0-1.09,1.63,7.17,7.17,0,0,0-.35,2.31v.24a7,7,0,0,0,.35,2.29,3.47,3.47,0,0,0,1.08,1.61,2.81,2.81,0,0,0,1.83.59A3.09,3.09,0,0,0,686.89,114.34Z"/><path class="cls-11" d="M545.3,74h-7V93.31h-4V74h-6.93V70.79H545.3Z"/><path class="cls-11" d="M557.58,86.15h-10.9a5.52,5.52,0,0,0,.66,2.27A4.06,4.06,0,0,0,548.85,90a4.31,4.31,0,0,0,2.22.56,5,5,0,0,0,4.17-2l2.06,2a7.19,7.19,0,0,1-2.54,2.24,8,8,0,0,1-3.93.9,8.35,8.35,0,0,1-4.27-1.06,7.17,7.17,0,0,1-2.8-2.9,8.68,8.68,0,0,1-1-4.13v-.63a9.92,9.92,0,0,1,1-4.54,7.36,7.36,0,0,1,2.72-3,7.28,7.28,0,0,1,3.9-1.07,7.19,7.19,0,0,1,4,1,6.3,6.3,0,0,1,2.4,2.9,10.92,10.92,0,0,1,.8,4.32Zm-3.8-3.08a4.62,4.62,0,0,0-.88-2.67,3,3,0,0,0-2.5-1,3.1,3.1,0,0,0-2.44,1.05,5.5,5.5,0,0,0-1.19,3h7Z"/><path class="cls-11" d="M574.19,77.74q1.38,1.48,1.38,4.77V93.31h-3.85V82.48a3.23,3.23,0,0,0-.72-2.37,3,3,0,0,0-2.2-.7,3.6,3.6,0,0,0-1.93.53,3.83,3.83,0,0,0-1.36,1.47V93.31h-3.85V76.58h3.62l.12,1.93a6.12,6.12,0,0,1,2.13-1.66,6.33,6.33,0,0,1,2.72-.58A5.13,5.13,0,0,1,574.19,77.74Z"/><path class="cls-11" d="M580.67,84.54a3.78,3.78,0,0,1-1.56-3.19,4.42,4.42,0,0,1,.8-2.54A5.46,5.46,0,0,1,582.18,77a8,8,0,0,1,3.41-.69,8.55,8.55,0,0,1,3.58.7,5.5,5.5,0,0,1,2.34,1.91,4.77,4.77,0,0,1,.82,2.73h-3.85a2.35,2.35,0,0,0-1.31-2.13,3.36,3.36,0,0,0-1.58-.34,3.1,3.1,0,0,0-2,.59,1.83,1.83,0,0,0-.71,1.47,1.49,1.49,0,0,0,.3.94,2.54,2.54,0,0,0,1,.7,12,12,0,0,0,2.06.59,16.32,16.32,0,0,1,3.39,1.05,5.19,5.19,0,0,1,2.07,1.61,4.07,4.07,0,0,1,.73,2.47,4.36,4.36,0,0,1-.84,2.63,5.44,5.44,0,0,1-2.39,1.8,9.27,9.27,0,0,1-3.57.64,8.41,8.41,0,0,1-3.8-.8,6.05,6.05,0,0,1-2.44-2.09,4.88,4.88,0,0,1-.83-2.71h3.73a2.47,2.47,0,0,0,1,2.07,4.13,4.13,0,0,0,2.37.66,3.76,3.76,0,0,0,2.19-.55,1.7,1.7,0,0,0,.78-1.46,1.77,1.77,0,0,0-.28-1,2.48,2.48,0,0,0-1.06-.77,10.81,10.81,0,0,0-2.22-.65A11.21,11.21,0,0,1,580.67,84.54Z"/><path class="cls-11" d="M596.55,80.41a7.21,7.21,0,0,1,2.7-3,7.64,7.64,0,0,1,4.14-1.11,7.73,7.73,0,0,1,4.18,1.11,7.2,7.2,0,0,1,2.71,3,9.92,9.92,0,0,1,.94,4.38v.32a9.92,9.92,0,0,1-.94,4.38,7.16,7.16,0,0,1-2.7,3,8.44,8.44,0,0,1-8.33,0,7.14,7.14,0,0,1-2.71-3,9.91,9.91,0,0,1-.94-4.38v-.32A9.91,9.91,0,0,1,596.55,80.41Zm3.9,8.6a3.31,3.31,0,0,0,3,1.52,3.39,3.39,0,0,0,2.2-.72,4.2,4.2,0,0,0,1.31-1.94,8.34,8.34,0,0,0,.43-2.75v-.32a8.36,8.36,0,0,0-.43-2.74,4.23,4.23,0,0,0-1.32-2,3.42,3.42,0,0,0-2.23-.73,3.34,3.34,0,0,0-2.2.73,4.28,4.28,0,0,0-1.31,2,8.35,8.35,0,0,0-.43,2.74v.32A7,7,0,0,0,600.45,89Z"/><path class="cls-11" d="M622.58,76.33a3.14,3.14,0,0,1,.61.14l0,3.63a9.68,9.68,0,0,0-1.53-.12,3.43,3.43,0,0,0-3.46,1.93v11.4h-3.85V76.58H618l.11,1.89a4.67,4.67,0,0,1,1.58-1.62,4.12,4.12,0,0,1,2.18-.57A5,5,0,0,1,622.58,76.33Z"/><path class="cls-11" d="M631.14,74V80.6h9v3.22h-9v9.49h-4V70.79h14.35V74Z"/><path class="cls-11" d="M645.05,93.31V70.79h3.85V93.31Z"/><path class="cls-11" d="M651.91,80.41a7.21,7.21,0,0,1,2.7-3,7.64,7.64,0,0,1,4.14-1.11,7.73,7.73,0,0,1,4.18,1.11,7.2,7.2,0,0,1,2.71,3,9.92,9.92,0,0,1,.94,4.38v.32a9.92,9.92,0,0,1-.94,4.38,7.16,7.16,0,0,1-2.7,3,8.44,8.44,0,0,1-8.33,0,7.14,7.14,0,0,1-2.71-3,9.91,9.91,0,0,1-.94-4.38v-.32A9.91,9.91,0,0,1,651.91,80.41Zm3.9,8.6a3.31,3.31,0,0,0,3,1.52,3.39,3.39,0,0,0,2.2-.72,4.2,4.2,0,0,0,1.31-1.94,8.34,8.34,0,0,0,.43-2.75v-.32A8.36,8.36,0,0,0,662.3,82a4.23,4.23,0,0,0-1.32-2,3.42,3.42,0,0,0-2.23-.73,3.34,3.34,0,0,0-2.2.73,4.28,4.28,0,0,0-1.31,2,8.35,8.35,0,0,0-.43,2.74v.32A7,7,0,0,0,655.82,89Z"/><path class="cls-11" d="M690.08,76.58l-4.53,16.73h-3.17L678.84,82l-3.48,11.35h-3.17l-4.53-16.73h3.74L674,87.88l3.39-11.3h2.88L683.72,88l2.61-11.44Z"/><rect class="cls-9" x="259.77" y="70.96" width="117.83" height="55.6"/><text class="cls-12" transform="translate(274.82 103.95)">StatisticsGen</text><rect class="cls-9" x="391.36" y="210.05" width="117.83" height="55.6"/><text class="cls-12" transform="translate(415.44 242.23)"><tspan class="cls-13">T</tspan><tspan class="cls-14" x="7.9" y="0">r</tspan><tspan x="12.43" y="0">ansform</tspan></text><rect class="cls-9" x="259.77" y="140.41" width="117.83" height="55.6"/><text class="cls-12" transform="translate(289.54 163.9)">Example<tspan class="cls-15" x="-1.08" y="16.8">V</tspan><tspan x="7.51" y="16.8">alida</tspan><tspan class="cls-16" x="37.43" y="16.8">t</tspan><tspan x="41.81" y="16.8">or</tspan></text><line class="cls-17" x1="91.37" y1="168.21" x2="259.85" y2="168.21"/><polyline class="cls-17" points="188.55 139.31 188.55 98.76 259.85 98.76"/><line class="cls-17" x1="188.55" y1="237.85" x2="393.3" y2="237.85"/><line class="cls-17" x1="188.28" y1="195.88" x2="188.28" y2="237.85"/><line class="cls-17" x1="318.68" y1="126.56" x2="318.68" y2="140.41"/><circle class="cls-11" cx="259.85" cy="98.76" r="3.4"/><circle class="cls-11" cx="318.68" cy="140.41" r="3.4"/><circle class="cls-11" cx="259.77" cy="168.21" r="3.4"/><circle class="cls-11" cx="391.36" cy="238.24" r="3.4"/><rect class="cls-9" x="129.63" y="140.41" width="117.83" height="55.6"/><text class="cls-12" transform="translate(147.59 172.59)">ExampleGen</text><circle class="cls-11" cx="129.63" cy="168.21" r="3.4"/><text class="cls-3" transform="translate(317.57 404.65)">T<tspan class="cls-18" x="6.8" y="0">F</tspan><tspan class="cls-19" x="11.09" y="0">.SE</tspan><tspan class="cls-20" x="27.24" y="0">R</tspan><tspan x="34.14" y="0">VING</tspan></text><text class="cls-3" transform="translate(404.35 404.65)">T<tspan class="cls-21" x="6.81" y="0">F</tspan><tspan x="11.09" y="0">.JS*</tspan></text><text class="cls-3" transform="translate(473.74 404.65)">T<tspan class="cls-21" x="6.81" y="0">F</tspan><tspan x="11.09" y="0">.L</tspan><tspan class="cls-22" x="20.24" y="0">I</tspan><tspan x="23.41" y="0">TE*</tspan></text><polyline class="cls-23" points="520.99 366.56 526.03 369.47 493.61 388.19 469.3 374.15 474.34 371.24"/><polyline class="cls-23" points="520.99 360.74 526.03 363.65 493.61 382.36 469.3 368.32 474.34 365.41"/><polygon class="cls-24" points="469.3 362.5 501.72 343.79 526.03 357.82 493.61 376.54 469.3 362.5"/><line class="cls-23" x1="493.61" y1="350.75" x2="509.82" y2="360.11"/><line class="cls-23" x1="485.51" y1="355.43" x2="497.67" y2="362.45"/><line class="cls-23" x1="477.4" y1="360.11" x2="485.51" y2="364.79"/><line class="cls-23" x1="497.67" y1="348.41" x2="501.72" y2="350.75"/><polyline class="cls-23" points="447.76 366.56 452.8 369.47 420.38 388.19 396.07 374.15 401.11 371.24"/><polyline class="cls-23" points="447.76 360.74 452.8 363.65 420.38 382.36 396.07 368.32 401.11 365.41"/><polygon class="cls-24" points="396.07 362.5 428.49 343.79 452.8 357.82 420.38 376.54 396.07 362.5"/><line class="cls-23" x1="420.38" y1="350.75" x2="436.59" y2="360.11"/><line class="cls-23" x1="412.28" y1="355.43" x2="424.44" y2="362.45"/><line class="cls-23" x1="404.17" y1="360.11" x2="412.28" y2="364.79"/><polyline class="cls-23" points="374.79 366.56 379.84 369.47 347.42 388.19 323.1 374.15 328.14 371.24"/><polyline class="cls-23" points="374.79 360.74 379.84 363.65 347.42 382.36 323.1 368.32 328.14 365.41"/><polygon class="cls-24" points="323.1 362.5 355.52 343.79 379.84 357.82 347.42 376.54 323.1 362.5"/><line class="cls-23" x1="347.42" y1="350.75" x2="363.63" y2="360.11"/><line class="cls-23" x1="339.31" y1="355.43" x2="351.47" y2="362.45"/><line class="cls-23" x1="331.2" y1="360.11" x2="339.31" y2="364.79"/><line class="cls-23" x1="351.47" y1="348.41" x2="355.52" y2="350.75"/><circle class="cls-11" cx="355.52" cy="344.54" r="3.4"/><circle class="cls-11" cx="428.49" cy="344.54" r="3.4"/><circle class="cls-11" cx="501.72" cy="344.54" r="3.4"/><polyline class="cls-17" points="453.75 265.65 453.75 329.63 501.72 329.63 501.72 343.79"/><polyline class="cls-17" points="428.49 343.79 428.49 329.63 459.88 329.63"/><polyline class="cls-17" points="355.52 343.79 355.52 329.63 428.49 329.63"/><text class="cls-25" transform="translate(195.55 444.33)">*Note:<tspan class="cls-26" x="30.94" y="0"> </tspan><tspan class="cls-27" x="33.35" y="0">T</tspan><tspan x="39.43" y="0">ensorFlow JS and</tspan><tspan class="cls-26" x="126.58" y="0"> </tspan><tspan class="cls-27" x="128.99" y="0">T</tspan><tspan x="135.07" y="0">ensorFlow Lite depl</tspan><tspan class="cls-28" x="230.25" y="0">o</tspan><tspan x="236.45" y="0">yments </tspan><tspan class="cls-29" x="275.18" y="0">r</tspan><tspan x="278.8" y="0">equi</tspan><tspan class="cls-30" x="299.61" y="0">r</tspan><tspan x="303.23" y="0">e sepa</tspan><tspan class="cls-31" x="335.44" y="0">r</tspan><tspan x="338.99" y="0">ate ExampleGen implementations</tspan></text><text class="cls-32" transform="translate(128.43 38.67)">AIRF<tspan class="cls-33" x="19.35" y="0">L</tspan><tspan x="23.92" y="0">OW RU</tspan><tspan class="cls-22" x="51.92" y="0">N</tspan><tspan class="cls-34" x="58.24" y="0">TIME</tspan></text><text class="cls-5" transform="translate(238.59 38.67)">KUBEF<tspan class="cls-33" x="27.37" y="0">L</tspan><tspan class="cls-34" x="31.94" y="0">OW RU</tspan><tspan class="cls-35" x="59.94" y="0">N</tspan><tspan class="cls-34" x="66.26" y="0">TIME</tspan></text></svg>