<svg id="svg161" xmlns="http://www.w3.org/2000/svg" xmlns:xlink="http://www.w3.org/1999/xlink" viewBox="0 0 929.55 482.34"><defs><style>.cls-1{fill:#f4f4f4;}.cls-2{fill:url(#linear-gradient);}.cls-3{fill:url(#linear-gradient-2);}.cls-34,.cls-4{font-size:11px;}.cls-4{fill:#777;}.cls-12,.cls-16,.cls-34,.cls-4{font-family:Roboto-Bold, Roboto;font-weight:700;}.cls-5{letter-spacing:0em;}.cls-6{letter-spacing:0em;}.cls-7{letter-spacing:0.01em;}.cls-8{letter-spacing:-0.06em;}.cls-9{letter-spacing:-0.01em;}.cls-10{letter-spacing:-0.01em;}.cls-11{letter-spacing:-0.06em;}.cls-12,.cls-16{font-size:9px;}.cls-12,.cls-22{fill:#425066;}.cls-13{letter-spacing:-0.03em;}.cls-14{letter-spacing:0em;}.cls-15{letter-spacing:0em;}.cls-16{fill:#b8baba;}.cls-17{letter-spacing:0em;}.cls-18{letter-spacing:-0.03em;}.cls-19{fill:#ffa800;}.cls-20{fill:#ffa400;}.cls-21{fill:#ff6f00;}.cls-23{font-size:14px;fill:#fff;font-family:Roboto-Regular, Roboto;}.cls-24{letter-spacing:-0.02em;}.cls-25{letter-spacing:-0.01em;}.cls-26,.cls-32,.cls-38,.cls-39{fill:none;stroke-miterlimit:10;stroke-width:0.96px;}.cls-26{stroke:#425066;}.cls-26,.cls-32,.cls-39{stroke-dasharray:3 3;}.cls-27{fill:#ced0d1;}.cls-28{letter-spacing:-0.03em;}.cls-29{letter-spacing:-0.02em;}.cls-30{letter-spacing:-0.01em;}.cls-31{letter-spacing:-0.01em;}.cls-32{stroke:#a3a3a3;}.cls-33{fill:#a3a3a3;}.cls-34{fill:#b2b2b2;}.cls-35{letter-spacing:-0.03em;}.cls-36{letter-spacing:0em;}.cls-37{letter-spacing:0em;}.cls-38{stroke:#c1c1c1;}.cls-39{stroke:#a5a5a5;}</style><linearGradient id="linear-gradient" x1="498.21" y1="45.51" x2="505.29" y2="463.47" gradientUnits="userSpaceOnUse"><stop offset="0" stop-color="#e6e6e6"/><stop offset="1" stop-color="#fff"/></linearGradient><linearGradient id="linear-gradient-2" x1="94.45" y1="36.36" x2="203.91" y2="36.36" gradientUnits="userSpaceOnUse"><stop offset="0" stop-color="#e6e6e6"/><stop offset="1" stop-color="#e6e6e6"/></linearGradient></defs><title>all_diagrams_2020</title><rect class="cls-1" x="321.39" y="16.73" width="109.47" height="39.27"/><rect class="cls-1" x="208.16" y="16.73" width="109.47" height="39.27"/><rect class="cls-2" x="94.45" y="54.52" width="814.66" height="403.14"/><rect class="cls-3" x="94.45" y="16.73" width="109.47" height="39.27"/><text class="cls-4" transform="translate(14.46 222.2)">T<tspan class="cls-5" x="6.81" y="0">R</tspan><tspan class="cls-6" x="13.86" y="0">AINING &amp; </tspan><tspan class="cls-7" x="3.66" y="13.2">E</tspan><tspan class="cls-8" x="10" y="13.2">V</tspan><tspan class="cls-6" x="16.52" y="13.2">A</tspan><tspan class="cls-9" x="23.92" y="13.2">L</tspan><tspan x="29.76" y="13.2"> </tspan><tspan class="cls-10" x="32.5" y="13.2">D</tspan><tspan class="cls-11" x="39.5" y="13.2">AT</tspan><tspan x="52.34" y="13.2">A</tspan></text><text class="cls-12" transform="translate(109.49 39.64)">AIRF<tspan class="cls-13" x="19.35" y="0">L</tspan><tspan x="23.92" y="0">OW RU</tspan><tspan class="cls-14" x="51.92" y="0">N</tspan><tspan class="cls-15" x="58.24" y="0">TIME</tspan></text><text class="cls-16" transform="translate(219.65 39.64)">KUBEF<tspan class="cls-13" x="27.37" y="0">L</tspan><tspan class="cls-15" x="31.94" y="0">OW RU</tspan><tspan class="cls-17" x="59.94" y="0">N</tspan><tspan class="cls-15" x="66.26" y="0">TIME</tspan></text><text class="cls-16" transform="translate(361.78 39.64)"><tspan class="cls-18">O</tspan><tspan x="5.96" y="0">THER</tspan></text><polygon class="cls-19" points="21.23 161.47 46.16 147.08 71.09 161.47 46.16 175.86 21.23 161.47"/><polygon class="cls-20" points="21.23 161.47 21.23 190.26 46.16 204.65 46.16 175.86 21.23 161.47"/><polygon class="cls-21" points="71.09 161.47 71.09 190.26 46.16 204.65 46.16 175.86 71.09 161.47"/><path class="cls-21" d="M810.32,123.68v1.78H799.74V108.81h10.47v1.79H802V116h7.19v1.78H802v5.93Z"/><path class="cls-21" d="M819.61,113.09h2.49l-4,6.1,4.16,6.27h-2.46l-2.85-4.65-2.84,4.65h-2.49l4.18-6.27-4-6.1h2.47l2.7,4.51Z"/><path class="cls-21" d="M829.6,125.46a5.29,5.29,0,0,1-1.64.23,2.8,2.8,0,0,1-2.07-.78,3.4,3.4,0,0,1-.79-2.52V114.7h-2.25v-1.61h2.25v-3h2.14v3h2.31v1.61h-2.31v7.7a1.46,1.46,0,0,0,.37,1.18,1.5,1.5,0,0,0,1,.3,3.4,3.4,0,0,0,.53,0,3.29,3.29,0,0,0,.46-.08Z"/><path class="cls-21" d="M842,119.86h-8.38a5.39,5.39,0,0,0,.48,2.09,3.54,3.54,0,0,0,1.27,1.48,3.3,3.3,0,0,0,1.91.55,3.76,3.76,0,0,0,1.86-.44,4.33,4.33,0,0,0,1.4-1.25l1.3,1A5.4,5.4,0,0,1,840,125a5.53,5.53,0,0,1-2.84.67,5.78,5.78,0,0,1-3-.76,5.18,5.18,0,0,1-2-2.13,6.64,6.64,0,0,1-.71-3.09v-.49a7.23,7.23,0,0,1,.76-3.38,5.48,5.48,0,0,1,2-2.22,5.36,5.36,0,0,1,5.52,0,4.55,4.55,0,0,1,1.69,2.13,8.52,8.52,0,0,1,.55,3.15ZM839.85,118a4.53,4.53,0,0,0-.79-2.43,2.47,2.47,0,0,0-2.17-1,2.76,2.76,0,0,0-2.14.94,4.7,4.7,0,0,0-1.07,2.63h6.17Z"/><path class="cls-21" d="M854.19,117.35v8.11h-2.14v-8.13a2.9,2.9,0,0,0-.61-2.06,2.42,2.42,0,0,0-1.84-.64,3,3,0,0,0-1.77.54,3.78,3.78,0,0,0-1.24,1.44v8.85h-2.14V113.09h2l.07,1.52a4.54,4.54,0,0,1,3.68-1.75Q854.2,112.86,854.19,117.35Z"/><path class="cls-21" d="M867.33,107.89v17.57h-2l-.1-1.31a4.3,4.3,0,0,1-3.53,1.54,4.21,4.21,0,0,1-2.54-.81,5.37,5.37,0,0,1-1.72-2.24,8.3,8.3,0,0,1-.61-3.23v-.24a8.27,8.27,0,0,1,.61-3.3,5,5,0,0,1,1.71-2.22,4.31,4.31,0,0,1,2.58-.79,4.26,4.26,0,0,1,3.42,1.45v-6.42Zm-2.14,14.22v-5.73A3.4,3.4,0,0,0,864,115.1a3.15,3.15,0,0,0-1.75-.47,2.81,2.81,0,0,0-1.84.6,3.39,3.39,0,0,0-1.09,1.63,7.27,7.27,0,0,0-.35,2.31v.24a7.12,7.12,0,0,0,.35,2.3,3.4,3.4,0,0,0,1.08,1.6,2.8,2.8,0,0,0,1.83.6A3.09,3.09,0,0,0,865.19,122.11Z"/><path class="cls-21" d="M880.59,119.86h-8.38a5.39,5.39,0,0,0,.48,2.09,3.54,3.54,0,0,0,1.27,1.48,3.3,3.3,0,0,0,1.91.55,3.76,3.76,0,0,0,1.86-.44,4.44,4.44,0,0,0,1.4-1.25l1.3,1A5.4,5.4,0,0,1,878.6,125a5.53,5.53,0,0,1-2.84.67,5.76,5.76,0,0,1-3-.76,5.18,5.18,0,0,1-2-2.13,6.64,6.64,0,0,1-.71-3.09v-.49a7.11,7.11,0,0,1,.76-3.38,5.53,5.53,0,0,1,2-2.22,5.37,5.37,0,0,1,5.53,0,4.55,4.55,0,0,1,1.69,2.13,8.52,8.52,0,0,1,.55,3.15ZM878.45,118a4.53,4.53,0,0,0-.79-2.43,2.48,2.48,0,0,0-2.18-1,2.75,2.75,0,0,0-2.13.94,4.7,4.7,0,0,0-1.07,2.63h6.17Z"/><path class="cls-21" d="M893,107.89v17.57h-2l-.1-1.31a4.28,4.28,0,0,1-3.52,1.54,4.18,4.18,0,0,1-2.54-.81,5.31,5.31,0,0,1-1.73-2.24,8.3,8.3,0,0,1-.61-3.23v-.24a8.27,8.27,0,0,1,.61-3.3,5,5,0,0,1,1.71-2.22,4.31,4.31,0,0,1,2.58-.79,4.26,4.26,0,0,1,3.42,1.45v-6.42Zm-2.14,14.22v-5.73a3.4,3.4,0,0,0-1.15-1.28,3.15,3.15,0,0,0-1.75-.47,2.81,2.81,0,0,0-1.84.6,3.39,3.39,0,0,0-1.09,1.63,7.27,7.27,0,0,0-.35,2.31v.24a7.12,7.12,0,0,0,.35,2.3,3.4,3.4,0,0,0,1.08,1.6,2.8,2.8,0,0,0,1.83.6A3.09,3.09,0,0,0,890.85,122.11Z"/><path class="cls-22" d="M749.26,81.79h-7v19.28h-4V81.79h-6.92V78.56h17.92Z"/><path class="cls-22" d="M761.54,93.91h-10.9a5.52,5.52,0,0,0,.66,2.28,4,4,0,0,0,1.51,1.54,4.31,4.31,0,0,0,2.22.56,5,5,0,0,0,4.17-2l2.06,2a7.13,7.13,0,0,1-2.54,2.24,8,8,0,0,1-3.93.9,8.29,8.29,0,0,1-4.26-1.06,7.11,7.11,0,0,1-2.8-2.9,8.66,8.66,0,0,1-1-4.13v-.63a10,10,0,0,1,1-4.54,7.35,7.35,0,0,1,2.73-3,7.86,7.86,0,0,1,7.87,0,6.3,6.3,0,0,1,2.4,2.9,10.92,10.92,0,0,1,.8,4.32Zm-3.81-3.07a4.58,4.58,0,0,0-.88-2.67,2.94,2.94,0,0,0-2.5-1,3.12,3.12,0,0,0-2.45,1.05,5.51,5.51,0,0,0-1.19,2.95h7Z"/><path class="cls-22" d="M778.15,85.51q1.38,1.47,1.38,4.77v10.79h-3.85V90.25a3.21,3.21,0,0,0-.72-2.37,3,3,0,0,0-2.2-.71,3.58,3.58,0,0,0-1.93.53,3.79,3.79,0,0,0-1.36,1.47v11.9h-3.85V84.34h3.61l.13,1.94a6.13,6.13,0,0,1,2.13-1.67,6.44,6.44,0,0,1,2.72-.58A5.16,5.16,0,0,1,778.15,85.51Z"/><path class="cls-22" d="M784.63,92.31a3.79,3.79,0,0,1-1.56-3.19,4.42,4.42,0,0,1,.8-2.54,5.48,5.48,0,0,1,2.27-1.86,8,8,0,0,1,3.41-.69,8.63,8.63,0,0,1,3.58.7,5.39,5.39,0,0,1,2.34,1.91,4.74,4.74,0,0,1,.82,2.73h-3.85a2.36,2.36,0,0,0-.33-1.23,2.4,2.4,0,0,0-1-.91,3.45,3.45,0,0,0-1.58-.34,3.08,3.08,0,0,0-2,.59,1.82,1.82,0,0,0-.72,1.47,1.42,1.42,0,0,0,.31.94,2.5,2.5,0,0,0,1,.7,11.91,11.91,0,0,0,2.06.59,16.36,16.36,0,0,1,3.38,1,5.11,5.11,0,0,1,2.07,1.61,4,4,0,0,1,.73,2.47,4.37,4.37,0,0,1-.84,2.63,5.48,5.48,0,0,1-2.39,1.8,9.21,9.21,0,0,1-3.57.64,8.53,8.53,0,0,1-3.81-.8,6.08,6.08,0,0,1-2.44-2.09,4.87,4.87,0,0,1-.83-2.71h3.72a2.48,2.48,0,0,0,1,2.08,4.13,4.13,0,0,0,2.37.66,3.73,3.73,0,0,0,2.19-.55,1.69,1.69,0,0,0,.78-1.46,1.78,1.78,0,0,0-.28-1,2.53,2.53,0,0,0-1.06-.78,11.52,11.52,0,0,0-2.22-.65A11.29,11.29,0,0,1,784.63,92.31Z"/><path class="cls-22" d="M800.5,88.18a7.31,7.31,0,0,1,2.7-3A7.64,7.64,0,0,1,807.35,84a7.72,7.72,0,0,1,4.18,1.11,7.18,7.18,0,0,1,2.7,3,9.81,9.81,0,0,1,.94,4.37v.33a9.81,9.81,0,0,1-.94,4.37,7.13,7.13,0,0,1-2.69,3,8.44,8.44,0,0,1-8.33,0,7.18,7.18,0,0,1-2.71-3,9.94,9.94,0,0,1-.93-4.37v-.33A9.94,9.94,0,0,1,800.5,88.18Zm3.91,8.59a3.32,3.32,0,0,0,3,1.52,3.39,3.39,0,0,0,2.2-.72,4.22,4.22,0,0,0,1.31-1.94,8.14,8.14,0,0,0,.43-2.75v-.33a8.16,8.16,0,0,0-.43-2.74,4.22,4.22,0,0,0-1.32-2,3.44,3.44,0,0,0-2.22-.72,3.37,3.37,0,0,0-2.2.72,4.36,4.36,0,0,0-1.31,2,8.43,8.43,0,0,0-.42,2.74v.33A7,7,0,0,0,804.41,96.77Z"/><path class="cls-22" d="M826.54,84.1a3.25,3.25,0,0,1,.61.13l0,3.64a9.87,9.87,0,0,0-1.53-.13,3.42,3.42,0,0,0-3.46,1.94v11.39h-3.85V84.34h3.66l.11,1.89a4.63,4.63,0,0,1,1.58-1.62,4.24,4.24,0,0,1,2.91-.51Z"/><path class="cls-22" d="M835.1,81.79v6.57h9v3.22h-9v9.49h-4V78.56h14.35v3.23Z"/><path class="cls-22" d="M849,101.07V78.56h3.85v22.51Z"/><path class="cls-22" d="M855.87,88.18a7.18,7.18,0,0,1,2.7-3A7.6,7.6,0,0,1,862.71,84a7.75,7.75,0,0,1,4.19,1.11,7.18,7.18,0,0,1,2.7,3,9.94,9.94,0,0,1,.94,4.37v.33a9.94,9.94,0,0,1-.94,4.37,7.09,7.09,0,0,1-2.7,3,8.42,8.42,0,0,1-8.32,0,7.11,7.11,0,0,1-2.71-3,9.94,9.94,0,0,1-.93-4.37v-.33A9.94,9.94,0,0,1,855.87,88.18Zm3.91,8.59a3.29,3.29,0,0,0,3,1.52,3.41,3.41,0,0,0,2.21-.72,4.22,4.22,0,0,0,1.31-1.94,8.4,8.4,0,0,0,.43-2.75v-.33a8.42,8.42,0,0,0-.43-2.74,4.22,4.22,0,0,0-1.32-2,3.45,3.45,0,0,0-2.23-.72,3.34,3.34,0,0,0-2.19.72,4.28,4.28,0,0,0-1.31,2,8.43,8.43,0,0,0-.42,2.74v.33A7,7,0,0,0,859.78,96.77Z"/><path class="cls-22" d="M894,84.34l-4.53,16.73h-3.17L882.8,89.72l-3.48,11.35h-3.17l-4.53-16.73h3.74L878,95.64l3.39-11.3h2.88l3.41,11.44,2.62-11.44Z"/><rect class="cls-21" x="239.48" y="148.33" width="117.83" height="55.6"/><text class="cls-23" transform="translate(254.54 181.32)">StatisticsGen</text><rect class="cls-21" x="369.77" y="148.33" width="117.83" height="55.6"/><text class="cls-23" transform="translate(388.6 180.52)">SchemaGen</text><rect class="cls-21" x="369.95" y="80.37" width="117.83" height="55.6"/><text class="cls-23" transform="translate(399.72 103.86)">Example<tspan class="cls-24" x="-1.08" y="16.8">V</tspan><tspan x="7.51" y="16.8">alida</tspan><tspan class="cls-25" x="37.43" y="16.8">t</tspan><tspan x="41.81" y="16.8">or</tspan></text><line class="cls-26" x1="71.09" y1="176.13" x2="109.35" y2="176.13"/><rect class="cls-27" x="369.67" y="216.05" width="117.83" height="55.6"/><text class="cls-23" transform="translate(396.47 248.23)"><tspan class="cls-28">T</tspan><tspan class="cls-29" x="7.9" y="0">r</tspan><tspan x="12.43" y="0">ansform</tspan></text><rect class="cls-27" x="630.07" y="216.05" width="117.83" height="55.6"/><text class="cls-23" transform="translate(659.48 248.23)"><tspan class="cls-30">E</tspan><tspan class="cls-31" x="7.78" y="0">v</tspan><tspan x="14.46" y="0">alua</tspan><tspan class="cls-25" x="40.8" y="0">t</tspan><tspan x="45.18" y="0">or</tspan></text><polyline class="cls-32" points="370.45 244.13 168.27 244.13 168.27 203.33"/><line class="cls-26" x1="222.31" y1="176.13" x2="236.16" y2="176.13"/><line class="cls-26" x1="357.31" y1="176.13" x2="365.82" y2="176.13"/><circle class="cls-22" cx="239.48" cy="176.13" r="3.4"/><circle class="cls-22" cx="369.22" cy="176.13" r="3.4"/><circle class="cls-22" cx="429.85" cy="135.97" r="3.4"/><circle class="cls-33" cx="369.22" cy="243.85" r="3.4"/><circle class="cls-33" cx="428.59" cy="217.05" r="3.4"/><circle class="cls-33" cx="630.07" cy="243.85" r="3.4"/><rect class="cls-21" x="109.35" y="148.33" width="117.83" height="55.6"/><text class="cls-23" transform="translate(127.3 180.52)">ExampleGen</text><circle class="cls-22" cx="109.35" cy="176.13" r="3.4"/><line class="cls-26" x1="429.85" y1="148.12" x2="429.85" y2="139.37"/><line class="cls-32" x1="428.89" y1="215.27" x2="428.89" y2="203.72"/><line class="cls-32" x1="630.07" y1="243.85" x2="487.5" y2="243.85"/><rect class="cls-27" x="500.09" y="216.05" width="117.83" height="55.6"/><text class="cls-23" transform="translate(537.41 248.23)"><tspan class="cls-28">T</tspan><tspan class="cls-29" x="7.9" y="0">r</tspan><tspan x="12.43" y="0">ainer</tspan></text><circle class="cls-33" cx="500" cy="243.85" r="3.4"/><circle class="cls-22" cx="369.56" cy="107.31" r="3.4"/><polyline class="cls-26" points="297.51 147.48 297.51 107.04 369.06 107.04"/><text class="cls-34" transform="translate(635.09 366.18)">TENSORF<tspan class="cls-35" x="48.16" y="0">L</tspan><tspan class="cls-36" x="53.75" y="0">OW</tspan><tspan x="12.73" y="13.2">SE</tspan><tspan class="cls-9" x="25.68" y="13.2">R</tspan><tspan class="cls-6" x="32.58" y="13.2">VING</tspan></text><text class="cls-34" transform="translate(724.58 366.18)">TENSORF<tspan class="cls-35" x="48.16" y="0">L</tspan><tspan class="cls-36" x="53.75" y="0">OW</tspan><tspan x="29.03" y="13.2">JS</tspan></text><text class="cls-34" transform="translate(814.06 366.18)">TENSORF<tspan class="cls-35" x="48.16" y="0">L</tspan><tspan class="cls-36" x="53.75" y="0">OW</tspan><tspan x="24.42" y="13.2">L</tspan><tspan class="cls-37" x="30.38" y="13.2">I</tspan><tspan class="cls-6" x="33.54" y="13.2">TE</tspan></text><polyline class="cls-38" points="872.1 328.75 877.14 331.66 844.72 350.38 820.41 336.34 825.45 333.43"/><polyline class="cls-38" points="872.1 322.93 877.14 325.84 844.72 344.56 820.41 330.52 825.45 327.61"/><polygon class="cls-38" points="820.41 324.7 852.83 305.98 877.14 320.02 844.72 338.74 820.41 324.7"/><line class="cls-38" x1="844.72" y1="312.95" x2="860.93" y2="322.3"/><line class="cls-38" x1="836.62" y1="317.62" x2="848.77" y2="324.64"/><line class="cls-38" x1="828.51" y1="322.3" x2="836.62" y2="326.98"/><line class="cls-38" x1="848.77" y1="310.61" x2="852.83" y2="312.95"/><polyline class="cls-38" points="786.66 328.75 791.7 331.66 759.28 350.38 734.97 336.34 740.01 333.43"/><polyline class="cls-38" points="786.66 322.93 791.7 325.84 759.28 344.56 734.97 330.52 740.01 327.61"/><polygon class="cls-38" points="734.97 324.7 767.39 305.98 791.7 320.02 759.28 338.74 734.97 324.7"/><line class="cls-38" x1="759.28" y1="312.95" x2="775.49" y2="322.3"/><line class="cls-38" x1="751.18" y1="317.62" x2="763.33" y2="324.64"/><line class="cls-38" x1="743.07" y1="322.3" x2="751.18" y2="326.98"/><polyline class="cls-38" points="694.59 328.75 699.63 331.66 667.21 350.38 642.89 336.34 647.93 333.43"/><polyline class="cls-38" points="694.59 322.93 699.63 325.84 667.21 344.56 642.89 330.52 647.93 327.61"/><polygon class="cls-38" points="642.89 324.7 675.31 305.98 699.63 320.02 667.21 338.74 642.89 324.7"/><line class="cls-38" x1="667.21" y1="312.95" x2="683.42" y2="322.3"/><line class="cls-38" x1="659.1" y1="317.62" x2="671.26" y2="324.64"/><line class="cls-38" x1="651" y1="322.3" x2="659.1" y2="326.98"/><line class="cls-38" x1="671.26" y1="310.61" x2="675.31" y2="312.95"/><circle class="cls-33" cx="674.49" cy="306.74" r="3.4"/><circle class="cls-33" cx="767.39" cy="306.74" r="3.4"/><circle class="cls-33" cx="852.83" cy="306.74" r="3.4"/><polyline class="cls-32" points="817.86 269.69 817.86 291.82 852.83 291.82 852.83 305.98"/><polyline class="cls-32" points="767.37 305.98 767.37 291.82 817.86 291.82"/><polyline class="cls-32" points="675.31 305.98 675.31 291.82 767.37 291.82"/><line class="cls-39" x1="748.59" y1="243.89" x2="762.79" y2="243.89"/><rect class="cls-27" x="758.94" y="216.09" width="117.83" height="55.6"/><text class="cls-23" transform="translate(793.17 248.27)">Pusher</text><circle class="cls-33" cx="758.94" cy="243.89" r="3.4"/></svg>
