<?xml version="1.0" encoding="UTF-8" standalone="no"?>
<svg
   viewBox="0 0 736 248"
   width="736"
   height="248"
   version="1.1"
   id="svg821102"
   xmlns="http://www.w3.org/2000/svg"
   xmlns:svg="http://www.w3.org/2000/svg">
  <defs
     id="defs821000">
    <clipPath
       id="a">
      <path
         d="M527.014 192.45h113.5v54h-113.5z"
         id="path820982" />
    </clipPath>
    <clipPath
       id="b">
      <path
         d="M5.014 4.45h134v54h-134z"
         id="path820985" />
    </clipPath>
    <clipPath
       id="c">
      <path
         d="M179.014 98.95h134v54h-134z"
         id="path820988" />
    </clipPath>
    <clipPath
       id="d">
      <path
         d="M353.014 192.45h134v54h-134z"
         id="path820991" />
    </clipPath>
    <clipPath
       id="e">
      <path
         d="M179.014 4.45h134v54h-134z"
         id="path820994" />
    </clipPath>
    <clipPath
       id="f">
      <path
         d="M353.014 98.45h134v54h-134z"
         id="path820997" />
    </clipPath>
  </defs>
  <g
     fill="none"
     id="g821100">
    <title
       id="title821002">Data preprocessing</title>
    <path
       fill="#ffffff"
       d="M 0,0 H 736 V 248 H 0 Z"
       id="path821004" />
    <title
       id="title821006">Layer 1</title>
    <path
       fill="#ffffff"
       d="m 527.014,192.45 h 113.5 v 54 h -113.5 z"
       id="path821008" />
    <path
       stroke="#dfdfdf"
       stroke-linecap="round"
       stroke-linejoin="round"
       stroke-width="2"
       clip-path="url(#a)"
       d="m 527.014,192.45 h 113.5 v 54 h -113.5 z"
       id="path821010" />
    <g
       aria-label="MachineLearning"
       transform="translate(568.014,205.45)"
       id="text821016"
       style="fill:#212121">
      <path
         d="M 5.2382812,9.4238281 8.0273438,2.46875 h 1.453125 V 11 h -1.125 V 7.671875 L 8.4667969,4.1035156 5.6601562,11 H 4.8046875 L 2.0039063,4.0917969 2.1152344,7.671875 V 11 H 0.99023438 V 2.46875 H 2.4433594 Z"
         style="font-size:12px;font-family:Roboto"
         id="path821106" />
      <path
         d="m 15.216797,11 q -0.105469,-0.228516 -0.152344,-0.667969 -0.304687,0.322266 -0.761719,0.556641 -0.457031,0.228516 -1.042968,0.228516 -0.972657,0 -1.558594,-0.544922 -0.585938,-0.544922 -0.585938,-1.3359379 0,-1.0195312 0.773438,-1.546875 Q 12.662109,7.15625 13.96875,7.15625 h 1.072266 V 6.6523437 q 0,-0.5625 -0.339844,-0.8964843 -0.333984,-0.3398438 -0.996094,-0.3398438 -0.615234,0 -0.996094,0.3046875 -0.375,0.2988281 -0.375,0.6972656 H 11.25 q 0,-0.6796875 0.685547,-1.2773437 0.685547,-0.5976563 1.833984,-0.5976563 1.03125,0 1.69336,0.5273438 0.662109,0.5273437 0.662109,1.59375 v 2.8476563 q 0,0.8789062 0.222656,1.3945312 V 11 Z m -1.798828,-0.832031 q 0.585937,0 1.013672,-0.292969 0.433593,-0.2929687 0.609375,-0.6503906 V 7.9179687 h -1.007813 q -1.828125,0.035156 -1.828125,1.1718751 0,0.4511718 0.304688,0.7675781 0.304687,0.3105471 0.908203,0.3105471 z"
         style="font-size:12px;font-family:Roboto"
         id="path821108" />
      <path
         d="m 20.367187,10.226563 q 0.580079,0 1.013672,-0.3457036 0.439453,-0.3457031 0.480469,-0.8847656 h 1.03125 q -0.04102,0.8496093 -0.779297,1.4882812 -0.738281,0.632813 -1.746094,0.632813 -1.429687,0 -2.126953,-0.94336 Q 17.548828,9.2304688 17.548828,7.953125 V 7.7070312 q 0,-1.2773437 0.691406,-2.2207031 0.697266,-0.9433594 2.126953,-0.9433594 1.113282,0 1.798829,0.6621094 0.685546,0.65625 0.726562,1.6347656 h -1.03125 Q 21.820312,6.2539062 21.416016,5.84375 21.017578,5.4335937 20.367187,5.4335937 q -0.667968,0 -1.048828,0.3398438 -0.375,0.3398437 -0.533203,0.8613281 Q 18.632812,7.15625 18.632812,7.7070312 V 7.953125 q 0,0.5566406 0.152344,1.078125 0.152344,0.5214844 0.527344,0.8613281 0.380859,0.3339849 1.054687,0.3339849 z"
         style="font-size:12px;font-family:Roboto"
         id="path821110" />
      <path
         d="m 26.742187,5.4570312 q -0.521484,0 -0.919921,0.28125 -0.398438,0.28125 -0.626954,0.7324219 V 11 H 24.111328 V 2 h 1.083984 v 3.4160156 q 0.720704,-0.8730469 1.869141,-0.8730469 0.931641,0 1.476563,0.5214844 0.550781,0.5214844 0.55664,1.7519531 V 11 H 28.007812 V 6.8339844 q 0,-0.7441407 -0.328125,-1.0605469 -0.322265,-0.3164063 -0.9375,-0.3164063 z"
         style="font-size:12px;font-family:Roboto"
         id="path821112" />
      <path
         d="m 30.726562,2.9785156 q 0,-0.2636718 0.158204,-0.4453125 0.164062,-0.1816406 0.480468,-0.1816406 0.310547,0 0.47461,0.1816406 0.169922,0.1816407 0.169922,0.4453125 0,0.2519532 -0.169922,0.4335938 -0.164063,0.1757812 -0.47461,0.1757812 -0.316406,0 -0.480468,-0.1757812 -0.158204,-0.1816406 -0.158204,-0.4335938 z m 1.171875,1.6816406 V 11 H 30.808594 V 4.6601562 Z"
         style="font-size:12px;font-family:Roboto"
         id="path821114" />
      <path
         d="m 36.269531,5.4570312 q -0.521484,0 -0.919922,0.28125 -0.398437,0.28125 -0.626953,0.7324219 V 11 H 33.638672 V 4.6601562 h 1.02539 l 0.03516,0.7910157 q 0.720703,-0.9082032 1.892578,-0.9082032 0.93164,0 1.476562,0.5214844 0.550782,0.5214844 0.556641,1.7519531 V 11 H 37.535156 V 6.8339844 q 0,-0.7441407 -0.328125,-1.0605469 -0.322265,-0.3164063 -0.9375,-0.3164063 z"
         style="font-size:12px;font-family:Roboto"
         id="path821116" />
      <path
         d="m 45.28125,9.8925781 q -0.310547,0.4687499 -0.878906,0.8496099 -0.56836,0.375 -1.50586,0.375 -1.324218,0 -2.121093,-0.861329 Q 39.984375,9.3945313 39.984375,8.0527344 V 7.8066406 q 0,-1.0371094 0.392578,-1.7636719 0.398438,-0.7324218 1.03125,-1.1132812 0.632813,-0.3867188 1.347656,-0.3867188 1.359375,0 1.980469,0.890625 0.626953,0.8847657 0.626953,2.2148438 v 0.4863281 h -4.289062 q 0.02344,0.8730469 0.515625,1.4882813 0.498047,0.6093751 1.365234,0.6093751 0.574219,0 0.972656,-0.2343751 Q 44.326172,9.7636719 44.625,9.3710938 Z M 42.755859,5.4335937 q -0.644531,0 -1.089843,0.46875 Q 41.220703,6.3710937 41.109375,7.25 h 3.169922 V 7.1679687 Q 44.238281,6.5351562 43.910156,5.984375 43.587891,5.4335937 42.755859,5.4335937 Z"
         style="font-size:12px;font-family:Roboto"
         id="path821118" />
      <path
         d="M 6.1640625,24.080078 V 25 H 0.99023438 V 16.46875 H 2.1210938 v 7.611328 z"
         style="font-size:12px;font-family:Roboto"
         id="path821120" />
      <path
         d="m 12.304688,23.892578 q -0.310547,0.46875 -0.878907,0.849609 -0.568359,0.375 -1.5058591,0.375 -1.3242188,0 -2.1210938,-0.861328 -0.7910156,-0.861328 -0.7910156,-2.203125 v -0.246093 q 0,-1.03711 0.3925781,-1.763672 0.3984375,-0.732422 1.03125,-1.113282 0.6328125,-0.386718 1.3476563,-0.386718 1.3593751,0 1.9804691,0.890625 0.626953,0.884765 0.626953,2.214843 v 0.486329 H 8.0976563 q 0.023437,0.873046 0.515625,1.488281 0.4980468,0.609375 1.3652343,0.609375 0.5742184,0 0.9726564,-0.234375 0.398437,-0.234375 0.697266,-0.626953 z M 9.7792969,19.433594 q -0.6445313,0 -1.0898438,0.46875 Q 8.2441406,20.371094 8.1328125,21.25 h 3.1699215 v -0.08203 q -0.04101,-0.632813 -0.36914,-1.183594 -0.322266,-0.550781 -1.1542971,-0.550781 z"
         style="font-size:12px;font-family:Roboto"
         id="path821122" />
      <path
         d="m 17.566406,25 q -0.105469,-0.228516 -0.152344,-0.667969 -0.304687,0.322266 -0.761718,0.556641 -0.457032,0.228515 -1.042969,0.228515 -0.972656,0 -1.558594,-0.544921 -0.585937,-0.544922 -0.585937,-1.335938 0,-1.019531 0.773437,-1.546875 0.773438,-0.533203 2.080078,-0.533203 h 1.072266 v -0.503906 q 0,-0.5625 -0.339844,-0.896485 -0.333984,-0.339843 -0.996094,-0.339843 -0.615234,0 -0.996093,0.304687 -0.375,0.298828 -0.375,0.697266 h -1.083985 q 0,-0.679688 0.685547,-1.277344 0.685547,-0.597656 1.833985,-0.597656 1.03125,0 1.693359,0.527343 0.662109,0.527344 0.662109,1.59375 v 2.847657 q 0,0.878906 0.222657,1.394531 V 25 Z m -1.798828,-0.832031 q 0.585938,0 1.013672,-0.292969 0.433594,-0.292969 0.609375,-0.650391 v -1.30664 h -1.007813 q -1.828124,0.03516 -1.828124,1.171875 0,0.451172 0.304687,0.767578 0.304688,0.310547 0.908203,0.310547 z"
         style="font-size:12px;font-family:Roboto"
         id="path821124" />
      <path
         d="m 22.710937,19.585937 q -1.060546,0 -1.447265,0.914063 V 25 h -1.083985 v -6.339844 h 1.054688 l 0.02344,0.726563 q 0.521485,-0.84375 1.50586,-0.84375 0.304687,0 0.480469,0.08203 l -0.0059,1.007812 q -0.240234,-0.04687 -0.527344,-0.04687 z"
         style="font-size:12px;font-family:Roboto"
         id="path821126" />
      <path
         d="m 26.876953,19.457031 q -0.521484,0 -0.919922,0.28125 -0.398437,0.28125 -0.626953,0.732422 V 25 h -1.083984 v -6.339844 h 1.02539 l 0.03516,0.791016 q 0.720703,-0.908203 1.892578,-0.908203 0.93164,0 1.476562,0.521484 0.550781,0.521484 0.556641,1.751953 V 25 h -1.089844 v -4.166016 q 0,-0.74414 -0.328125,-1.060547 -0.322266,-0.316406 -0.9375,-0.316406 z"
         style="font-size:12px;font-family:Roboto"
         id="path821128" />
      <path
         d="m 30.878906,16.978516 q 0,-0.263672 0.158203,-0.445313 0.164063,-0.181641 0.480469,-0.181641 0.310547,0 0.474609,0.181641 0.169922,0.181641 0.169922,0.445313 0,0.251953 -0.169922,0.433593 -0.164062,0.175782 -0.474609,0.175782 -0.316406,0 -0.480469,-0.175782 -0.158203,-0.18164 -0.158203,-0.433593 z m 1.171875,1.68164 V 25 h -1.089844 v -6.339844 z"
         style="font-size:12px;font-family:Roboto"
         id="path821130" />
      <path
         d="m 36.421875,19.457031 q -0.521484,0 -0.919922,0.28125 -0.398437,0.28125 -0.626953,0.732422 V 25 h -1.083984 v -6.339844 h 1.02539 l 0.03516,0.791016 q 0.720704,-0.908203 1.892579,-0.908203 0.93164,0 1.476562,0.521484 0.550781,0.521484 0.556641,1.751953 V 25 H 37.6875 v -4.166016 q 0,-0.74414 -0.328125,-1.060547 -0.322266,-0.316406 -0.9375,-0.316406 z"
         style="font-size:12px;font-family:Roboto"
         id="path821132" />
      <path
         d="m 42.826172,27.501953 q -0.492188,0 -1.207031,-0.240234 -0.714844,-0.240235 -1.142579,-0.861328 l 0.56836,-0.644532 q 0.703125,0.855469 1.699219,0.855469 0.767578,0 1.224609,-0.433594 0.457031,-0.427734 0.457031,-1.259765 v -0.556641 q -0.644531,0.755859 -1.77539,0.755859 -1.142579,0 -1.816407,-0.914062 -0.673828,-0.914063 -0.673828,-2.302734 v -0.123047 q 0,-1.453125 0.667969,-2.34375 0.673828,-0.890625 1.833984,-0.890625 1.166016,0 1.810547,0.820312 l 0.05273,-0.703125 h 0.984375 v 6.205078 q 0,1.259766 -0.75,1.945313 -0.75,0.691406 -1.933594,0.691406 z m -1.582031,-5.601562 q 0,0.943359 0.392578,1.623046 0.398437,0.673829 1.277343,0.673829 1.03125,0 1.511719,-0.9375 v -2.888672 q -0.205078,-0.392578 -0.568359,-0.650391 -0.363281,-0.263672 -0.931641,-0.263672 -0.884765,0 -1.283203,0.691406 -0.398437,0.685547 -0.398437,1.628907 z"
         style="font-size:12px;font-family:Roboto"
         id="path821134" />
    </g>
    <path
       d="m 559.187,220.23 c 0.03,-0.25 0.05,-0.51 0.05,-0.78 0,-0.27 -0.02,-0.53 -0.06,-0.78 l 1.69,-1.32 c 0.15,-0.12 0.19,-0.34 0.1,-0.51 l -1.6,-2.77 c -0.1,-0.18 -0.31,-0.24 -0.49,-0.18 l -1.99,0.8 c -0.42,-0.32 -0.86,-0.58 -1.35,-0.78 l -0.3,-2.12 a 0.4,0.4 0 0 0 -0.4,-0.34 h -3.2 c -0.2,0 -0.36,0.14 -0.39,0.34 l -0.3,2.12 c -0.49,0.2 -0.94,0.47 -1.35,0.78 l -1.99,-0.8 c -0.18,-0.07 -0.39,0 -0.49,0.18 l -1.6,2.77 c -0.1,0.18 -0.06,0.39 0.1,0.51 l 1.69,1.32 c -0.04,0.25 -0.07,0.52 -0.07,0.78 0,0.26 0.02,0.53 0.06,0.78 l -1.69,1.32 c -0.15,0.12 -0.19,0.34 -0.1,0.51 l 1.6,2.77 c 0.1,0.18 0.31,0.24 0.49,0.18 l 1.99,-0.8 c 0.42,0.32 0.86,0.58 1.35,0.78 l 0.3,2.12 c 0.04,0.2 0.2,0.34 0.4,0.34 h 3.2 c 0.2,0 0.37,-0.14 0.39,-0.34 l 0.3,-2.12 c 0.49,-0.2 0.94,-0.47 1.35,-0.78 l 1.99,0.8 c 0.18,0.07 0.39,0 0.49,-0.18 l 1.6,-2.77 c 0.1,-0.18 0.06,-0.39 -0.1,-0.51 z m -5.95,2.22 c -1.65,0 -3,-1.35 -3,-3 0,-1.65 1.35,-3 3,-3 1.65,0 3,1.35 3,3 0,1.65 -1.35,3 -3,3 z"
       fill="#616161"
       id="path821018" />
    <path
       fill="#ffffff"
       d="m 5.014,4.45 h 134 v 54 h -134 z"
       id="path821020" />
    <path
       stroke="#dfdfdf"
       stroke-linecap="round"
       stroke-linejoin="round"
       stroke-width="2"
       clip-path="url(#b)"
       d="m 5.014,4.45 h 134 v 54 h -134 z"
       id="path821022" />
    <g
       aria-label="(Raw) Data"
       transform="translate(46.014,24.45)"
       id="text821026"
       style="fill:#212121">
      <path
         d="m 0.78515625,7.53125 q 0,-1.6992188 0.48632815,-2.9707031 Q 1.7578125,3.2890625 2.4257813,2.4863281 3.09375,1.6835937 3.6503906,1.3730469 L 3.8789063,2.0878906 Q 3.1875,2.609375 2.5253906,3.9511719 q -0.65625,1.3359375 -0.65625,3.6503906 0,2.2265625 0.65625,3.5800785 0.6621094,1.353515 1.3535157,1.916015 l -0.2285157,0.65625 Q 3.09375,13.449219 2.4257813,12.646484 1.7578125,11.84375 1.2714844,10.578125 0.78515625,9.3066406 0.78515625,7.53125 Z"
         style="font-size:12px;font-family:Roboto"
         id="path821137" />
      <path
         d="M 10.083984,11 8.2324219,7.5429687 H 6.2285156 V 11 H 5.0976562 V 2.46875 H 7.921875 q 1.4355469,0 2.208984,0.65625 0.779297,0.65625 0.779297,1.9042969 0,0.796875 -0.433593,1.3945312 Q 10.048828,7.015625 9.2871094,7.3085937 L 11.291016,10.929688 V 11 Z M 6.2285156,3.3945313 v 3.2285156 h 1.7285156 q 0.9082032,0 1.3652344,-0.4628907 0.4628907,-0.46875 0.4628907,-1.1308593 0,-0.7382813 -0.4453125,-1.1835938 Q 8.9003906,3.3945313 7.921875,3.3945313 Z"
         style="font-size:12px;font-family:Roboto"
         id="path821139" />
      <path
         d="m 16.242187,11 q -0.105468,-0.228516 -0.152343,-0.667969 -0.304688,0.322266 -0.761719,0.556641 -0.457031,0.228516 -1.042969,0.228516 -0.972656,0 -1.558593,-0.544922 -0.585938,-0.544922 -0.585938,-1.3359379 0,-1.0195312 0.773438,-1.546875 Q 13.6875,7.15625 14.994141,7.15625 h 1.072265 V 6.6523437 q 0,-0.5625 -0.339843,-0.8964843 -0.333985,-0.3398438 -0.996094,-0.3398438 -0.615235,0 -0.996094,0.3046875 -0.375,0.2988281 -0.375,0.6972656 h -1.083984 q 0,-0.6796875 0.685547,-1.2773437 0.685546,-0.5976563 1.833984,-0.5976563 1.03125,0 1.693359,0.5273438 0.66211,0.5273437 0.66211,1.59375 v 2.8476563 q 0,0.8789062 0.222656,1.3945312 V 11 Z m -1.798828,-0.832031 q 0.585938,0 1.013672,-0.292969 0.433594,-0.2929687 0.609375,-0.6503906 V 7.9179687 h -1.007812 q -1.828125,0.035156 -1.828125,1.1718751 0,0.4511718 0.304687,0.7675781 0.304688,0.3105471 0.908203,0.3105471 z"
         style="font-size:12px;font-family:Roboto"
         id="path821141" />
      <path
         d="M 26.765625,4.6601562 24.925781,11 H 24.046875 L 22.505859,6.2011719 21.005859,11 H 20.121094 L 18.28125,4.6601562 h 1.083984 l 1.248047,4.7343751 1.476563,-4.7343751 h 0.873047 l 1.5,4.8339844 1.224609,-4.8339844 z"
         style="font-size:12px;font-family:Roboto"
         id="path821143" />
      <path
         d="m 30.369141,7.5898437 q 0,1.7109376 -0.486329,2.9824223 -0.486328,1.271484 -1.160156,2.074218 -0.667969,0.802735 -1.21875,1.107422 l -0.228515,-0.65625 q 0.685546,-0.521484 1.347656,-1.892578 0.662109,-1.3710936 0.662109,-3.6855468 0,-1.4824218 -0.328125,-2.5839843 Q 28.628906,3.828125 28.160156,3.1015625 27.691406,2.375 27.275391,2.0351563 l 0.228515,-0.6621094 q 0.550781,0.3105468 1.21875,1.1132812 0.673828,0.8027344 1.160156,2.0742188 0.486329,1.265625 0.486329,3.0292968 z"
         style="font-size:12px;font-family:Roboto"
         id="path821145" />
      <path
         d="M 35.191406,11 V 2.46875 h 2.414063 q 1.68164,0 2.71875,1.0839844 1.042968,1.078125 1.042968,2.9296875 v 0.5097656 q 0,1.8515625 -1.048828,2.9296875 Q 39.275391,11 37.5,11 Z m 1.13086,-7.6054687 V 10.080078 H 37.5 q 1.365234,0 2.056641,-0.8437499 0.691406,-0.84375 0.691406,-2.2441406 V 6.4707031 Q 40.248047,5 39.556641,4.1972656 38.865234,3.3945313 37.605469,3.3945313 Z"
         style="font-size:12px;font-family:Roboto"
         id="path821147" />
      <path
         d="m 46.816406,11 q -0.105469,-0.228516 -0.152344,-0.667969 -0.304687,0.322266 -0.761718,0.556641 -0.457032,0.228516 -1.042969,0.228516 -0.972656,0 -1.558594,-0.544922 -0.585937,-0.544922 -0.585937,-1.3359379 0,-1.0195312 0.773437,-1.546875 Q 44.261719,7.15625 45.568359,7.15625 h 1.072266 V 6.6523437 q 0,-0.5625 -0.339844,-0.8964843 -0.333984,-0.3398438 -0.996094,-0.3398438 -0.615234,0 -0.996093,0.3046875 -0.375,0.2988281 -0.375,0.6972656 h -1.083985 q 0,-0.6796875 0.685547,-1.2773437 0.685547,-0.5976563 1.833985,-0.5976563 1.03125,0 1.693359,0.5273438 0.662109,0.5273437 0.662109,1.59375 v 2.8476563 q 0,0.8789062 0.222657,1.3945312 V 11 Z m -1.798828,-0.832031 q 0.585938,0 1.013672,-0.292969 0.433594,-0.2929687 0.609375,-0.6503906 V 7.9179687 h -1.007813 q -1.828125,0.035156 -1.828125,1.1718751 0,0.4511718 0.304688,0.7675781 0.304687,0.3105471 0.908203,0.3105471 z"
         style="font-size:12px;font-family:Roboto"
         id="path821149" />
      <path
         d="m 52.113281,11 q -0.36914,0.117188 -0.83789,0.117188 -0.603516,0 -1.03125,-0.369141 -0.427735,-0.369141 -0.427735,-1.3242189 V 5.4921875 H 48.65625 V 4.6601562 h 1.160156 V 3.1191406 h 1.083985 v 1.5410156 h 1.183593 v 0.8320313 h -1.183593 v 3.9375 q 0,0.4863281 0.210937,0.6210935 0.210938,0.134766 0.486328,0.134766 0.205078,0 0.509766,-0.07031 z"
         style="font-size:12px;font-family:Roboto"
         id="path821151" />
      <path
         d="m 57.269531,11 q -0.105469,-0.228516 -0.152344,-0.667969 -0.304687,0.322266 -0.761718,0.556641 -0.457032,0.228516 -1.042969,0.228516 -0.972656,0 -1.558594,-0.544922 -0.585937,-0.544922 -0.585937,-1.3359379 0,-1.0195312 0.773437,-1.546875 Q 54.714844,7.15625 56.021484,7.15625 H 57.09375 V 6.6523437 q 0,-0.5625 -0.339844,-0.8964843 -0.333984,-0.3398438 -0.996094,-0.3398438 -0.615234,0 -0.996093,0.3046875 -0.375,0.2988281 -0.375,0.6972656 h -1.083985 q 0,-0.6796875 0.685547,-1.2773437 0.685547,-0.5976563 1.833985,-0.5976563 1.03125,0 1.693359,0.5273438 0.662109,0.5273437 0.662109,1.59375 v 2.8476563 q 0,0.8789062 0.222657,1.3945312 V 11 Z m -1.798828,-0.832031 q 0.585938,0 1.013672,-0.292969 0.433594,-0.2929687 0.609375,-0.6503906 V 7.9179687 h -1.007813 q -1.828125,0.035156 -1.828125,1.1718751 0,0.4511718 0.304688,0.7675781 0.304687,0.3105471 0.908203,0.3105471 z"
         style="font-size:12px;font-family:Roboto"
         id="path821153" />
    </g>
    <path
       d="m 21.014,35.05 v 3.6 h 18 v -3.6 z m 3.6,2.7 h -1.8 v -1.8 h 1.8 z m -3.6,-13.5 v 3.6 h 18 v -3.6 z m 3.6,2.7 h -1.8 v -1.8 h 1.8 z m -3.6,2.7 v 3.6 h 18 v -3.6 z m 3.6,2.7 h -1.8 v -1.8 h 1.8 z"
       fill="#616161"
       id="path821028" />
    <path
       fill="#ffffff"
       d="m 179.014,98.95 h 134 v 54 h -134 z"
       id="path821030" />
    <path
       stroke="#dfdfdf"
       stroke-linecap="round"
       stroke-linejoin="round"
       stroke-width="2"
       clip-path="url(#c)"
       d="m 179.014,98.95 h 134 v 54 h -134 z"
       id="path821032" />
    <g
       aria-label="Prepared Data"
       transform="translate(220.014,118.95)"
       id="text821036"
       style="fill:#212121">
      <path
         d="M 2.1210938,7.6542969 V 11 H 0.99023438 V 2.46875 H 4.1367187 q 1.453125,0 2.2207032,0.7324219 0.7734375,0.7324219 0.7734375,1.8691406 0,1.2363281 -0.7734375,1.9101562 -0.7675782,0.6738282 -2.2207032,0.6738282 z m 0,-4.2597656 V 6.734375 h 2.0156249 q 0.9960938,0 1.4296875,-0.4628906 Q 6,5.8085937 6,5.0820312 6,4.4257812 5.5664062,3.9101563 5.1328125,3.3945313 4.1367187,3.3945313 Z"
         style="font-size:12px;font-family:Roboto"
         id="path821156" />
      <path
         d="M 10.927734,5.5859375 Q 9.8671875,5.5859375 9.4804688,6.5 V 11 H 8.3964844 V 4.6601562 h 1.0546875 l 0.023437,0.7265625 q 0.5214844,-0.84375 1.5058596,-0.84375 0.304687,0 0.480469,0.082031 l -0.0059,1.0078125 q -0.240234,-0.046875 -0.527344,-0.046875 z"
         style="font-size:12px;font-family:Roboto"
         id="path821158" />
      <path
         d="m 17.367187,9.8925781 q -0.310546,0.4687499 -0.878906,0.8496099 -0.568359,0.375 -1.505859,0.375 -1.324219,0 -2.121094,-0.861329 Q 12.070313,9.3945313 12.070313,8.0527344 V 7.8066406 q 0,-1.0371094 0.392578,-1.7636719 0.398437,-0.7324218 1.03125,-1.1132812 0.632812,-0.3867188 1.347656,-0.3867188 1.359375,0 1.980469,0.890625 0.626953,0.8847657 0.626953,2.2148438 v 0.4863281 h -4.289063 q 0.02344,0.8730469 0.515625,1.4882813 0.498047,0.6093751 1.365235,0.6093751 0.574218,0 0.972656,-0.2343751 0.398437,-0.234375 0.697265,-0.6269531 z m -2.52539,-4.4589844 q -0.644531,0 -1.089844,0.46875 -0.445312,0.46875 -0.55664,1.3476563 h 3.169921 V 7.1679687 Q 16.324219,6.5351562 15.996094,5.984375 15.673828,5.4335937 14.841797,5.4335937 Z"
         style="font-size:12px;font-family:Roboto"
         id="path821160" />
      <path
         d="m 21.609375,11.117188 q -1.142578,0 -1.810547,-0.732422 V 13.4375 H 18.708984 V 4.6601562 h 0.996094 l 0.05273,0.6972657 q 0.667969,-0.8144532 1.833985,-0.8144532 1.201172,0 1.839844,0.890625 0.638671,0.890625 0.638671,2.34375 v 0.1230469 q 0,1.3886719 -0.644531,2.3027344 -0.638672,0.914063 -1.816406,0.914063 z M 21.275391,5.4570312 q -0.984375,0 -1.476563,0.8730469 v 3.0351563 q 0.498047,0.8613286 1.488281,0.8613286 0.878907,0 1.283203,-0.6914067 Q 22.980469,8.84375 22.980469,7.9003906 V 7.7773437 q 0,-0.9433593 -0.410157,-1.6289062 -0.404296,-0.6914063 -1.294921,-0.6914063 z"
         style="font-size:12px;font-family:Roboto"
         id="path821162" />
      <path
         d="m 29.367187,11 q -0.105468,-0.228516 -0.152343,-0.667969 -0.304688,0.322266 -0.761719,0.556641 -0.457031,0.228516 -1.042969,0.228516 -0.972656,0 -1.558594,-0.544922 -0.585937,-0.544922 -0.585937,-1.3359379 0,-1.0195312 0.773437,-1.546875 Q 26.8125,7.15625 28.119141,7.15625 h 1.072265 V 6.6523437 q 0,-0.5625 -0.339844,-0.8964843 -0.333984,-0.3398438 -0.996093,-0.3398438 -0.615235,0 -0.996094,0.3046875 -0.375,0.2988281 -0.375,0.6972656 h -1.083984 q 0,-0.6796875 0.685546,-1.2773437 0.685547,-0.5976563 1.833985,-0.5976563 1.03125,0 1.693359,0.5273438 0.66211,0.5273437 0.66211,1.59375 v 2.8476563 q 0,0.8789062 0.222656,1.3945312 V 11 Z m -1.798828,-0.832031 q 0.585938,0 1.013672,-0.292969 0.433594,-0.2929687 0.609375,-0.6503906 V 7.9179687 h -1.007812 q -1.828125,0.035156 -1.828125,1.1718751 0,0.4511718 0.304687,0.7675781 0.304688,0.3105471 0.908203,0.3105471 z"
         style="font-size:12px;font-family:Roboto"
         id="path821164" />
      <path
         d="m 34.511719,5.5859375 q -1.060547,0 -1.447266,0.9140625 V 11 H 31.980469 V 4.6601562 h 1.054687 l 0.02344,0.7265625 q 0.521484,-0.84375 1.505859,-0.84375 0.304688,0 0.480469,0.082031 l -0.0059,1.0078125 q -0.240234,-0.046875 -0.527343,-0.046875 z"
         style="font-size:12px;font-family:Roboto"
         id="path821166" />
      <path
         d="m 40.951172,9.8925781 q -0.310547,0.4687499 -0.878906,0.8496099 -0.56836,0.375 -1.50586,0.375 -1.324219,0 -2.121094,-0.861329 Q 35.654297,9.3945313 35.654297,8.0527344 V 7.8066406 q 0,-1.0371094 0.392578,-1.7636719 0.398437,-0.7324218 1.03125,-1.1132812 0.632812,-0.3867188 1.347656,-0.3867188 1.359375,0 1.980469,0.890625 0.626953,0.8847657 0.626953,2.2148438 v 0.4863281 h -4.289062 q 0.02344,0.8730469 0.515625,1.4882813 0.498046,0.6093751 1.365234,0.6093751 0.574219,0 0.972656,-0.2343751 0.398438,-0.234375 0.697266,-0.6269531 z M 38.425781,5.4335937 q -0.644531,0 -1.089844,0.46875 -0.445312,0.46875 -0.55664,1.3476563 h 3.169922 V 7.1679687 Q 39.908203,6.5351562 39.580078,5.984375 39.257812,5.4335937 38.425781,5.4335937 Z"
         style="font-size:12px;font-family:Roboto"
         id="path821168" />
      <path
         d="m 46.388672,11 -0.05273,-0.679687 q -0.65039,0.796875 -1.810546,0.796875 -1.113282,0 -1.798829,-0.902344 Q 42.041016,9.3125 42.029297,7.9472656 V 7.7773437 q 0,-1.453125 0.685547,-2.34375 0.691406,-0.890625 1.822265,-0.890625 1.119141,0 1.757813,0.75 V 2 h 1.089844 v 9 z M 43.119141,7.9003906 q 0,0.9433594 0.398437,1.6230469 0.398438,0.6738285 1.277344,0.6738285 1.007812,0 1.5,-0.9199222 V 6.359375 q -0.486328,-0.9023438 -1.488281,-0.9023438 -0.884766,0 -1.289063,0.6914063 -0.398437,0.6855469 -0.398437,1.6289062 z"
         style="font-size:12px;font-family:Roboto"
         id="path821170" />
      <path
         d="M 52.207031,11 V 2.46875 h 2.414063 q 1.68164,0 2.71875,1.0839844 1.042968,1.078125 1.042968,2.9296875 v 0.5097656 q 0,1.8515625 -1.048828,2.9296875 Q 56.291016,11 54.515625,11 Z m 1.13086,-7.6054687 v 6.6855467 h 1.177734 q 1.365234,0 2.056641,-0.8437499 0.691406,-0.84375 0.691406,-2.2441406 V 6.4707031 Q 57.263672,5 56.572266,4.1972656 55.880859,3.3945313 54.621094,3.3945313 Z"
         style="font-size:12px;font-family:Roboto"
         id="path821172" />
      <path
         d="m 63.832031,11 q -0.105469,-0.228516 -0.152344,-0.667969 -0.304687,0.322266 -0.761718,0.556641 -0.457032,0.228516 -1.042969,0.228516 -0.972656,0 -1.558594,-0.544922 -0.585937,-0.544922 -0.585937,-1.3359379 0,-1.0195312 0.773437,-1.546875 Q 61.277344,7.15625 62.583984,7.15625 H 63.65625 V 6.6523437 q 0,-0.5625 -0.339844,-0.8964843 -0.333984,-0.3398438 -0.996094,-0.3398438 -0.615234,0 -0.996093,0.3046875 -0.375,0.2988281 -0.375,0.6972656 h -1.083985 q 0,-0.6796875 0.685547,-1.2773437 0.685547,-0.5976563 1.833985,-0.5976563 1.03125,0 1.693359,0.5273438 0.662109,0.5273437 0.662109,1.59375 v 2.8476563 q 0,0.8789062 0.222657,1.3945312 V 11 Z m -1.798828,-0.832031 q 0.585938,0 1.013672,-0.292969 0.433594,-0.2929687 0.609375,-0.6503906 V 7.9179687 h -1.007813 q -1.828125,0.035156 -1.828125,1.1718751 0,0.4511718 0.304688,0.7675781 0.304687,0.3105471 0.908203,0.3105471 z"
         style="font-size:12px;font-family:Roboto"
         id="path821174" />
      <path
         d="m 69.128906,11 q -0.36914,0.117188 -0.83789,0.117188 -0.603516,0 -1.03125,-0.369141 -0.427735,-0.369141 -0.427735,-1.3242189 V 5.4921875 H 65.671875 V 4.6601562 h 1.160156 V 3.1191406 h 1.083985 v 1.5410156 h 1.183593 v 0.8320313 h -1.183593 v 3.9375 q 0,0.4863281 0.210937,0.6210935 0.210938,0.134766 0.486328,0.134766 0.205078,0 0.509766,-0.07031 z"
         style="font-size:12px;font-family:Roboto"
         id="path821176" />
      <path
         d="m 74.285156,11 q -0.105469,-0.228516 -0.152344,-0.667969 -0.304687,0.322266 -0.761718,0.556641 -0.457032,0.228516 -1.042969,0.228516 -0.972656,0 -1.558594,-0.544922 -0.585937,-0.544922 -0.585937,-1.3359379 0,-1.0195312 0.773437,-1.546875 Q 71.730469,7.15625 73.037109,7.15625 h 1.072266 V 6.6523437 q 0,-0.5625 -0.339844,-0.8964843 -0.333984,-0.3398438 -0.996094,-0.3398438 -0.615234,0 -0.996093,0.3046875 -0.375,0.2988281 -0.375,0.6972656 h -1.083985 q 0,-0.6796875 0.685547,-1.2773437 0.685547,-0.5976563 1.833985,-0.5976563 1.03125,0 1.693359,0.5273438 0.662109,0.5273437 0.662109,1.59375 v 2.8476563 q 0,0.8789062 0.222657,1.3945312 V 11 Z m -1.798828,-0.832031 q 0.585938,0 1.013672,-0.292969 0.433594,-0.2929687 0.609375,-0.6503906 V 7.9179687 h -1.007813 q -1.828125,0.035156 -1.828125,1.1718751 0,0.4511718 0.304688,0.7675781 0.304687,0.3105471 0.908203,0.3105471 z"
         style="font-size:12px;font-family:Roboto"
         id="path821178" />
    </g>
    <path
       d="m 195.014,129.55 v 3.6 h 18 v -3.6 z m 3.6,2.7 h -1.8 v -1.8 h 1.8 z m -3.6,-13.5 v 3.6 h 18 v -3.6 z m 3.6,2.7 h -1.8 v -1.8 h 1.8 z m -3.6,2.7 v 3.6 h 18 v -3.6 z m 3.6,2.7 h -1.8 v -1.8 h 1.8 z"
       fill="#616161"
       id="path821038" />
    <path
       fill="#ffffff"
       d="m 353.014,192.45 h 134 v 54 h -134 z"
       id="path821040" />
    <path
       stroke="#dfdfdf"
       stroke-linecap="round"
       stroke-linejoin="round"
       stroke-width="2"
       clip-path="url(#d)"
       d="m 353.014,192.45 h 134 v 54 h -134 z"
       id="path821042" />
    <g
       aria-label="EngineeredFeatures"
       transform="translate(394.014,205.45)"
       id="text821048"
       style="fill:#212121">
      <path
         d="M 0.99023438,11 V 2.46875 H 6.3515625 V 3.3945313 H 2.1210938 V 6.1367187 H 5.8125 V 7.0566406 H 2.1210938 V 10.080078 H 6.4101562 V 11 Z"
         style="font-size:12px;font-family:Roboto"
         id="path821181" />
      <path
         d="m 10.277344,5.4570312 q -0.5214846,0 -0.9199221,0.28125 -0.3984375,0.28125 -0.6269531,0.7324219 V 11 H 7.6464844 V 4.6601562 H 8.671875 l 0.035156,0.7910157 q 0.7207031,-0.9082032 1.8925777,-0.9082032 0.931641,0 1.476563,0.5214844 0.550781,0.5214844 0.556641,1.7519531 V 11 H 11.542969 V 6.8339844 q 0,-0.7441407 -0.328125,-1.0605469 -0.322266,-0.3164063 -0.9375,-0.3164063 z"
         style="font-size:12px;font-family:Roboto"
         id="path821183" />
      <path
         d="m 16.681641,13.501953 q -0.492188,0 -1.207032,-0.240234 -0.714843,-0.240235 -1.142578,-0.861328 l 0.56836,-0.644532 q 0.703125,0.855469 1.699218,0.855469 0.767578,0 1.22461,-0.433594 Q 18.28125,11.75 18.28125,10.917969 v -0.556641 q -0.644531,0.75586 -1.775391,0.75586 -1.142578,0 -1.816406,-0.914063 Q 14.015625,9.2890625 14.015625,7.9003906 V 7.7773437 q 0,-1.453125 0.667969,-2.34375 0.673828,-0.890625 1.833984,-0.890625 1.166016,0 1.810547,0.8203125 l 0.05273,-0.703125 h 0.984375 v 6.2050778 q 0,1.259766 -0.75,1.945313 -0.75,0.691406 -1.933593,0.691406 z M 15.099609,7.9003906 q 0,0.9433594 0.392579,1.6230469 0.398437,0.6738285 1.277343,0.6738285 1.03125,0 1.511719,-0.9375004 V 6.3710937 Q 18.076172,5.9785156 17.712891,5.7207031 17.349609,5.4570312 16.78125,5.4570312 q -0.884766,0 -1.283203,0.6914063 -0.398438,0.6855469 -0.398438,1.6289062 z"
         style="font-size:12px;font-family:Roboto"
         id="path821185" />
      <path
         d="m 21.017578,2.9785156 q 0,-0.2636718 0.158203,-0.4453125 0.164063,-0.1816406 0.480469,-0.1816406 0.310547,0 0.474609,0.1816406 0.169922,0.1816407 0.169922,0.4453125 0,0.2519532 -0.169922,0.4335938 -0.164062,0.1757812 -0.474609,0.1757812 -0.316406,0 -0.480469,-0.1757812 -0.158203,-0.1816406 -0.158203,-0.4335938 z m 1.171875,1.6816406 V 11 H 21.099609 V 4.6601562 Z"
         style="font-size:12px;font-family:Roboto"
         id="path821187" />
      <path
         d="m 26.560547,5.4570312 q -0.521485,0 -0.919922,0.28125 -0.398438,0.28125 -0.626953,0.7324219 V 11 H 23.929687 V 4.6601562 h 1.025391 l 0.03516,0.7910157 q 0.720703,-0.9082032 1.892578,-0.9082032 0.931641,0 1.476563,0.5214844 0.550781,0.5214844 0.556641,1.7519531 V 11 H 27.826172 V 6.8339844 q 0,-0.7441407 -0.328125,-1.0605469 -0.322266,-0.3164063 -0.9375,-0.3164063 z"
         style="font-size:12px;font-family:Roboto"
         id="path821189" />
      <path
         d="m 35.572266,9.8925781 q -0.310547,0.4687499 -0.878907,0.8496099 -0.568359,0.375 -1.505859,0.375 -1.324219,0 -2.121094,-0.861329 Q 30.275391,9.3945313 30.275391,8.0527344 V 7.8066406 q 0,-1.0371094 0.392578,-1.7636719 0.398437,-0.7324218 1.03125,-1.1132812 0.632812,-0.3867188 1.347656,-0.3867188 1.359375,0 1.980469,0.890625 0.626953,0.8847657 0.626953,2.2148438 v 0.4863281 h -4.289063 q 0.02344,0.8730469 0.515625,1.4882813 0.498047,0.6093751 1.365235,0.6093751 0.574218,0 0.972656,-0.2343751 0.398437,-0.234375 0.697266,-0.6269531 z M 33.046875,5.4335937 q -0.644531,0 -1.089844,0.46875 -0.445312,0.46875 -0.55664,1.3476563 h 3.169921 V 7.1679687 Q 34.529297,6.5351562 34.201172,5.984375 33.878906,5.4335937 33.046875,5.4335937 Z"
         style="font-size:12px;font-family:Roboto"
         id="path821191" />
      <path
         d="M 41.935547,9.8925781 Q 41.625,10.361328 41.056641,10.742188 q -0.56836,0.375 -1.50586,0.375 -1.324219,0 -2.121094,-0.861329 Q 36.638672,9.3945313 36.638672,8.0527344 V 7.8066406 q 0,-1.0371094 0.392578,-1.7636719 0.398437,-0.7324218 1.03125,-1.1132812 0.632812,-0.3867188 1.347656,-0.3867188 1.359375,0 1.980469,0.890625 0.626953,0.8847657 0.626953,2.2148438 v 0.4863281 h -4.289062 q 0.02344,0.8730469 0.515625,1.4882813 0.498046,0.6093751 1.365234,0.6093751 0.574219,0 0.972656,-0.2343751 0.398438,-0.234375 0.697266,-0.6269531 z M 39.410156,5.4335937 q -0.644531,0 -1.089844,0.46875 Q 37.875,6.3710937 37.763672,7.25 h 3.169922 V 7.1679687 Q 40.892578,6.5351562 40.564453,5.984375 40.242187,5.4335937 39.410156,5.4335937 Z"
         style="font-size:12px;font-family:Roboto"
         id="path821193" />
      <path
         d="m 45.814453,5.5859375 q -1.060547,0 -1.447266,0.9140625 V 11 H 43.283203 V 4.6601562 h 1.054688 l 0.02344,0.7265625 q 0.521484,-0.84375 1.505859,-0.84375 0.304688,0 0.480469,0.082031 l -0.0059,1.0078125 q -0.240235,-0.046875 -0.527344,-0.046875 z"
         style="font-size:12px;font-family:Roboto"
         id="path821195" />
      <path
         d="M 52.253906,9.8925781 Q 51.943359,10.361328 51.375,10.742188 q -0.568359,0.375 -1.505859,0.375 -1.324219,0 -2.121094,-0.861329 Q 46.957031,9.3945313 46.957031,8.0527344 V 7.8066406 q 0,-1.0371094 0.392578,-1.7636719 0.398438,-0.7324218 1.03125,-1.1132812 0.632813,-0.3867188 1.347657,-0.3867188 1.359375,0 1.980468,0.890625 0.626953,0.8847657 0.626953,2.2148438 v 0.4863281 h -4.289062 q 0.02344,0.8730469 0.515625,1.4882813 0.498047,0.6093751 1.365234,0.6093751 0.574219,0 0.972657,-0.2343751 0.398437,-0.234375 0.697265,-0.6269531 z m -2.52539,-4.4589844 q -0.644532,0 -1.089844,0.46875 Q 48.193359,6.3710937 48.082031,7.25 h 3.169922 V 7.1679687 Q 51.210937,6.5351562 50.882812,5.984375 50.560547,5.4335937 49.728516,5.4335937 Z"
         style="font-size:12px;font-family:Roboto"
         id="path821197" />
      <path
         d="m 57.691406,11 -0.05273,-0.679687 q -0.650391,0.796875 -1.810547,0.796875 -1.113281,0 -1.798828,-0.902344 Q 53.34375,9.3125 53.332031,7.9472656 V 7.7773437 q 0,-1.453125 0.685547,-2.34375 0.691406,-0.890625 1.822266,-0.890625 1.11914,0 1.757812,0.75 V 2 H 58.6875 v 9 z M 54.421875,7.9003906 q 0,0.9433594 0.398437,1.6230469 0.398438,0.6738285 1.277344,0.6738285 1.007813,0 1.5,-0.9199222 V 6.359375 q -0.486328,-0.9023438 -1.488281,-0.9023438 -0.884766,0 -1.289063,0.6914063 -0.398437,0.6855469 -0.398437,1.6289062 z"
         style="font-size:12px;font-family:Roboto"
         id="path821199" />
      <path
         d="M 0.99023438,25 V 16.46875 H 6.2753906 v 0.925781 H 2.1210938 v 2.91211 h 3.5742187 v 0.925781 H 2.1210938 V 25 Z"
         style="font-size:12px;font-family:Roboto"
         id="path821201" />
      <path
         d="m 12.351563,23.892578 q -0.310547,0.46875 -0.878907,0.849609 -0.568359,0.375 -1.5058591,0.375 -1.3242188,0 -2.1210938,-0.861328 -0.7910156,-0.861328 -0.7910156,-2.203125 v -0.246093 q 0,-1.03711 0.3925781,-1.763672 0.3984375,-0.732422 1.03125,-1.113282 0.6328125,-0.386718 1.3476563,-0.386718 1.3593751,0 1.9804691,0.890625 0.626953,0.884765 0.626953,2.214843 v 0.486329 H 8.1445313 q 0.023437,0.873046 0.515625,1.488281 0.4980468,0.609375 1.3652347,0.609375 0.574218,0 0.972656,-0.234375 0.398437,-0.234375 0.697266,-0.626953 z M 9.8261719,19.433594 q -0.6445313,0 -1.0898438,0.46875 Q 8.2910156,20.371094 8.1796875,21.25 h 3.1699215 v -0.08203 q -0.04101,-0.632813 -0.36914,-1.183594 -0.322266,-0.550781 -1.1542971,-0.550781 z"
         style="font-size:12px;font-family:Roboto"
         id="path821203" />
      <path
         d="m 17.613281,25 q -0.105469,-0.228516 -0.152344,-0.667969 -0.304687,0.322266 -0.761718,0.556641 -0.457032,0.228515 -1.042969,0.228515 -0.972656,0 -1.558594,-0.544921 -0.585937,-0.544922 -0.585937,-1.335938 0,-1.019531 0.773437,-1.546875 0.773438,-0.533203 2.080078,-0.533203 H 17.4375 v -0.503906 q 0,-0.5625 -0.339844,-0.896485 -0.333984,-0.339843 -0.996094,-0.339843 -0.615234,0 -0.996093,0.304687 -0.375,0.298828 -0.375,0.697266 h -1.083985 q 0,-0.679688 0.685547,-1.277344 0.685547,-0.597656 1.833985,-0.597656 1.03125,0 1.693359,0.527343 0.662109,0.527344 0.662109,1.59375 v 2.847657 q 0,0.878906 0.222657,1.394531 V 25 Z m -1.798828,-0.832031 q 0.585938,0 1.013672,-0.292969 0.433594,-0.292969 0.609375,-0.650391 v -1.30664 h -1.007813 q -1.828124,0.03516 -1.828124,1.171875 0,0.451172 0.304687,0.767578 0.304688,0.310547 0.908203,0.310547 z"
         style="font-size:12px;font-family:Roboto"
         id="path821205" />
      <path
         d="m 22.910156,25 q -0.36914,0.117187 -0.83789,0.117187 -0.603516,0 -1.03125,-0.36914 -0.427735,-0.369141 -0.427735,-1.324219 v -3.931641 h -1.160156 v -0.832031 h 1.160156 v -1.541015 h 1.083985 v 1.541015 h 1.183593 v 0.832031 h -1.183593 v 3.9375 q 0,0.486329 0.210937,0.621094 0.210938,0.134766 0.486328,0.134766 0.205078,0 0.509766,-0.07031 z"
         style="font-size:12px;font-family:Roboto"
         id="path821207" />
      <path
         d="m 28.083984,25 -0.02344,-0.626953 q -0.621094,0.74414 -1.851563,0.74414 -0.93164,0 -1.505859,-0.550781 Q 24.128906,24.015625 24.128906,22.75 v -4.089844 h 1.083985 v 4.101563 q 0,0.855468 0.357421,1.148437 0.363282,0.28711 0.808594,0.28711 1.22461,0 1.652344,-0.919922 v -4.617188 h 1.089844 V 25 Z"
         style="font-size:12px;font-family:Roboto"
         id="path821209" />
      <path
         d="m 33.298828,19.585937 q -1.060547,0 -1.447266,0.914063 V 25 h -1.083984 v -6.339844 h 1.054688 l 0.02344,0.726563 q 0.521484,-0.84375 1.505859,-0.84375 0.304688,0 0.480469,0.08203 l -0.0059,1.007812 q -0.240235,-0.04687 -0.527344,-0.04687 z"
         style="font-size:12px;font-family:Roboto"
         id="path821211" />
      <path
         d="m 39.738281,23.892578 q -0.310547,0.46875 -0.878906,0.849609 -0.568359,0.375 -1.505859,0.375 -1.324219,0 -2.121094,-0.861328 -0.791016,-0.861328 -0.791016,-2.203125 v -0.246093 q 0,-1.03711 0.392578,-1.763672 0.398438,-0.732422 1.03125,-1.113282 0.632813,-0.386718 1.347657,-0.386718 1.359375,0 1.980468,0.890625 0.626953,0.884765 0.626953,2.214843 v 0.486329 H 35.53125 q 0.02344,0.873046 0.515625,1.488281 0.498047,0.609375 1.365234,0.609375 0.574219,0 0.972657,-0.234375 0.398437,-0.234375 0.697265,-0.626953 z m -2.52539,-4.458984 q -0.644532,0 -1.089844,0.46875 -0.445313,0.46875 -0.556641,1.347656 h 3.169922 v -0.08203 q -0.04102,-0.632813 -0.369141,-1.183594 -0.322265,-0.550781 -1.154296,-0.550781 z"
         style="font-size:12px;font-family:Roboto"
         id="path821213" />
      <path
         d="m 44.777344,23.318359 q 0,-0.345703 -0.257813,-0.621093 -0.251953,-0.28125 -1.171875,-0.46875 -1.060547,-0.216797 -1.6875,-0.626954 -0.626953,-0.416015 -0.626953,-1.207031 0,-0.75 0.638672,-1.300781 0.644531,-0.550781 1.710937,-0.550781 1.136719,0 1.775391,0.580078 0.638672,0.580078 0.638672,1.40039 h -1.083984 q 0,-0.392578 -0.345704,-0.738281 -0.345703,-0.351562 -0.984375,-0.351562 -0.673828,0 -0.966796,0.292968 -0.292969,0.292969 -0.292969,0.638672 0,0.345703 0.269531,0.5625 0.275391,0.210938 1.160156,0.410157 1.166016,0.263671 1.734375,0.691406 0.574219,0.427734 0.574219,1.207031 0,0.837891 -0.673828,1.359375 -0.667969,0.521484 -1.775391,0.521484 -1.259765,0 -1.927734,-0.644531 -0.667969,-0.644531 -0.667969,-1.429687 h 1.089844 q 0.03516,0.673828 0.515625,0.93164 0.486328,0.251953 0.990234,0.251953 0.66211,0 1.013672,-0.257812 0.351563,-0.257813 0.351563,-0.650391 z"
         style="font-size:12px;font-family:Roboto"
         id="path821215" />
    </g>
    <path
       d="m 369.014,223.05 v 3.6 h 18 v -3.6 z m 3.6,2.7 h -1.8 v -1.8 h 1.8 z m -3.6,-13.5 v 3.6 h 18 v -3.6 z m 3.6,2.7 h -1.8 v -1.8 h 1.8 z m -3.6,2.7 v 3.6 h 18 v -3.6 z m 3.6,2.7 h -1.8 v -1.8 h 1.8 z"
       fill="#616161"
       id="path821050" />
    <path
       fill="#ffffff"
       d="m 179.014,4.45 h 134 v 54 h -134 z"
       id="path821052" />
    <path
       stroke="#dfdfdf"
       stroke-linecap="round"
       stroke-linejoin="round"
       stroke-width="2"
       clip-path="url(#e)"
       d="m 179.014,4.45 h 134 v 54 h -134 z"
       id="path821054" />
    <g
       aria-label="DataEngineering"
       transform="translate(220.014,17.45)"
       id="text821060"
       style="fill:#212121">
      <path
         d="M 0.99023438,11 V 2.46875 H 3.4042969 q 1.6816406,0 2.71875,1.0839844 1.0429687,1.078125 1.0429687,2.9296875 v 0.5097656 q 0,1.8515625 -1.0488281,2.9296875 Q 5.0742187,11 3.2988281,11 Z M 2.1210938,3.3945313 v 6.6855467 h 1.1777343 q 1.3652344,0 2.0566406,-0.8437499 Q 6.046875,8.3925781 6.046875,6.9921875 V 6.4707031 Q 6.046875,5 5.3554687,4.1972656 4.6640625,3.3945313 3.4042969,3.3945313 Z"
         style="font-size:12px;font-family:Roboto"
         id="path821218" />
      <path
         d="m 12.615234,11 q -0.105468,-0.228516 -0.152343,-0.667969 -0.304688,0.322266 -0.761719,0.556641 -0.457031,0.228516 -1.042969,0.228516 -0.9726561,0 -1.5585936,-0.544922 -0.5859375,-0.544922 -0.5859375,-1.3359379 0,-1.0195312 0.7734375,-1.546875 Q 10.060547,7.15625 11.367188,7.15625 h 1.072265 V 6.6523437 q 0,-0.5625 -0.339844,-0.8964843 -0.333984,-0.3398438 -0.996093,-0.3398438 -0.615235,0 -0.996094,0.3046875 Q 9.7324219,6.0195312 9.7324219,6.4179687 H 8.6484375 q 0,-0.6796875 0.6855469,-1.2773437 0.6855466,-0.5976563 1.8339846,-0.5976563 1.03125,0 1.693359,0.5273438 0.66211,0.5273437 0.66211,1.59375 v 2.8476563 q 0,0.8789062 0.222656,1.3945312 V 11 Z m -1.798828,-0.832031 q 0.585938,0 1.013672,-0.292969 0.433594,-0.2929687 0.609375,-0.6503906 V 7.9179687 h -1.007812 q -1.8281254,0.035156 -1.8281254,1.1718751 0,0.4511718 0.3046875,0.7675781 0.3046879,0.3105471 0.9082029,0.3105471 z"
         style="font-size:12px;font-family:Roboto"
         id="path821220" />
      <path
         d="m 17.912109,11 q -0.36914,0.117188 -0.83789,0.117188 -0.603516,0 -1.03125,-0.369141 -0.427735,-0.369141 -0.427735,-1.3242189 V 5.4921875 H 14.455078 V 4.6601562 h 1.160156 V 3.1191406 h 1.083985 v 1.5410156 h 1.183593 v 0.8320313 h -1.183593 v 3.9375 q 0,0.4863281 0.210937,0.6210935 0.210938,0.134766 0.486328,0.134766 0.205078,0 0.509766,-0.07031 z"
         style="font-size:12px;font-family:Roboto"
         id="path821222" />
      <path
         d="m 23.068359,11 q -0.105468,-0.228516 -0.152343,-0.667969 -0.304688,0.322266 -0.761719,0.556641 -0.457031,0.228516 -1.042969,0.228516 -0.972656,0 -1.558594,-0.544922 -0.585937,-0.544922 -0.585937,-1.3359379 0,-1.0195312 0.773437,-1.546875 Q 20.513672,7.15625 21.820312,7.15625 h 1.072266 V 6.6523437 q 0,-0.5625 -0.339844,-0.8964843 -0.333984,-0.3398438 -0.996093,-0.3398438 -0.615235,0 -0.996094,0.3046875 -0.375,0.2988281 -0.375,0.6972656 h -1.083985 q 0,-0.6796875 0.685547,-1.2773437 0.685547,-0.5976563 1.833985,-0.5976563 1.03125,0 1.693359,0.5273438 0.662109,0.5273437 0.662109,1.59375 v 2.8476563 q 0,0.8789062 0.222657,1.3945312 V 11 Z m -1.798828,-0.832031 q 0.585938,0 1.013672,-0.292969 0.433594,-0.2929687 0.609375,-0.6503906 V 7.9179687 h -1.007812 q -1.828125,0.035156 -1.828125,1.1718751 0,0.4511718 0.304687,0.7675781 0.304688,0.3105471 0.908203,0.3105471 z"
         style="font-size:12px;font-family:Roboto"
         id="path821224" />
      <path
         d="M 0.99023438,25 V 16.46875 H 6.3515625 v 0.925781 H 2.1210938 v 2.742188 H 5.8125 v 0.919922 H 2.1210938 v 3.023437 H 6.4101562 V 25 Z"
         style="font-size:12px;font-family:Roboto"
         id="path821226" />
      <path
         d="m 10.277344,19.457031 q -0.5214846,0 -0.9199221,0.28125 -0.3984375,0.28125 -0.6269531,0.732422 V 25 H 7.6464844 V 18.660156 H 8.671875 l 0.035156,0.791016 q 0.7207031,-0.908203 1.8925777,-0.908203 0.931641,0 1.476563,0.521484 0.550781,0.521484 0.556641,1.751953 V 25 h -1.089844 v -4.166016 q 0,-0.74414 -0.328125,-1.060547 -0.322266,-0.316406 -0.9375,-0.316406 z"
         style="font-size:12px;font-family:Roboto"
         id="path821228" />
      <path
         d="m 16.681641,27.501953 q -0.492188,0 -1.207032,-0.240234 -0.714843,-0.240235 -1.142578,-0.861328 l 0.56836,-0.644532 q 0.703125,0.855469 1.699218,0.855469 0.767578,0 1.22461,-0.433594 Q 18.28125,25.75 18.28125,24.917969 v -0.556641 q -0.644531,0.755859 -1.775391,0.755859 -1.142578,0 -1.816406,-0.914062 -0.673828,-0.914063 -0.673828,-2.302734 v -0.123047 q 0,-1.453125 0.667969,-2.34375 0.673828,-0.890625 1.833984,-0.890625 1.166016,0 1.810547,0.820312 l 0.05273,-0.703125 h 0.984375 v 6.205078 q 0,1.259766 -0.75,1.945313 -0.75,0.691406 -1.933593,0.691406 z m -1.582032,-5.601562 q 0,0.943359 0.392579,1.623046 0.398437,0.673829 1.277343,0.673829 1.03125,0 1.511719,-0.9375 v -2.888672 q -0.205078,-0.392578 -0.568359,-0.650391 -0.363282,-0.263672 -0.931641,-0.263672 -0.884766,0 -1.283203,0.691406 -0.398438,0.685547 -0.398438,1.628907 z"
         style="font-size:12px;font-family:Roboto"
         id="path821230" />
      <path
         d="m 21.017578,16.978516 q 0,-0.263672 0.158203,-0.445313 0.164063,-0.181641 0.480469,-0.181641 0.310547,0 0.474609,0.181641 0.169922,0.181641 0.169922,0.445313 0,0.251953 -0.169922,0.433593 -0.164062,0.175782 -0.474609,0.175782 -0.316406,0 -0.480469,-0.175782 -0.158203,-0.18164 -0.158203,-0.433593 z m 1.171875,1.68164 V 25 h -1.089844 v -6.339844 z"
         style="font-size:12px;font-family:Roboto"
         id="path821232" />
      <path
         d="m 26.560547,19.457031 q -0.521485,0 -0.919922,0.28125 -0.398438,0.28125 -0.626953,0.732422 V 25 h -1.083985 v -6.339844 h 1.025391 l 0.03516,0.791016 q 0.720703,-0.908203 1.892578,-0.908203 0.931641,0 1.476563,0.521484 0.550781,0.521484 0.556641,1.751953 V 25 h -1.089844 v -4.166016 q 0,-0.74414 -0.328125,-1.060547 -0.322266,-0.316406 -0.9375,-0.316406 z"
         style="font-size:12px;font-family:Roboto"
         id="path821234" />
      <path
         d="m 35.572266,23.892578 q -0.310547,0.46875 -0.878907,0.849609 -0.568359,0.375 -1.505859,0.375 -1.324219,0 -2.121094,-0.861328 -0.791015,-0.861328 -0.791015,-2.203125 v -0.246093 q 0,-1.03711 0.392578,-1.763672 0.398437,-0.732422 1.03125,-1.113282 0.632812,-0.386718 1.347656,-0.386718 1.359375,0 1.980469,0.890625 0.626953,0.884765 0.626953,2.214843 v 0.486329 h -4.289063 q 0.02344,0.873046 0.515625,1.488281 0.498047,0.609375 1.365235,0.609375 0.574218,0 0.972656,-0.234375 0.398437,-0.234375 0.697266,-0.626953 z m -2.525391,-4.458984 q -0.644531,0 -1.089844,0.46875 -0.445312,0.46875 -0.55664,1.347656 h 3.169921 v -0.08203 q -0.04102,-0.632813 -0.36914,-1.183594 -0.322266,-0.550781 -1.154297,-0.550781 z"
         style="font-size:12px;font-family:Roboto"
         id="path821236" />
      <path
         d="m 41.935547,23.892578 q -0.310547,0.46875 -0.878906,0.849609 -0.56836,0.375 -1.50586,0.375 -1.324219,0 -2.121094,-0.861328 -0.791015,-0.861328 -0.791015,-2.203125 v -0.246093 q 0,-1.03711 0.392578,-1.763672 0.398437,-0.732422 1.03125,-1.113282 0.632812,-0.386718 1.347656,-0.386718 1.359375,0 1.980469,0.890625 0.626953,0.884765 0.626953,2.214843 v 0.486329 h -4.289062 q 0.02344,0.873046 0.515625,1.488281 0.498046,0.609375 1.365234,0.609375 0.574219,0 0.972656,-0.234375 0.398438,-0.234375 0.697266,-0.626953 z m -2.525391,-4.458984 q -0.644531,0 -1.089844,0.46875 Q 37.875,20.371094 37.763672,21.25 h 3.169922 v -0.08203 q -0.04102,-0.632813 -0.369141,-1.183594 -0.322266,-0.550781 -1.154297,-0.550781 z"
         style="font-size:12px;font-family:Roboto"
         id="path821238" />
      <path
         d="m 45.814453,19.585937 q -1.060547,0 -1.447266,0.914063 V 25 h -1.083984 v -6.339844 h 1.054688 l 0.02344,0.726563 q 0.521484,-0.84375 1.505859,-0.84375 0.304688,0 0.480469,0.08203 l -0.0059,1.007812 q -0.240235,-0.04687 -0.527344,-0.04687 z"
         style="font-size:12px;font-family:Roboto"
         id="path821240" />
      <path
         d="m 47.355469,16.978516 q 0,-0.263672 0.158203,-0.445313 0.164062,-0.181641 0.480469,-0.181641 0.310546,0 0.474609,0.181641 0.169922,0.181641 0.169922,0.445313 0,0.251953 -0.169922,0.433593 -0.164063,0.175782 -0.474609,0.175782 -0.316407,0 -0.480469,-0.175782 -0.158203,-0.18164 -0.158203,-0.433593 z m 1.171875,1.68164 V 25 H 47.4375 v -6.339844 z"
         style="font-size:12px;font-family:Roboto"
         id="path821242" />
      <path
         d="m 52.898437,19.457031 q -0.521484,0 -0.919921,0.28125 -0.398438,0.28125 -0.626954,0.732422 V 25 h -1.083984 v -6.339844 h 1.025391 l 0.03516,0.791016 q 0.720703,-0.908203 1.892578,-0.908203 0.931641,0 1.476563,0.521484 0.550781,0.521484 0.55664,1.751953 V 25 h -1.089844 v -4.166016 q 0,-0.74414 -0.328125,-1.060547 -0.322265,-0.316406 -0.9375,-0.316406 z"
         style="font-size:12px;font-family:Roboto"
         id="path821244" />
      <path
         d="m 59.302734,27.501953 q -0.492187,0 -1.207031,-0.240234 -0.714844,-0.240235 -1.142578,-0.861328 l 0.568359,-0.644532 q 0.703125,0.855469 1.699219,0.855469 0.767578,0 1.224609,-0.433594 0.457032,-0.427734 0.457032,-1.259765 v -0.556641 q -0.644532,0.755859 -1.775391,0.755859 -1.142578,0 -1.816406,-0.914062 -0.673828,-0.914063 -0.673828,-2.302734 v -0.123047 q 0,-1.453125 0.667968,-2.34375 0.673829,-0.890625 1.833985,-0.890625 1.166015,0 1.810547,0.820312 l 0.05273,-0.703125 h 0.984375 v 6.205078 q 0,1.259766 -0.75,1.945313 -0.75,0.691406 -1.933594,0.691406 z m -1.582031,-5.601562 q 0,0.943359 0.392578,1.623046 0.398438,0.673829 1.277344,0.673829 1.03125,0 1.511719,-0.9375 v -2.888672 q -0.205078,-0.392578 -0.56836,-0.650391 -0.363281,-0.263672 -0.93164,-0.263672 -0.884766,0 -1.283203,0.691406 -0.398438,0.685547 -0.398438,1.628907 z"
         style="font-size:12px;font-family:Roboto"
         id="path821246" />
    </g>
    <path
       d="m 211.187,32.23 c 0.03,-0.25 0.05,-0.51 0.05,-0.78 0,-0.27 -0.02,-0.53 -0.06,-0.78 l 1.69,-1.32 c 0.15,-0.12 0.19,-0.34 0.1,-0.51 l -1.6,-2.77 a 0.407,0.407 0 0 0 -0.49,-0.18 l -1.99,0.8 c -0.42,-0.32 -0.86,-0.58 -1.35,-0.78 l -0.3,-2.12 a 0.4,0.4 0 0 0 -0.4,-0.34 h -3.2 c -0.2,0 -0.36,0.14 -0.39,0.34 l -0.3,2.12 c -0.49,0.2 -0.94,0.47 -1.35,0.78 l -1.99,-0.8 c -0.18,-0.07 -0.39,0 -0.49,0.18 l -1.6,2.77 c -0.1,0.18 -0.06,0.39 0.1,0.51 l 1.69,1.32 c -0.04,0.25 -0.07,0.52 -0.07,0.78 0,0.26 0.02,0.53 0.06,0.78 l -1.69,1.32 c -0.15,0.12 -0.19,0.34 -0.1,0.51 l 1.6,2.77 c 0.1,0.18 0.31,0.24 0.49,0.18 l 1.99,-0.8 c 0.42,0.32 0.86,0.58 1.35,0.78 l 0.3,2.12 c 0.04,0.2 0.2,0.34 0.4,0.34 h 3.2 c 0.2,0 0.37,-0.14 0.39,-0.34 l 0.3,-2.12 c 0.49,-0.2 0.94,-0.47 1.35,-0.78 l 1.99,0.8 c 0.18,0.07 0.39,0 0.49,-0.18 l 1.6,-2.77 c 0.1,-0.18 0.06,-0.39 -0.1,-0.51 z m -5.95,2.22 c -1.65,0 -3,-1.35 -3,-3 0,-1.65 1.35,-3 3,-3 1.65,0 3,1.35 3,3 0,1.65 -1.35,3 -3,3 z"
       fill="#616161"
       id="path821062" />
    <path
       fill="#ffffff"
       d="m 353.014,98.45 h 134 v 54 h -134 z"
       id="path821064" />
    <path
       stroke="#dfdfdf"
       stroke-linecap="round"
       stroke-linejoin="round"
       stroke-width="2"
       clip-path="url(#f)"
       d="m 353.014,98.45 h 134 v 54 h -134 z"
       id="path821066" />
    <g
       aria-label="FeatureEngineering"
       transform="translate(394.014,111.45)"
       id="text821072"
       style="fill:#212121">
      <path
         d="M 0.99023438,11 V 2.46875 H 6.2753906 V 3.3945313 H 2.1210938 V 6.3066406 H 5.6953125 V 7.2324219 H 2.1210938 V 11 Z"
         style="font-size:12px;font-family:Roboto"
         id="path821249" />
      <path
         d="m 12.351563,9.8925781 q -0.310547,0.4687499 -0.878907,0.8496099 -0.568359,0.375 -1.5058591,0.375 -1.3242188,0 -2.1210938,-0.861329 Q 7.0546875,9.3945313 7.0546875,8.0527344 V 7.8066406 q 0,-1.0371094 0.3925781,-1.7636719 0.3984375,-0.7324218 1.03125,-1.1132812 0.6328125,-0.3867188 1.3476563,-0.3867188 1.3593751,0 1.9804691,0.890625 0.626953,0.8847657 0.626953,2.2148438 V 8.1347656 H 8.1445313 q 0.023437,0.8730469 0.515625,1.4882813 0.4980468,0.6093751 1.3652347,0.6093751 0.574218,0 0.972656,-0.2343751 0.398437,-0.234375 0.697266,-0.6269531 z M 9.8261719,5.4335937 q -0.6445313,0 -1.0898438,0.46875 Q 8.2910156,6.3710937 8.1796875,7.25 H 11.349609 V 7.1679687 Q 11.308594,6.5351562 10.980469,5.984375 10.658203,5.4335937 9.8261719,5.4335937 Z"
         style="font-size:12px;font-family:Roboto"
         id="path821251" />
      <path
         d="m 17.613281,11 q -0.105469,-0.228516 -0.152344,-0.667969 -0.304687,0.322266 -0.761718,0.556641 -0.457032,0.228516 -1.042969,0.228516 -0.972656,0 -1.558594,-0.544922 -0.585937,-0.544922 -0.585937,-1.3359379 0,-1.0195312 0.773437,-1.546875 Q 15.058594,7.15625 16.365234,7.15625 H 17.4375 V 6.6523437 q 0,-0.5625 -0.339844,-0.8964843 -0.333984,-0.3398438 -0.996094,-0.3398438 -0.615234,0 -0.996093,0.3046875 -0.375,0.2988281 -0.375,0.6972656 h -1.083985 q 0,-0.6796875 0.685547,-1.2773437 0.685547,-0.5976563 1.833985,-0.5976563 1.03125,0 1.693359,0.5273438 0.662109,0.5273437 0.662109,1.59375 v 2.8476563 q 0,0.8789062 0.222657,1.3945312 V 11 Z m -1.798828,-0.832031 q 0.585938,0 1.013672,-0.292969 Q 17.261719,9.5820313 17.4375,9.2246094 V 7.9179687 h -1.007813 q -1.828124,0.035156 -1.828124,1.1718751 0,0.4511718 0.304687,0.7675781 0.304688,0.3105471 0.908203,0.3105471 z"
         style="font-size:12px;font-family:Roboto"
         id="path821253" />
      <path
         d="m 22.910156,11 q -0.36914,0.117188 -0.83789,0.117188 -0.603516,0 -1.03125,-0.369141 -0.427735,-0.369141 -0.427735,-1.3242189 V 5.4921875 H 19.453125 V 4.6601562 h 1.160156 V 3.1191406 h 1.083985 v 1.5410156 h 1.183593 v 0.8320313 h -1.183593 v 3.9375 q 0,0.4863281 0.210937,0.6210935 0.210938,0.134766 0.486328,0.134766 0.205078,0 0.509766,-0.07031 z"
         style="font-size:12px;font-family:Roboto"
         id="path821255" />
      <path
         d="m 28.083984,11 -0.02344,-0.626953 q -0.621094,0.744141 -1.851563,0.744141 -0.93164,0 -1.505859,-0.550782 Q 24.128906,10.015625 24.128906,8.75 V 4.6601562 h 1.083985 v 4.1015626 q 0,0.8554687 0.357421,1.1484375 0.363282,0.2871097 0.808594,0.2871097 1.22461,0 1.652344,-0.9199222 V 4.6601562 h 1.089844 V 11 Z"
         style="font-size:12px;font-family:Roboto"
         id="path821257" />
      <path
         d="m 33.298828,5.5859375 q -1.060547,0 -1.447266,0.9140625 V 11 H 30.767578 V 4.6601562 h 1.054688 l 0.02344,0.7265625 q 0.521484,-0.84375 1.505859,-0.84375 0.304688,0 0.480469,0.082031 l -0.0059,1.0078125 q -0.240235,-0.046875 -0.527344,-0.046875 z"
         style="font-size:12px;font-family:Roboto"
         id="path821259" />
      <path
         d="m 39.738281,9.8925781 q -0.310547,0.4687499 -0.878906,0.8496099 -0.568359,0.375 -1.505859,0.375 -1.324219,0 -2.121094,-0.861329 Q 34.441406,9.3945313 34.441406,8.0527344 V 7.8066406 q 0,-1.0371094 0.392578,-1.7636719 0.398438,-0.7324218 1.03125,-1.1132812 0.632813,-0.3867188 1.347657,-0.3867188 1.359375,0 1.980468,0.890625 0.626953,0.8847657 0.626953,2.2148438 V 8.1347656 H 35.53125 q 0.02344,0.8730469 0.515625,1.4882813 0.498047,0.6093751 1.365234,0.6093751 0.574219,0 0.972657,-0.2343751 0.398437,-0.234375 0.697265,-0.6269531 z m -2.52539,-4.4589844 q -0.644532,0 -1.089844,0.46875 Q 35.677734,6.3710937 35.566406,7.25 h 3.169922 V 7.1679687 Q 38.695312,6.5351562 38.367187,5.984375 38.044922,5.4335937 37.212891,5.4335937 Z"
         style="font-size:12px;font-family:Roboto"
         id="path821261" />
      <path
         d="M 0.99023438,25 V 16.46875 H 6.3515625 v 0.925781 H 2.1210938 v 2.742188 H 5.8125 v 0.919922 H 2.1210938 v 3.023437 H 6.4101562 V 25 Z"
         style="font-size:12px;font-family:Roboto"
         id="path821263" />
      <path
         d="m 10.277344,19.457031 q -0.5214846,0 -0.9199221,0.28125 -0.3984375,0.28125 -0.6269531,0.732422 V 25 H 7.6464844 V 18.660156 H 8.671875 l 0.035156,0.791016 q 0.7207031,-0.908203 1.8925777,-0.908203 0.931641,0 1.476563,0.521484 0.550781,0.521484 0.556641,1.751953 V 25 h -1.089844 v -4.166016 q 0,-0.74414 -0.328125,-1.060547 -0.322266,-0.316406 -0.9375,-0.316406 z"
         style="font-size:12px;font-family:Roboto"
         id="path821265" />
      <path
         d="m 16.681641,27.501953 q -0.492188,0 -1.207032,-0.240234 -0.714843,-0.240235 -1.142578,-0.861328 l 0.56836,-0.644532 q 0.703125,0.855469 1.699218,0.855469 0.767578,0 1.22461,-0.433594 Q 18.28125,25.75 18.28125,24.917969 v -0.556641 q -0.644531,0.755859 -1.775391,0.755859 -1.142578,0 -1.816406,-0.914062 -0.673828,-0.914063 -0.673828,-2.302734 v -0.123047 q 0,-1.453125 0.667969,-2.34375 0.673828,-0.890625 1.833984,-0.890625 1.166016,0 1.810547,0.820312 l 0.05273,-0.703125 h 0.984375 v 6.205078 q 0,1.259766 -0.75,1.945313 -0.75,0.691406 -1.933593,0.691406 z m -1.582032,-5.601562 q 0,0.943359 0.392579,1.623046 0.398437,0.673829 1.277343,0.673829 1.03125,0 1.511719,-0.9375 v -2.888672 q -0.205078,-0.392578 -0.568359,-0.650391 -0.363282,-0.263672 -0.931641,-0.263672 -0.884766,0 -1.283203,0.691406 -0.398438,0.685547 -0.398438,1.628907 z"
         style="font-size:12px;font-family:Roboto"
         id="path821267" />
      <path
         d="m 21.017578,16.978516 q 0,-0.263672 0.158203,-0.445313 0.164063,-0.181641 0.480469,-0.181641 0.310547,0 0.474609,0.181641 0.169922,0.181641 0.169922,0.445313 0,0.251953 -0.169922,0.433593 -0.164062,0.175782 -0.474609,0.175782 -0.316406,0 -0.480469,-0.175782 -0.158203,-0.18164 -0.158203,-0.433593 z m 1.171875,1.68164 V 25 h -1.089844 v -6.339844 z"
         style="font-size:12px;font-family:Roboto"
         id="path821269" />
      <path
         d="m 26.560547,19.457031 q -0.521485,0 -0.919922,0.28125 -0.398438,0.28125 -0.626953,0.732422 V 25 h -1.083985 v -6.339844 h 1.025391 l 0.03516,0.791016 q 0.720703,-0.908203 1.892578,-0.908203 0.931641,0 1.476563,0.521484 0.550781,0.521484 0.556641,1.751953 V 25 h -1.089844 v -4.166016 q 0,-0.74414 -0.328125,-1.060547 -0.322266,-0.316406 -0.9375,-0.316406 z"
         style="font-size:12px;font-family:Roboto"
         id="path821271" />
      <path
         d="m 35.572266,23.892578 q -0.310547,0.46875 -0.878907,0.849609 -0.568359,0.375 -1.505859,0.375 -1.324219,0 -2.121094,-0.861328 -0.791015,-0.861328 -0.791015,-2.203125 v -0.246093 q 0,-1.03711 0.392578,-1.763672 0.398437,-0.732422 1.03125,-1.113282 0.632812,-0.386718 1.347656,-0.386718 1.359375,0 1.980469,0.890625 0.626953,0.884765 0.626953,2.214843 v 0.486329 h -4.289063 q 0.02344,0.873046 0.515625,1.488281 0.498047,0.609375 1.365235,0.609375 0.574218,0 0.972656,-0.234375 0.398437,-0.234375 0.697266,-0.626953 z m -2.525391,-4.458984 q -0.644531,0 -1.089844,0.46875 -0.445312,0.46875 -0.55664,1.347656 h 3.169921 v -0.08203 q -0.04102,-0.632813 -0.36914,-1.183594 -0.322266,-0.550781 -1.154297,-0.550781 z"
         style="font-size:12px;font-family:Roboto"
         id="path821273" />
      <path
         d="m 41.935547,23.892578 q -0.310547,0.46875 -0.878906,0.849609 -0.56836,0.375 -1.50586,0.375 -1.324219,0 -2.121094,-0.861328 -0.791015,-0.861328 -0.791015,-2.203125 v -0.246093 q 0,-1.03711 0.392578,-1.763672 0.398437,-0.732422 1.03125,-1.113282 0.632812,-0.386718 1.347656,-0.386718 1.359375,0 1.980469,0.890625 0.626953,0.884765 0.626953,2.214843 v 0.486329 h -4.289062 q 0.02344,0.873046 0.515625,1.488281 0.498046,0.609375 1.365234,0.609375 0.574219,0 0.972656,-0.234375 0.398438,-0.234375 0.697266,-0.626953 z m -2.525391,-4.458984 q -0.644531,0 -1.089844,0.46875 Q 37.875,20.371094 37.763672,21.25 h 3.169922 v -0.08203 q -0.04102,-0.632813 -0.369141,-1.183594 -0.322266,-0.550781 -1.154297,-0.550781 z"
         style="font-size:12px;font-family:Roboto"
         id="path821275" />
      <path
         d="m 45.814453,19.585937 q -1.060547,0 -1.447266,0.914063 V 25 h -1.083984 v -6.339844 h 1.054688 l 0.02344,0.726563 q 0.521484,-0.84375 1.505859,-0.84375 0.304688,0 0.480469,0.08203 l -0.0059,1.007812 q -0.240235,-0.04687 -0.527344,-0.04687 z"
         style="font-size:12px;font-family:Roboto"
         id="path821277" />
      <path
         d="m 47.355469,16.978516 q 0,-0.263672 0.158203,-0.445313 0.164062,-0.181641 0.480469,-0.181641 0.310546,0 0.474609,0.181641 0.169922,0.181641 0.169922,0.445313 0,0.251953 -0.169922,0.433593 -0.164063,0.175782 -0.474609,0.175782 -0.316407,0 -0.480469,-0.175782 -0.158203,-0.18164 -0.158203,-0.433593 z m 1.171875,1.68164 V 25 H 47.4375 v -6.339844 z"
         style="font-size:12px;font-family:Roboto"
         id="path821279" />
      <path
         d="m 52.898437,19.457031 q -0.521484,0 -0.919921,0.28125 -0.398438,0.28125 -0.626954,0.732422 V 25 h -1.083984 v -6.339844 h 1.025391 l 0.03516,0.791016 q 0.720703,-0.908203 1.892578,-0.908203 0.931641,0 1.476563,0.521484 0.550781,0.521484 0.55664,1.751953 V 25 h -1.089844 v -4.166016 q 0,-0.74414 -0.328125,-1.060547 -0.322265,-0.316406 -0.9375,-0.316406 z"
         style="font-size:12px;font-family:Roboto"
         id="path821281" />
      <path
         d="m 59.302734,27.501953 q -0.492187,0 -1.207031,-0.240234 -0.714844,-0.240235 -1.142578,-0.861328 l 0.568359,-0.644532 q 0.703125,0.855469 1.699219,0.855469 0.767578,0 1.224609,-0.433594 0.457032,-0.427734 0.457032,-1.259765 v -0.556641 q -0.644532,0.755859 -1.775391,0.755859 -1.142578,0 -1.816406,-0.914062 -0.673828,-0.914063 -0.673828,-2.302734 v -0.123047 q 0,-1.453125 0.667968,-2.34375 0.673829,-0.890625 1.833985,-0.890625 1.166015,0 1.810547,0.820312 l 0.05273,-0.703125 h 0.984375 v 6.205078 q 0,1.259766 -0.75,1.945313 -0.75,0.691406 -1.933594,0.691406 z m -1.582031,-5.601562 q 0,0.943359 0.392578,1.623046 0.398438,0.673829 1.277344,0.673829 1.03125,0 1.511719,-0.9375 v -2.888672 q -0.205078,-0.392578 -0.56836,-0.650391 -0.363281,-0.263672 -0.93164,-0.263672 -0.884766,0 -1.283203,0.691406 -0.398438,0.685547 -0.398438,1.628907 z"
         style="font-size:12px;font-family:Roboto"
         id="path821283" />
    </g>
    <path
       d="m 385.187,126.23 c 0.03,-0.25 0.05,-0.51 0.05,-0.78 0,-0.27 -0.02,-0.53 -0.06,-0.78 l 1.69,-1.32 c 0.15,-0.12 0.19,-0.34 0.1,-0.51 l -1.6,-2.77 a 0.407,0.407 0 0 0 -0.49,-0.18 l -1.99,0.8 c -0.42,-0.32 -0.86,-0.58 -1.35,-0.78 l -0.3,-2.12 a 0.4,0.4 0 0 0 -0.4,-0.34 h -3.2 c -0.2,0 -0.36,0.14 -0.39,0.34 l -0.3,2.12 c -0.49,0.2 -0.94,0.47 -1.35,0.78 l -1.99,-0.8 c -0.18,-0.07 -0.39,0 -0.49,0.18 l -1.6,2.77 c -0.1,0.18 -0.06,0.39 0.1,0.51 l 1.69,1.32 c -0.04,0.25 -0.07,0.52 -0.07,0.78 0,0.26 0.02,0.53 0.06,0.78 l -1.69,1.32 c -0.15,0.12 -0.19,0.34 -0.1,0.51 l 1.6,2.77 c 0.1,0.18 0.31,0.24 0.49,0.18 l 1.99,-0.8 c 0.42,0.32 0.86,0.58 1.35,0.78 l 0.3,2.12 c 0.04,0.2 0.2,0.34 0.4,0.34 h 3.2 c 0.2,0 0.37,-0.14 0.39,-0.34 l 0.3,-2.12 c 0.49,-0.2 0.94,-0.47 1.35,-0.78 l 1.99,0.8 c 0.18,0.07 0.39,0 0.49,-0.18 l 1.6,-2.77 c 0.1,-0.18 0.06,-0.39 -0.1,-0.51 z m -5.95,2.22 c -1.65,0 -3,-1.35 -3,-3 0,-1.65 1.35,-3 3,-3 1.65,0 3,1.35 3,3 0,1.65 -1.35,3 -3,3 z"
       fill="#616161"
       id="path821074" />
    <g
       id="g821078">
      <title
         id="title821076">path arrow - grey primary</title>
    </g>
    <g
       id="g821082">
      <path
         d="m 487.012,219.45 30.1,0.155 a 0.50000625,0.50000625 0 1 0 0.005,-1 l -30.1,-0.155 a 0.50000625,0.50000625 0 0 0 -0.005,1 z m 38.105,-0.803 -8,-0.042 -0.005,1 8,0.042 z m -4.337,-3.17 3.979,4.021 0.004,-0.707 -4.021,3.98 0.703,0.71 4.021,-3.98 0.355,-0.35 -0.351,-0.356 -3.98,-4.02 z"
         fill="#616161"
         id="path821080" />
    </g>
    <g
       id="g821086">
      <path
         d="m 419.514,152.45 v 31.248 a 0.5,0.5 0 0 0 1,0 V 152.45 a 0.5,0.5 0 0 0 -1,0 z m 1,39.248 v -8 h -1 v 8 z m 3.147,-4.353 -4,4 h 0.707 l -4,-4 -0.707,0.707 4,4 0.353,0.353 0.354,-0.353 4,-4 z"
         fill="#616161"
         id="path821084" />
    </g>
    <g
       id="g821090">
      <path
         d="m 314.012,125.45 29.1,0.137 a 0.50000625,0.50000625 0 1 0 0.005,-1 l -29.1,-0.137 a 0.50000625,0.50000625 0 1 0 -0.005,1 z m 37.105,-0.825 -8,-0.038 -0.005,1 8,0.038 z m -4.339,-3.167 3.981,4.019 0.003,-0.708 -4.018,3.981 0.703,0.71 4.02,-3.98 0.354,-0.352 -0.351,-0.355 -3.982,-4.02 z"
         fill="#616161"
         id="path821088" />
    </g>
    <g
       id="g821094">
      <path
         d="M 245.514,59.513 V 88.96 a 0.5,0.5 0 1 0 1,0 V 59.513 a 0.5,0.5 0 0 0 -1,0 z m 1,37.448 v -8 h -1 v 8 z m 3.147,-4.353 -4,4 h 0.707 l -4,-4 -0.707,0.707 4,4 0.353,0.353 0.354,-0.353 4,-4 z"
         fill="#616161"
         id="path821092" />
    </g>
    <g
       id="g821098">
      <path
         d="m 139.012,31.45 30.1,0.14 a 0.50000625,0.50000625 0 0 0 0.005,-1 l -30.1,-0.14 a 0.50000625,0.50000625 0 0 0 -0.005,1 z m 38.105,-0.822 -8,-0.038 -0.005,1 8,0.038 z m -4.34,-3.167 3.982,4.019 0.003,-0.708 -4.018,3.982 0.704,0.71 4.018,-3.981 0.355,-0.352 -0.351,-0.355 -3.982,-4.019 z"
         fill="#616161"
         id="path821096" />
    </g>
  </g>
</svg>
